<svg xmlns="http://www.w3.org/2000/svg" width="1719" height="279.659" viewBox="0 0 1719 279.659">
  <g id="Group_10207" data-name="Group 10207" transform="translate(-39 -3451)">
    <g id="Group_10196" data-name="Group 10196" transform="translate(1291 3451)" opacity="0.133" style="isolation: isolate">
      <path id="Path_351" data-name="Path 351" d="M103.757,312.054c-.038.01-.042.026-.046.042.262-.061.542-.119.807-.2l.019,0a10.611,10.611,0,0,0,1.558-.537,4.442,4.442,0,0,0-1.675.35l-.012-.021c-.042.026-.1.03-.142.074a.372.372,0,0,0-.184.1A1.29,1.29,0,0,0,103.757,312.054Z" transform="translate(-90.615 -295.121)" fill="#fff054"/>
      <path id="Path_352" data-name="Path 352" d="M103.434,321.117a.271.271,0,0,0,.077.124c.132.261.287.509.432.792a29.423,29.423,0,0,0,18.138,12.92l.031.006a35.192,35.192,0,0,0,7.375,1.081,39.171,39.171,0,0,0,14.253-1.778l.015,0a30.533,30.533,0,0,0,6.926-3.27c6.172-3.89,8.875-8.847,9.289-10.074a14.9,14.9,0,0,0,.5-3.262l.478-1.284a1.708,1.708,0,0,1-.984-.021,1.116,1.116,0,0,1-.319-.3,1.452,1.452,0,0,1-.2-.277,3.366,3.366,0,0,0-.251-.36l-.012-.021c-.258-.343-.3-.6-.611-.87a4.207,4.207,0,0,1-.7-.624,1.447,1.447,0,0,1-.13-.19l-.81.2a6.06,6.06,0,0,0-3.413-.076c-2.647.651-22.314,16.033-44.176-1.211a6.289,6.289,0,0,0-3.969-1.254,4.441,4.441,0,0,0-1.675.35.566.566,0,0,0-.153.052.372.372,0,0,0-.184.1,1.292,1.292,0,0,0-.326.187c-.038.01-.042.026-.046.042a.8.8,0,0,0-.223.2c-.038.01-.061.04-.1.065C101.169,313.9,101.442,317.321,103.434,321.117Z" transform="translate(-89.894 -295.119)" fill="#fff054"/>
      <path id="Path_353" data-name="Path 353" d="M189.327,314.839a1.445,1.445,0,0,0,.13.19,4.208,4.208,0,0,0,.7.624c.31.267.354.528.611.87a3.128,3.128,0,0,0,.783.962,1.708,1.708,0,0,0,.984.02l.3-.831-2.161-2.172Z" transform="translate(-121.481 -296.251)" fill="#604b3b"/>
      <path id="Path_354" data-name="Path 354" d="M175.332,350.536c.017.07.036.14.065.224.1.308-.207.748-.035,1.055.214.377.692.432.827.845.072.285.021,1.534.24,1.784a.945.945,0,0,0,1.165-.077l.563-.537-1.4-2.889Z" transform="translate(-116.427 -309.242)" fill="#604b3b"/>
      <path id="Path_355" data-name="Path 355" d="M83.337,287.634A3.272,3.272,0,0,0,83.8,290.4c.518.579,3,.706,2.986,1.373s-1.173,6.871-.256,9.883a6.441,6.441,0,0,1,.691-1.8l0-.015a3.522,3.522,0,0,1,.9-1.062,2.984,2.984,0,0,1,.394-.242,1.617,1.617,0,0,1,.411-.169,1.84,1.84,0,0,1,.346-.043,2.338,2.338,0,0,1,.812.014.062.062,0,0,1,.052-.007l0,.019a8.226,8.226,0,0,1,5.219,3.616l.654,1.056c.112-.026.206-.04.318-.068,0-.016.008-.033.046-.042a.777.777,0,0,1,.326-.187.372.372,0,0,1,.184-.1c.045-.043.1-.048.142-.074l.012.021a4.442,4.442,0,0,1,1.675-.35,1.479,1.479,0,0,0,.194-.078c-1.847-1.548-1.9-4.091-2.07-6.236-.171-1.6.049-3.439.994-3.623.535-2.652-1.07-2.587-3.589-3.622-2.316-.987-4.655-2.316-7.121-2.665C83.664,286.541,83.566,286.662,83.337,287.634Z" transform="translate(-83.232 -285.974)" fill="#fff054"/>
      <path id="Path_356" data-name="Path 356" d="M83.345,287.6a3.265,3.265,0,0,0,.462,2.76c.518.583,3,.708,2.987,1.376s-1.174,6.871-.257,9.885a6.462,6.462,0,0,1,.691-1.8l.615-.806a15.3,15.3,0,0,1,.1-4.793c.045-.643.54-2.3.246-2.931-.382-.622-.957-.366-1.228-1.088a.262.262,0,0,1-.03-.093c-.244-.836.177-3.16.2-4.147C83.671,286.512,83.573,286.63,83.345,287.6Z" transform="translate(-83.235 -285.962)" fill="#999" opacity="0.36" style="mix-blend-mode: multiply;isolation: isolate"/>
      <path id="Path_357" data-name="Path 357" d="M95.187,302.207c.457-.141.972.16,1.505.674a8.316,8.316,0,0,1,2.974,2.769l.642,1.036c.068.017.112.043.181.059a.366.366,0,0,0-.089.07c-.024.029-.063.056-.09.084-1.494,1.541-1.221,4.966.771,8.761a.3.3,0,0,0,.067.087c0,.016,0,.016.01.037.132.261.287.509.432.792a29.473,29.473,0,0,0,17.991,12.865l.032.008a36.667,36.667,0,0,0,7.524,1.116,39.325,39.325,0,0,0,14.179-1.759,30.731,30.731,0,0,0,7.011-3.269c6.172-3.89,8.875-8.847,9.289-10.074a14.9,14.9,0,0,0,.5-3.262l.478-1.284,0-.018a1.717,1.717,0,0,1-.984-.018c-.036-.01-.048-.031-.079-.054a1.119,1.119,0,0,1-.244-.235c-.068-.087-.148-.194-.2-.277a3.361,3.361,0,0,0-.251-.36c-4.539,5.461-13.295,8.531-19.6,9.915-7.428,1.49-14.042,1.4-21.207-1.309a27.26,27.26,0,0,1-14.574-12.116l-.019,0c-.038-.063-.06-.121-.1-.183l-.012-.021c-.253-1.1-3.314-4.124-3.567-5.226-.313-1.454.284-4.888-1.3-4.782A20.316,20.316,0,0,0,95.187,302.207Z" transform="translate(-87.542 -289.662)" fill="#999" opacity="0.36" style="mix-blend-mode: multiply;isolation: isolate"/>
      <path id="Path_358" data-name="Path 358" d="M88.2,308.593c-.99,4.067.061,11.249,4.545,18.354.231.373.479.749.728,1.127a37.958,37.958,0,0,0,4.552,5.459c.72.7,1.461,1.387,2.257,2.069a42.8,42.8,0,0,0,6.823,4.755,42.2,42.2,0,0,0,18.431,5.807c.771.039,1.526.056,2.254.051.372,0,.744,0,1.1-.023a30.522,30.522,0,0,0,5.78-.8c.3-.073.577-.13.845-.209a28.676,28.676,0,0,0,4.248-1.512c.477-.224.939-.451,1.342-.658.387-.228.752-.423,1.063-.618a8.956,8.956,0,0,0,1.458-1.09,10.287,10.287,0,0,0,1.552-2.447l.881-.819a2.319,2.319,0,0,1-.94-.522c-.012-.02-.024-.041-.038-.063s-.026-.042-.038-.063a1.613,1.613,0,0,1-.143-.3,1.333,1.333,0,0,1-.114-.327,3.6,3.6,0,0,1-.13-.438,4.1,4.1,0,0,0-.3-1.028,5.42,5.42,0,0,1-.485-.874,1.426,1.426,0,0,1-.053-.224l-.864-.24a8.291,8.291,0,0,0-3.3-1.783,3.9,3.9,0,0,0-.892-.123l-.015,0a.109.109,0,0,0-.07,0c-5.286-.4-26.4.244-40.9-21.973a.016.016,0,0,0-.014-.019.4.4,0,0,0-.081-.109l-.654-1.056a8.316,8.316,0,0,0-2.974-2.769,5.633,5.633,0,0,0-1.505-.674,5.468,5.468,0,0,0-.739-.173l-.047-.012a3.772,3.772,0,0,0-.812-.014,3.167,3.167,0,0,0-.349.059,2.815,2.815,0,0,0-.408.153,2.987,2.987,0,0,0-.394.242,3.522,3.522,0,0,0-.9,1.062l0,.015A6.441,6.441,0,0,0,88.2,308.593Z" transform="translate(-84.898 -292.913)" fill="#fff054"/>
      <path id="Path_359" data-name="Path 359" d="M88.2,308.586c-.99,4.067.061,11.249,4.545,18.354.231.373.479.749.728,1.127a37.958,37.958,0,0,0,4.552,5.459c.72.7,1.461,1.387,2.257,2.069a42.8,42.8,0,0,0,6.823,4.755,42.2,42.2,0,0,0,18.431,5.807c.771.039,1.526.056,2.254.051.372,0,.744,0,1.1-.023a30.522,30.522,0,0,0,5.78-.8c.3-.073.577-.13.845-.209a28.676,28.676,0,0,0,4.248-1.512c.477-.224.939-.451,1.342-.658.387-.228.752-.423,1.063-.618a8.956,8.956,0,0,0,1.458-1.09,10.287,10.287,0,0,0,1.552-2.447l.881-.819.02-.014a2.308,2.308,0,0,1-.955-.524c-.012-.022-.029-.024-.043-.047s-.026-.042-.038-.063a1.613,1.613,0,0,1-.143-.3,1.333,1.333,0,0,1-.114-.327c-.051-.171-.086-.321-.112-.434l-.019,0c-6.175,2.262-15.712.389-22.294-1.635-1.828-.59-3.55-1.226-5.243-1.941l-.031-.006c-.051-.013-.08-.039-.114-.047l-.032-.008a47.693,47.693,0,0,1-14.805-9.78A37.729,37.729,0,0,1,98.5,318.99a.3.3,0,0,1-.067-.087,34.334,34.334,0,0,1-5-8.218,26.092,26.092,0,0,1-1.632-5.408l0-.019a.062.062,0,0,0-.052.007,2.338,2.338,0,0,0-.812-.014,1.843,1.843,0,0,0-.346.043,1.617,1.617,0,0,0-.411.169,2.987,2.987,0,0,0-.394.242,3.522,3.522,0,0,0-.9,1.062l0,.015A6.441,6.441,0,0,0,88.2,308.586Z" transform="translate(-84.898 -292.906)" fill="#999" opacity="0.36" style="mix-blend-mode: multiply;isolation: isolate"/>
      <path id="Path_360" data-name="Path 360" d="M83.683,289.294c-.095,1.073.918.321,1.608.378.467.057,1.033.349,1.269-.2a13.156,13.156,0,0,0,.169-2.153,4.1,4.1,0,0,0-.648-.169,4.951,4.951,0,0,0-2.142.451C83.438,287.926,83.722,288.755,83.683,289.294Z" transform="translate(-83.378 -286.39)" fill="#989291"/>
    </g>
    <g id="Group_10205" data-name="Group 10205" transform="translate(39 3535)" opacity="0.133" style="isolation: isolate">
      <path id="Path_351-2" data-name="Path 351" d="M103.757,312.054c-.038.01-.042.026-.046.042.262-.061.542-.119.807-.2l.019,0a10.611,10.611,0,0,0,1.558-.537,4.442,4.442,0,0,0-1.675.35l-.012-.021c-.042.026-.1.03-.142.074a.372.372,0,0,0-.184.1A1.29,1.29,0,0,0,103.757,312.054Z" transform="translate(-90.615 -295.121)" fill="#fff054"/>
      <path id="Path_352-2" data-name="Path 352" d="M103.434,321.117a.271.271,0,0,0,.077.124c.132.261.287.509.432.792a29.423,29.423,0,0,0,18.138,12.92l.031.006a35.192,35.192,0,0,0,7.375,1.081,39.171,39.171,0,0,0,14.253-1.778l.015,0a30.533,30.533,0,0,0,6.926-3.27c6.172-3.89,8.875-8.847,9.289-10.074a14.9,14.9,0,0,0,.5-3.262l.478-1.284a1.708,1.708,0,0,1-.984-.021,1.116,1.116,0,0,1-.319-.3,1.452,1.452,0,0,1-.2-.277,3.366,3.366,0,0,0-.251-.36l-.012-.021c-.258-.343-.3-.6-.611-.87a4.207,4.207,0,0,1-.7-.624,1.447,1.447,0,0,1-.13-.19l-.81.2a6.06,6.06,0,0,0-3.413-.076c-2.647.651-22.314,16.033-44.176-1.211a6.289,6.289,0,0,0-3.969-1.254,4.441,4.441,0,0,0-1.675.35.566.566,0,0,0-.153.052.372.372,0,0,0-.184.1,1.292,1.292,0,0,0-.326.187c-.038.01-.042.026-.046.042a.8.8,0,0,0-.223.2c-.038.01-.061.04-.1.065C101.169,313.9,101.442,317.321,103.434,321.117Z" transform="translate(-89.894 -295.119)" fill="#fff054"/>
      <path id="Path_353-2" data-name="Path 353" d="M189.327,314.839a1.445,1.445,0,0,0,.13.19,4.208,4.208,0,0,0,.7.624c.31.267.354.528.611.87a3.128,3.128,0,0,0,.783.962,1.708,1.708,0,0,0,.984.02l.3-.831-2.161-2.172Z" transform="translate(-121.481 -296.251)" fill="#604b3b"/>
      <path id="Path_354-2" data-name="Path 354" d="M175.332,350.536c.017.07.036.14.065.224.1.308-.207.748-.035,1.055.214.377.692.432.827.845.072.285.021,1.534.24,1.784a.945.945,0,0,0,1.165-.077l.563-.537-1.4-2.889Z" transform="translate(-116.427 -309.242)" fill="#604b3b"/>
      <path id="Path_355-2" data-name="Path 355" d="M83.337,287.634A3.272,3.272,0,0,0,83.8,290.4c.518.579,3,.706,2.986,1.373s-1.173,6.871-.256,9.883a6.441,6.441,0,0,1,.691-1.8l0-.015a3.522,3.522,0,0,1,.9-1.062,2.984,2.984,0,0,1,.394-.242,1.617,1.617,0,0,1,.411-.169,1.84,1.84,0,0,1,.346-.043,2.338,2.338,0,0,1,.812.014.062.062,0,0,1,.052-.007l0,.019a8.226,8.226,0,0,1,5.219,3.616l.654,1.056c.112-.026.206-.04.318-.068,0-.016.008-.033.046-.042a.777.777,0,0,1,.326-.187.372.372,0,0,1,.184-.1c.045-.043.1-.048.142-.074l.012.021a4.442,4.442,0,0,1,1.675-.35,1.479,1.479,0,0,0,.194-.078c-1.847-1.548-1.9-4.091-2.07-6.236-.171-1.6.049-3.439.994-3.623.535-2.652-1.07-2.587-3.589-3.622-2.316-.987-4.655-2.316-7.121-2.665C83.664,286.541,83.566,286.662,83.337,287.634Z" transform="translate(-83.232 -285.974)" fill="#fff054"/>
      <path id="Path_356-2" data-name="Path 356" d="M83.345,287.6a3.265,3.265,0,0,0,.462,2.76c.518.583,3,.708,2.987,1.376s-1.174,6.871-.257,9.885a6.462,6.462,0,0,1,.691-1.8l.615-.806a15.3,15.3,0,0,1,.1-4.793c.045-.643.54-2.3.246-2.931-.382-.622-.957-.366-1.228-1.088a.262.262,0,0,1-.03-.093c-.244-.836.177-3.16.2-4.147C83.671,286.512,83.573,286.63,83.345,287.6Z" transform="translate(-83.235 -285.962)" fill="#999" opacity="0.36" style="mix-blend-mode: multiply;isolation: isolate"/>
      <path id="Path_357-2" data-name="Path 357" d="M95.187,302.207c.457-.141.972.16,1.505.674a8.316,8.316,0,0,1,2.974,2.769l.642,1.036c.068.017.112.043.181.059a.366.366,0,0,0-.089.07c-.024.029-.063.056-.09.084-1.494,1.541-1.221,4.966.771,8.761a.3.3,0,0,0,.067.087c0,.016,0,.016.01.037.132.261.287.509.432.792a29.473,29.473,0,0,0,17.991,12.865l.032.008a36.667,36.667,0,0,0,7.524,1.116,39.325,39.325,0,0,0,14.179-1.759,30.731,30.731,0,0,0,7.011-3.269c6.172-3.89,8.875-8.847,9.289-10.074a14.9,14.9,0,0,0,.5-3.262l.478-1.284,0-.018a1.717,1.717,0,0,1-.984-.018c-.036-.01-.048-.031-.079-.054a1.119,1.119,0,0,1-.244-.235c-.068-.087-.148-.194-.2-.277a3.361,3.361,0,0,0-.251-.36c-4.539,5.461-13.295,8.531-19.6,9.915-7.428,1.49-14.042,1.4-21.207-1.309a27.26,27.26,0,0,1-14.574-12.116l-.019,0c-.038-.063-.06-.121-.1-.183l-.012-.021c-.253-1.1-3.314-4.124-3.567-5.226-.313-1.454.284-4.888-1.3-4.782A20.316,20.316,0,0,0,95.187,302.207Z" transform="translate(-87.542 -289.662)" fill="#999" opacity="0.36" style="mix-blend-mode: multiply;isolation: isolate"/>
      <path id="Path_358-2" data-name="Path 358" d="M88.2,308.593c-.99,4.067.061,11.249,4.545,18.354.231.373.479.749.728,1.127a37.958,37.958,0,0,0,4.552,5.459c.72.7,1.461,1.387,2.257,2.069a42.8,42.8,0,0,0,6.823,4.755,42.2,42.2,0,0,0,18.431,5.807c.771.039,1.526.056,2.254.051.372,0,.744,0,1.1-.023a30.522,30.522,0,0,0,5.78-.8c.3-.073.577-.13.845-.209a28.676,28.676,0,0,0,4.248-1.512c.477-.224.939-.451,1.342-.658.387-.228.752-.423,1.063-.618a8.956,8.956,0,0,0,1.458-1.09,10.287,10.287,0,0,0,1.552-2.447l.881-.819a2.319,2.319,0,0,1-.94-.522c-.012-.02-.024-.041-.038-.063s-.026-.042-.038-.063a1.613,1.613,0,0,1-.143-.3,1.333,1.333,0,0,1-.114-.327,3.6,3.6,0,0,1-.13-.438,4.1,4.1,0,0,0-.3-1.028,5.42,5.42,0,0,1-.485-.874,1.426,1.426,0,0,1-.053-.224l-.864-.24a8.291,8.291,0,0,0-3.3-1.783,3.9,3.9,0,0,0-.892-.123l-.015,0a.109.109,0,0,0-.07,0c-5.286-.4-26.4.244-40.9-21.973a.016.016,0,0,0-.014-.019.4.4,0,0,0-.081-.109l-.654-1.056a8.316,8.316,0,0,0-2.974-2.769,5.633,5.633,0,0,0-1.505-.674,5.468,5.468,0,0,0-.739-.173l-.047-.012a3.772,3.772,0,0,0-.812-.014,3.167,3.167,0,0,0-.349.059,2.815,2.815,0,0,0-.408.153,2.987,2.987,0,0,0-.394.242,3.522,3.522,0,0,0-.9,1.062l0,.015A6.441,6.441,0,0,0,88.2,308.593Z" transform="translate(-84.898 -292.913)" fill="#fff054"/>
      <path id="Path_359-2" data-name="Path 359" d="M88.2,308.586c-.99,4.067.061,11.249,4.545,18.354.231.373.479.749.728,1.127a37.958,37.958,0,0,0,4.552,5.459c.72.7,1.461,1.387,2.257,2.069a42.8,42.8,0,0,0,6.823,4.755,42.2,42.2,0,0,0,18.431,5.807c.771.039,1.526.056,2.254.051.372,0,.744,0,1.1-.023a30.522,30.522,0,0,0,5.78-.8c.3-.073.577-.13.845-.209a28.676,28.676,0,0,0,4.248-1.512c.477-.224.939-.451,1.342-.658.387-.228.752-.423,1.063-.618a8.956,8.956,0,0,0,1.458-1.09,10.287,10.287,0,0,0,1.552-2.447l.881-.819.02-.014a2.308,2.308,0,0,1-.955-.524c-.012-.022-.029-.024-.043-.047s-.026-.042-.038-.063a1.613,1.613,0,0,1-.143-.3,1.333,1.333,0,0,1-.114-.327c-.051-.171-.086-.321-.112-.434l-.019,0c-6.175,2.262-15.712.389-22.294-1.635-1.828-.59-3.55-1.226-5.243-1.941l-.031-.006c-.051-.013-.08-.039-.114-.047l-.032-.008a47.693,47.693,0,0,1-14.805-9.78A37.729,37.729,0,0,1,98.5,318.99a.3.3,0,0,1-.067-.087,34.334,34.334,0,0,1-5-8.218,26.092,26.092,0,0,1-1.632-5.408l0-.019a.062.062,0,0,0-.052.007,2.338,2.338,0,0,0-.812-.014,1.843,1.843,0,0,0-.346.043,1.617,1.617,0,0,0-.411.169,2.987,2.987,0,0,0-.394.242,3.522,3.522,0,0,0-.9,1.062l0,.015A6.441,6.441,0,0,0,88.2,308.586Z" transform="translate(-84.898 -292.906)" fill="#999" opacity="0.36" style="mix-blend-mode: multiply;isolation: isolate"/>
      <path id="Path_360-2" data-name="Path 360" d="M83.683,289.294c-.095,1.073.918.321,1.608.378.467.057,1.033.349,1.269-.2a13.156,13.156,0,0,0,.169-2.153,4.1,4.1,0,0,0-.648-.169,4.951,4.951,0,0,0-2.142.451C83.438,287.926,83.722,288.755,83.683,289.294Z" transform="translate(-83.378 -286.39)" fill="#989291"/>
    </g>
    <g id="Group_10197" data-name="Group 10197" transform="translate(984.549 3451)" opacity="0.133" style="isolation: isolate">
      <path id="Rectangle_44" data-name="Rectangle 44" d="M11.541,0H27.694A11.543,11.543,0,0,1,39.237,11.543V31.292A11.541,11.541,0,0,1,27.7,42.833H11.54A11.54,11.54,0,0,1,0,31.293V11.541A11.541,11.541,0,0,1,11.541,0Z" transform="translate(0 9.938)" fill="#7c3843"/>
      <path id="Path_361" data-name="Path 361" d="M-292.877,168.928c.866-1.205,2.848-1.115,4.155-1.017a12.894,12.894,0,0,1,5.376,1.512c1.378.783,1.854,2.158.346,3.144-1.606,1.053-3.655.183-5.124-.675-1.681-.982-3.2-2.241-4.831-3.3a2.2,2.2,0,0,0-1.461-.3c-.2.026-.874.261-.444.538,3.646,2.366,7.316,5.881,12.047,4.932,1.206-.243,2.639-.89,2.945-2.21.193-.823-.5-1.572-1.079-2.042-2-1.617-5-2.182-7.486-2.429-1.9-.19-5.216-.377-6.506,1.415-.356.494,1.7.932,2.062.427Z" transform="translate(329.752 -159.68)" fill="#e5e5e5"/>
      <path id="Path_362" data-name="Path 362" d="M-292.914,165.648a24.283,24.283,0,0,1,4.11-6.361,5.291,5.291,0,0,1,2.8-1.241,5.962,5.962,0,0,1,1.628-.059,3.632,3.632,0,0,1,.432.077q.836.321-.434-.443a1.716,1.716,0,0,1,.319,1.076c.056,2.218-3.428,3.384-5.145,3.726-1.051.21-2.1.4-3.141.68-.745.2-1.973.473-2.32,1.266-.149.343,1.718,1.361,1.754,1.278.375-.859,1.756-1.116,2.555-1.328,1.244-.331,2.523-.51,3.776-.8,1.953-.458,5.776-2.747,3.68-5.065a5.518,5.518,0,0,0-6.681-1.12,7.811,7.811,0,0,0-2.832,3.049c-.835,1.278-1.548,2.636-2.252,3.99-.154.3,1.691,1.4,1.754,1.278Z" transform="translate(329.636 -155.975)" fill="#e5e5e5"/>
      <path id="Path_363" data-name="Path 363" d="M-310.7,168.4c-.569-.8-1.478-.569-2.161,0-1.478-2.048-2.046-.228-3.525,0-1.136.226-2.16-.8-3.3-1.024-1.7-.226-2.386,1.138-3.865,1.48-1.706.341-2.616-1.024-4.093-1.48a6.386,6.386,0,0,0-4.1.341c-.8.343-1.251,1.252-2.388,1.024-.8-.227-1.251-1.136-2.161-1.365-2.161-.568-2.616,1.024-4.094,1.365-1.592.341-2.275-1.478-3.639-1.933-.342.682-2.729,1.592-3.185.682a.375.375,0,0,1-.031-.227c.049-.05.1-.1.149-.148.32-.764,1.741-1.927,1.929-2.582.366-1.4-.357-2.447-.823-3.569l-.005-.009a3.647,3.647,0,0,1-.437-1.732,3.636,3.636,0,0,1,1.069-2.578,3.631,3.631,0,0,1,2.578-1.069H-315.7a3.647,3.647,0,0,1,3.647,3.648,3.653,3.653,0,0,1-.249,1.327v.006c-.182,1.306-.671,1.949-.671,3.522,0,1.378,1.417,2.516,2.011,3.475l0,0c.031.037.066.074.1.109A1.08,1.08,0,0,1-310.7,168.4Z" transform="translate(348.587 -155.571)" fill="#f75e8a"/>
      <path id="Rectangle_45" data-name="Rectangle 45" d="M.338,0H32.853a.339.339,0,0,1,.339.339V2.2a.339.339,0,0,1-.339.339H.339A.339.339,0,0,1,0,2.2V.338A.338.338,0,0,1,.338,0Z" transform="translate(3.023 6.959)" fill="#f2f2f2"/>
      <path id="Rectangle_46" data-name="Rectangle 46" d="M.338,0H32a.338.338,0,0,1,.338.338V20.171a.34.34,0,0,1-.34.34H.34a.34.34,0,0,1-.34-.34V.338A.338.338,0,0,1,.338,0Z" transform="translate(3.453 21.55)" fill="#e5e5e5"/>
      <g id="Group_685" data-name="Group 685" transform="translate(11.801 31.06)">
        <path id="Path_364" data-name="Path 364" d="M-328.71,210.935a3.261,3.261,0,0,1-.091.853,1.481,1.481,0,0,1-.272.549,1.162,1.162,0,0,1-.46.336,1.7,1.7,0,0,1-.648.113,1.905,1.905,0,0,1-.351-.028.958.958,0,0,1-.21-.058.2.2,0,0,1-.09-.075.28.28,0,0,1-.035-.1c-.008-.038-.012-.082-.017-.13s0-.112,0-.189c0-.093,0-.171.006-.233a.693.693,0,0,1,.029-.148.233.233,0,0,1,.045-.08.089.089,0,0,1,.065-.025.728.728,0,0,1,.1.013,1.056,1.056,0,0,0,.168.012.562.562,0,0,0,.225-.04.338.338,0,0,0,.156-.127.645.645,0,0,0,.091-.227,2.363,2.363,0,0,0,.029-.438v-4.591a.145.145,0,0,1,.031-.088.262.262,0,0,1,.1-.065.839.839,0,0,1,.191-.043,2.531,2.531,0,0,1,.306-.015,2.531,2.531,0,0,1,.306.015.85.85,0,0,1,.193.043.253.253,0,0,1,.1.065.141.141,0,0,1,.031.088Zm.093-6.142a.72.72,0,0,1-.152.527.857.857,0,0,1-.579.146.859.859,0,0,1-.572-.141.679.679,0,0,1-.152-.507.714.714,0,0,1,.157-.529.841.841,0,0,1,.576-.148.843.843,0,0,1,.575.143A.7.7,0,0,1-328.617,204.793Z" transform="translate(330.889 -204.141)" fill="#ff4000"/>
        <path id="Path_365" data-name="Path 365" d="M-321.849,211.86a.133.133,0,0,1-.049.111.353.353,0,0,1-.159.058,2.17,2.17,0,0,1-.318.017,2.212,2.212,0,0,1-.328-.017.3.3,0,0,1-.146-.058.143.143,0,0,1-.043-.111V211.5a2.034,2.034,0,0,1-.629.462,1.84,1.84,0,0,1-.785.165,2.208,2.208,0,0,1-.655-.092,1.483,1.483,0,0,1-.517-.276,1.252,1.252,0,0,1-.339-.454,1.552,1.552,0,0,1-.119-.632,1.437,1.437,0,0,1,.152-.68,1.258,1.258,0,0,1,.457-.476,2.263,2.263,0,0,1,.755-.278,5.4,5.4,0,0,1,1.047-.091h.438v-.271a1.41,1.41,0,0,0-.043-.369.6.6,0,0,0-.14-.263.583.583,0,0,0-.262-.155,1.389,1.389,0,0,0-.4-.05,2.085,2.085,0,0,0-.565.07,3.087,3.087,0,0,0-.439.155c-.128.058-.232.109-.318.156a.465.465,0,0,1-.208.07.148.148,0,0,1-.1-.035.267.267,0,0,1-.071-.1.716.716,0,0,1-.042-.161,1.188,1.188,0,0,1-.015-.21.924.924,0,0,1,.026-.246.367.367,0,0,1,.094-.163.944.944,0,0,1,.246-.161,2.811,2.811,0,0,1,.411-.162,3.8,3.8,0,0,1,.515-.123,3.4,3.4,0,0,1,.575-.048,3.46,3.46,0,0,1,.9.1,1.517,1.517,0,0,1,.615.317,1.224,1.224,0,0,1,.35.549,2.568,2.568,0,0,1,.109.8Zm-1.238-1.917h-.482a2.591,2.591,0,0,0-.522.045,1.012,1.012,0,0,0-.351.135.557.557,0,0,0-.2.219.649.649,0,0,0-.064.294.559.559,0,0,0,.18.441.707.707,0,0,0,.494.161.92.92,0,0,0,.488-.135,2.043,2.043,0,0,0,.455-.4Z" transform="translate(329.103 -205.202)" fill="#ff4000"/>
        <path id="Path_366" data-name="Path 366" d="M-310.454,211.845a.134.134,0,0,1-.03.087.212.212,0,0,1-.1.063.827.827,0,0,1-.191.037,3.055,3.055,0,0,1-.308.013c-.125,0-.23,0-.311-.013a.877.877,0,0,1-.193-.037.2.2,0,0,1-.1-.063.149.149,0,0,1-.028-.087v-2.654a1.818,1.818,0,0,0-.042-.412.973.973,0,0,0-.129-.318.633.633,0,0,0-.222-.207.662.662,0,0,0-.319-.072.75.75,0,0,0-.456.175,3.088,3.088,0,0,0-.5.512v2.976a.129.129,0,0,1-.031.087.21.21,0,0,1-.1.063.884.884,0,0,1-.193.037,2.991,2.991,0,0,1-.3.013,3.051,3.051,0,0,1-.3-.013.89.89,0,0,1-.194-.037.211.211,0,0,1-.1-.063.125.125,0,0,1-.03-.087v-2.654a1.748,1.748,0,0,0-.043-.412,1.015,1.015,0,0,0-.127-.318.6.6,0,0,0-.221-.207.666.666,0,0,0-.315-.072.761.761,0,0,0-.462.175,2.942,2.942,0,0,0-.5.512v2.976a.134.134,0,0,1-.029.087.227.227,0,0,1-.1.063.883.883,0,0,1-.194.037c-.081.008-.182.013-.306.013s-.226,0-.306-.013a.868.868,0,0,1-.193-.037.208.208,0,0,1-.1-.063.125.125,0,0,1-.031-.087v-4.476a.162.162,0,0,1,.024-.088.2.2,0,0,1,.091-.063.765.765,0,0,1,.169-.038,2.209,2.209,0,0,1,.258-.012,2.357,2.357,0,0,1,.267.012.636.636,0,0,1,.162.038.184.184,0,0,1,.082.063.157.157,0,0,1,.026.088v.517a2.93,2.93,0,0,1,.739-.6,1.6,1.6,0,0,1,.77-.2,2,2,0,0,1,.5.058,1.433,1.433,0,0,1,.394.166,1.269,1.269,0,0,1,.3.258,1.489,1.489,0,0,1,.21.337,3.876,3.876,0,0,1,.4-.372,2.3,2.3,0,0,1,.381-.253,1.783,1.783,0,0,1,.375-.145,1.558,1.558,0,0,1,.384-.048,1.7,1.7,0,0,1,.754.151,1.336,1.336,0,0,1,.494.409,1.658,1.658,0,0,1,.267.6,3.222,3.222,0,0,1,.081.733Z" transform="translate(326.088 -205.202)" fill="#ff4000"/>
      </g>
      <g id="Group_711" data-name="Group 711" transform="translate(14.776 22.014)">
        <path id="Path_367" data-name="Path 367" d="M-321.631,192.888a7.245,7.245,0,0,0-3.2,0,2.441,2.441,0,0,0-1.378,2.513c.376,1.5,1.515,2.5,2.58,3.562a2.135,2.135,0,0,0,2.19.576,3.355,3.355,0,0,1,1.065-.086c.4.086.577.2,1.009,0a4.66,4.66,0,0,0,2.3-2.449,5.967,5.967,0,0,0,.461-2.737,2.2,2.2,0,0,0-1.785-1.785,6.192,6.192,0,0,0-3.249.408Z" transform="translate(326.238 -190.862)" fill="#ff4000"/>
        <path id="Path_368" data-name="Path 368" d="M-318.847,192.908a.737.737,0,0,1-.729.017c-.2-.136-.24-.223-.436-.359-.128-.094-.18-.094-.359.077a1.689,1.689,0,0,1-.421.326.938.938,0,0,1-.941-.044c.479.018,1-.514.934-.788a2.914,2.914,0,0,0-.609-.265,1.867,1.867,0,0,1-.737-.686c.446.265,1.389.771,1.68.343a2.662,2.662,0,0,0,.137-.736,5.024,5.024,0,0,0,0-.8,2.332,2.332,0,0,1,.291.642,4.937,4.937,0,0,0,.247.78,2.03,2.03,0,0,0,.875-1.414c.026.625-.06,1.79-.71,2.132C-319.292,192.634-319.224,192.882-318.847,192.908Z" transform="translate(324.762 -189.996)" fill="#1a9539"/>
        <g id="Group_686" data-name="Group 686" transform="translate(0.605 4.141)" opacity="0.67">
          <path id="Path_369" data-name="Path 369" d="M-325.238,196.914a2.857,2.857,0,0,0,.478.58c.294.255.723-.171.428-.428a2.241,2.241,0,0,1-.384-.457c-.217-.323-.742-.02-.523.3Z" transform="translate(325.291 -196.471)" fill="#f2f2a0"/>
        </g>
        <g id="Group_687" data-name="Group 687" transform="translate(1.949 3.893)" opacity="0.67">
          <path id="Path_370" data-name="Path 370" d="M-323.156,196.544a2.77,2.77,0,0,0,.2.374.308.308,0,0,0,.415.109.3.3,0,0,0,.108-.413,2.93,2.93,0,0,1-.2-.374c-.171-.351-.693-.044-.522.3Z" transform="translate(323.19 -196.084)" fill="#f2f2a0"/>
        </g>
        <g id="Group_688" data-name="Group 688" transform="translate(3.301 3.871)" opacity="0.67">
          <path id="Path_371" data-name="Path 371" d="M-321.039,196.5c.052.122.119.237.171.359a.31.31,0,0,0,.372.212.3.3,0,0,0,.211-.372c-.07-.171-.159-.334-.231-.5a.3.3,0,0,0-.413-.109.309.309,0,0,0-.109.414Z" transform="translate(321.075 -196.049)" fill="#f2f2a0"/>
        </g>
        <g id="Group_689" data-name="Group 689" transform="translate(4.557 3.824)" opacity="0.67">
          <path id="Path_372" data-name="Path 372" d="M-319.095,196.345c.029.087.058.174.087.26.122.368.707.21.583-.161-.029-.086-.058-.173-.086-.26-.121-.368-.707-.211-.583.161Z" transform="translate(319.112 -195.975)" fill="#f2f2a0"/>
        </g>
        <g id="Group_690" data-name="Group 690" transform="translate(5.946 3.619)" opacity="0.67">
          <path id="Path_373" data-name="Path 373" d="M-316.91,195.949a.909.909,0,0,1-.018.236.3.3,0,0,0,.582.161,1.458,1.458,0,0,0,.04-.4.3.3,0,0,0-.6,0Z" transform="translate(316.939 -195.656)" fill="#f2f2a0"/>
        </g>
        <g id="Group_691" data-name="Group 691" transform="translate(7.493 3.581)" opacity="0.67">
          <path id="Path_374" data-name="Path 374" d="M-314.414,195.818c-.028.077-.06.153-.088.23-.13.369.454.525.585.161.027-.077.058-.152.086-.23a.3.3,0,0,0-.211-.372.307.307,0,0,0-.372.211Z" transform="translate(314.52 -195.596)" fill="#f2f2a0"/>
        </g>
        <g id="Group_692" data-name="Group 692" transform="translate(8.749 3.909)" opacity="0.67">
          <path id="Path_375" data-name="Path 375" d="M-312.479,196.4c.013-.025.016-.028,0-.012-.262.29.166.719.427.428a.633.633,0,0,0,.174-.416c.029-.389-.577-.387-.6,0Z" transform="translate(312.557 -196.109)" fill="#f2f2a0"/>
        </g>
        <g id="Group_693" data-name="Group 693" transform="translate(1.803 5.368)" opacity="0.67">
          <path id="Path_376" data-name="Path 376" d="M-323.413,198.772a.88.88,0,0,0,.088.246c.169.352.691.044.523-.305a.2.2,0,0,1-.026-.1.3.3,0,0,0-.373-.212.311.311,0,0,0-.211.372Z" transform="translate(323.417 -198.39)" fill="#f2f2a0"/>
        </g>
        <g id="Group_694" data-name="Group 694" transform="translate(2.92 5.234)" opacity="0.67">
          <path id="Path_377" data-name="Path 377" d="M-321.671,198.472a.9.9,0,0,0,.157.441c.212.324.739.022.524-.306a.333.333,0,0,1-.075-.136c-.031-.386-.638-.389-.606,0Z" transform="translate(321.672 -198.181)" fill="#f2f2a0"/>
        </g>
        <g id="Group_695" data-name="Group 695" transform="translate(4.328 5.08)" opacity="0.67">
          <path id="Path_378" data-name="Path 378" d="M-319.454,198.16a.581.581,0,0,0,.164.584.309.309,0,0,0,.427,0,.3.3,0,0,0,0-.428c-.081-.067-.015.042-.009.006a.308.308,0,0,0-.212-.373.305.305,0,0,0-.371.211Z" transform="translate(319.47 -197.939)" fill="#f2f2a0"/>
        </g>
        <g id="Group_696" data-name="Group 696" transform="translate(5.317 5.043)" opacity="0.67">
          <path id="Path_379" data-name="Path 379" d="M-317.84,198.406c.013.014.026.029.04.043-.027-.045-.051-.088-.077-.133a.39.39,0,0,0,.017.042.309.309,0,0,0,.372.212.3.3,0,0,0,.21-.373.655.655,0,0,0-.135-.219c-.265-.288-.692.141-.428.428Z" transform="translate(317.922 -197.882)" fill="#f2f2a0"/>
        </g>
        <g id="Group_697" data-name="Group 697" transform="translate(6.695 4.907)" opacity="0.67">
          <path id="Path_380" data-name="Path 380" d="M-315.728,197.89a3,3,0,0,0-.04.513.3.3,0,0,0,.6,0,2.159,2.159,0,0,1,.017-.352.308.308,0,0,0-.21-.372.3.3,0,0,0-.372.211Z" transform="translate(315.768 -197.669)" fill="#f2f2a0"/>
        </g>
        <g id="Group_698" data-name="Group 698" transform="translate(7.472 5.199)" opacity="0.67">
          <path id="Path_381" data-name="Path 381" d="M-313.94,198.162a3.335,3.335,0,0,0-.524.336.3.3,0,0,0,0,.428.31.31,0,0,0,.427,0,2.505,2.505,0,0,1,.4-.242c.349-.176.042-.7-.3-.522Z" transform="translate(314.552 -198.126)" fill="#f2f2a0"/>
        </g>
        <g id="Group_699" data-name="Group 699" transform="translate(2.253 6.295)" opacity="0.67">
          <path id="Path_382" data-name="Path 382" d="M-322.669,200.288c.054.086.094.176.146.26.2.333.726.029.522-.305-.052-.085-.093-.175-.143-.259-.2-.333-.726-.029-.524.3Z" transform="translate(322.714 -199.84)" fill="#f2f2a0"/>
        </g>
        <g id="Group_700" data-name="Group 700" transform="translate(3.298 6.461)" opacity="0.67">
          <path id="Path_383" data-name="Path 383" d="M-320.994,200.617c.029.037.056.077.086.115a.307.307,0,0,0,.43,0,.315.315,0,0,0,0-.428c-.031-.037-.059-.077-.088-.115a.3.3,0,0,0-.428,0,.308.308,0,0,0,0,.428Z" transform="translate(321.081 -200.1)" fill="#f2f2a0"/>
        </g>
        <g id="Group_701" data-name="Group 701" transform="translate(4.586 6.33)" opacity="0.67">
          <path id="Path_384" data-name="Path 384" d="M-319.049,200.266l.086.258c.123.368.707.211.584-.16l-.088-.26c-.121-.369-.705-.21-.582.161Z" transform="translate(319.066 -199.895)" fill="#f2f2a0"/>
        </g>
        <g id="Group_702" data-name="Group 702" transform="translate(6.032 6.183)" opacity="0.67">
          <path id="Path_385" data-name="Path 385" d="M-316.8,199.958a2.148,2.148,0,0,0,.04.425c.079.382.663.221.583-.16a1.316,1.316,0,0,1-.017-.265.3.3,0,0,0-.606,0Z" transform="translate(316.805 -199.665)" fill="#f2f2a0"/>
        </g>
        <g id="Group_703" data-name="Group 703" transform="translate(6.854 6.43)" opacity="0.67">
          <path id="Path_386" data-name="Path 386" d="M-315.378,200.2c-.03.04-.033.052-.005.036-.318.22-.018.745.3.522a.652.652,0,0,0,.224-.253c.178-.346-.344-.652-.523-.305Z" transform="translate(315.519 -200.051)" fill="#f2f2a0"/>
        </g>
        <g id="Group_704" data-name="Group 704" transform="translate(3.317 7.564)" opacity="0.67">
          <path id="Path_387" data-name="Path 387" d="M-320.954,202.333a1.13,1.13,0,0,0,.365.222.3.3,0,0,0,.37-.212.308.308,0,0,0-.21-.372.341.341,0,0,1-.1-.066c-.287-.261-.718.165-.428.428Z" transform="translate(321.05 -201.824)" fill="#f2f2a0"/>
        </g>
        <g id="Group_705" data-name="Group 705" transform="translate(4.247 7.44)" opacity="0.67">
          <path id="Path_388" data-name="Path 388" d="M-319.509,202.148a.593.593,0,0,1,.1.111c.205.332.728.028.523-.306a1.313,1.313,0,0,0-.192-.233.3.3,0,0,0-.428.427Z" transform="translate(319.597 -201.631)" fill="#f2f2a0"/>
        </g>
        <g id="Group_706" data-name="Group 706" transform="translate(5.543 7.48)" opacity="0.67">
          <path id="Path_389" data-name="Path 389" d="M-317.541,201.986c0-.013.008-.026.012-.038-.189.341.333.647.524.306a.547.547,0,0,0,.067-.268c.013-.391-.592-.389-.6,0Z" transform="translate(317.57 -201.693)" fill="#f2f2a0"/>
        </g>
        <g id="Group_707" data-name="Group 707" transform="translate(6.32 7.7)" opacity="0.67">
          <path id="Path_390" data-name="Path 390" d="M-316.208,202.126l-.057.058a.3.3,0,0,0,.427.428c.019-.019.039-.038.058-.058a.3.3,0,0,0-.428-.427Z" transform="translate(316.355 -202.037)" fill="#f2f2a0"/>
        </g>
        <g id="Group_708" data-name="Group 708" transform="translate(1.163 2.824)" opacity="0.67">
          <path id="Path_391" data-name="Path 391" d="M-324.185,194.507a.834.834,0,0,0-.233.532c-.027.389.579.388.606,0a.176.176,0,0,1,.055-.1c.262-.288-.164-.716-.427-.428Z" transform="translate(324.419 -194.412)" fill="#f2f2a0"/>
        </g>
        <g id="Group_709" data-name="Group 709" transform="translate(6.725 2.554)" opacity="0.67">
          <path id="Path_392" data-name="Path 392" d="M-315.721,194.282c0,.116.024.23.028.346.014.389.619.39.6,0-.005-.116-.024-.23-.028-.346-.015-.389-.62-.39-.6,0Z" transform="translate(315.721 -193.99)" fill="#f2f2a0"/>
        </g>
        <g id="Group_710" data-name="Group 710" transform="translate(7.916 2.476)" opacity="0.67">
          <path id="Path_393" data-name="Path 393" d="M-313.721,194.442a.563.563,0,0,1,.209.265.3.3,0,0,0,.414.108.308.308,0,0,0,.107-.414,1.12,1.12,0,0,0-.425-.483c-.327-.214-.629.31-.306.524Z" transform="translate(313.859 -193.868)" fill="#f2f2a0"/>
        </g>
      </g>
    </g>
    <g id="Group_10195" data-name="Group 10195" transform="translate(1526.063 3509)" opacity="0.133" style="isolation: isolate">
      <rect id="Rectangle_33" data-name="Rectangle 33" width="30.566" height="55.831" transform="translate(0 24.828)" fill="#fff"/>
      <rect id="Rectangle_34" data-name="Rectangle 34" width="12.912" height="55.831" transform="translate(30.567 24.828)" fill="#e5e5e5"/>
      <path id="Path_339" data-name="Path 339" d="M124.883,219.389l-6.448-1.682v-16.63Z" transform="translate(-81.405 -194.562)" fill="#e5e5e5"/>
      <path id="Path_340" data-name="Path 340" d="M116.474,201.077v16.63l-6.464,1.682,5.271-14.913Z" transform="translate(-79.444 -194.562)" fill="#ccc"/>
      <path id="Path_341" data-name="Path 341" d="M122.922,224.435H110.011l6.464-1.682Z" transform="translate(-79.444 -199.607)" fill="#f2f2f2"/>
      <path id="Path_342" data-name="Path 342" d="M107.2,200.395v.524l-1.193,3.4-5.271,14.913H70.17l6.446-18.312v-.524Z" transform="translate(-70.17 -194.403)" fill="#f2f2f2"/>
      <path id="Path_343" data-name="Path 343" d="M109.157,194.267V199.1H78.573v-4.833a1.689,1.689,0,0,1,1.683-1.682h27.217A1.689,1.689,0,0,1,109.157,194.267Z" transform="translate(-72.126 -192.585)" fill="#fff"/>
      <path id="Path_344" data-name="Path 344" d="M100.737,273.1v18.884H70.17v-5.1c4.326,2.372,9.611,2.793,13.45-1.045,2.675-2.676,3.937-5.757,7.153-8.146A24.043,24.043,0,0,1,100.737,273.1Z" transform="translate(-70.17 -211.328)" fill="#83d0e3"/>
      <path id="Path_345" data-name="Path 345" d="M100.737,269.758v2.559a24.042,24.042,0,0,0-9.964,4.6c-3.216,2.388-4.478,5.47-7.153,8.146-3.839,3.838-9.124,3.417-13.45,1.045v-8.367a3.3,3.3,0,0,0,2.659.59c3.367-.707,7.575-3.1,10.791-4.359,2.81-1.112,5.621-2.526,8.416-3.368A26.5,26.5,0,0,1,100.737,269.758Z" transform="translate(-70.17 -210.543)" fill="#b0e2ed"/>
      <path id="Path_346" data-name="Path 346" d="M100.737,266.76v2.256a26.5,26.5,0,0,0-8.7.842c-2.795.842-5.605,2.256-8.416,3.368-3.216,1.261-7.424,3.652-10.791,4.359a3.3,3.3,0,0,1-2.659-.59V266.542a17.141,17.141,0,0,0,3.5,2.474c2.375,1.127,4.057.152,6.447-.269A80.21,80.21,0,0,1,100.737,266.76Z" transform="translate(-70.17 -209.801)" fill="#d9f1f6"/>
      <rect id="Rectangle_35" data-name="Rectangle 35" width="8.697" height="27.493" transform="translate(33.102 27.353)" fill="#a2cfda"/>
      <rect id="Rectangle_36" data-name="Rectangle 36" width="0.82" height="9.399" transform="translate(33.358 68.28)" fill="#6a878e"/>
      <rect id="Rectangle_37" data-name="Rectangle 37" width="1.128" height="8.356" transform="translate(34.589 68.28)" fill="#6a878e"/>
      <rect id="Rectangle_38" data-name="Rectangle 38" width="0.551" height="8.356" transform="translate(36.231 68.28)" fill="#6a878e"/>
      <rect id="Rectangle_39" data-name="Rectangle 39" width="0.819" height="8.356" transform="translate(37.272 68.28)" fill="#6a878e"/>
      <rect id="Rectangle_40" data-name="Rectangle 40" width="0.414" height="8.356" transform="translate(38.502 68.28)" fill="#6a878e"/>
      <rect id="Rectangle_41" data-name="Rectangle 41" width="0.411" height="8.356" transform="translate(39.232 68.28)" fill="#6a878e"/>
      <rect id="Rectangle_42" data-name="Rectangle 42" width="0.593" height="8.356" transform="translate(39.898 68.28)" fill="#6a878e"/>
      <rect id="Rectangle_43" data-name="Rectangle 43" width="0.817" height="9.399" transform="translate(40.669 68.28)" fill="#6a878e"/>
      <g id="Group_682" data-name="Group 682" transform="translate(2.93 35.607)">
        <path id="Path_347" data-name="Path 347" d="M84,249.455a.181.181,0,0,1-.043.122.314.314,0,0,1-.14.09,1.194,1.194,0,0,1-.268.052,4.216,4.216,0,0,1-.432.017,4.31,4.31,0,0,1-.437-.017,1.276,1.276,0,0,1-.27-.052.294.294,0,0,1-.143-.09.194.194,0,0,1-.038-.122v-3.734a2.576,2.576,0,0,0-.06-.58,1.372,1.372,0,0,0-.186-.449.866.866,0,0,0-.309-.288.925.925,0,0,0-.448-.1,1.061,1.061,0,0,0-.641.246,4.336,4.336,0,0,0-.707.721v4.185a.188.188,0,0,1-.041.122.345.345,0,0,1-.143.09,1.317,1.317,0,0,1-.275.052,4.074,4.074,0,0,1-.422.017,4.235,4.235,0,0,1-.432-.017,1.293,1.293,0,0,1-.272-.052.332.332,0,0,1-.145-.09.192.192,0,0,1-.041-.122v-3.734a2.666,2.666,0,0,0-.061-.58,1.435,1.435,0,0,0-.18-.449.862.862,0,0,0-.31-.288.944.944,0,0,0-.447-.1,1.076,1.076,0,0,0-.648.246,4.127,4.127,0,0,0-.7.721v4.185a.192.192,0,0,1-.041.122.342.342,0,0,1-.147.09,1.268,1.268,0,0,1-.269.052,4.235,4.235,0,0,1-.432.017,4.1,4.1,0,0,1-.429-.017,1.261,1.261,0,0,1-.273-.052.323.323,0,0,1-.145-.09.2.2,0,0,1-.041-.122v-6.3a.212.212,0,0,1,.035-.124.239.239,0,0,1,.127-.089,1.121,1.121,0,0,1,.237-.053,3.087,3.087,0,0,1,.363-.018,3.351,3.351,0,0,1,.375.018.943.943,0,0,1,.229.053.26.26,0,0,1,.116.089.219.219,0,0,1,.035.124v.727a4.137,4.137,0,0,1,1.04-.849,2.268,2.268,0,0,1,1.085-.282,2.766,2.766,0,0,1,.7.082,1.932,1.932,0,0,1,.555.233,1.744,1.744,0,0,1,.42.364,2.179,2.179,0,0,1,.3.473,5.108,5.108,0,0,1,.552-.522,3.387,3.387,0,0,1,.537-.358,2.448,2.448,0,0,1,.529-.2,2.158,2.158,0,0,1,.54-.068,2.406,2.406,0,0,1,1.059.211,1.876,1.876,0,0,1,.694.576,2.3,2.3,0,0,1,.379.852,4.579,4.579,0,0,1,.111,1.03Z" transform="translate(-73.989 -239.87)" fill="#83d0e3"/>
        <path id="Path_348" data-name="Path 348" d="M91.186,240.225a1,1,0,0,1-.22.742,1.739,1.739,0,0,1-1.62.008.961.961,0,0,1-.209-.713,1.02,1.02,0,0,1,.216-.745,1.7,1.7,0,0,1,1.62-.007A.959.959,0,0,1,91.186,240.225Zm-.135,8.428a.182.182,0,0,1-.044.122.307.307,0,0,1-.144.09,1.265,1.265,0,0,1-.271.052,4.222,4.222,0,0,1-.43.017,4.17,4.17,0,0,1-.431-.017,1.329,1.329,0,0,1-.274-.052.319.319,0,0,1-.142-.09.181.181,0,0,1-.043-.122v-6.281a.183.183,0,0,1,.043-.124.326.326,0,0,1,.142-.091,1.178,1.178,0,0,1,.274-.061,3.472,3.472,0,0,1,.431-.021,3.518,3.518,0,0,1,.43.021,1.121,1.121,0,0,1,.271.061.313.313,0,0,1,.144.091.184.184,0,0,1,.044.124Z" transform="translate(-77.515 -239.068)" fill="#83d0e3"/>
        <path id="Path_349" data-name="Path 349" d="M95.719,248.58a.186.186,0,0,1-.044.122.3.3,0,0,1-.144.09,1.274,1.274,0,0,1-.271.052,4.16,4.16,0,0,1-.429.017,4.222,4.222,0,0,1-.433-.017,1.247,1.247,0,0,1-.269-.052.3.3,0,0,1-.145-.09.185.185,0,0,1-.043-.122V239.3a.2.2,0,0,1,.043-.127.3.3,0,0,1,.145-.1,1.184,1.184,0,0,1,.269-.061,3.729,3.729,0,0,1,.433-.02,3.675,3.675,0,0,1,.429.02,1.21,1.21,0,0,1,.271.061.3.3,0,0,1,.144.1.2.2,0,0,1,.044.127Z" transform="translate(-78.633 -238.995)" fill="#83d0e3"/>
        <path id="Path_350" data-name="Path 350" d="M104.416,248.587a.2.2,0,0,1-.038.124.282.282,0,0,1-.141.083,1.3,1.3,0,0,1-.279.051c-.117.012-.269.017-.46.017s-.347,0-.466-.013a1.587,1.587,0,0,1-.3-.047.415.415,0,0,1-.179-.089.489.489,0,0,1-.115-.148l-2.1-3.315v3.331a.185.185,0,0,1-.042.122.33.33,0,0,1-.143.09,1.289,1.289,0,0,1-.273.052,5.507,5.507,0,0,1-.862,0,1.254,1.254,0,0,1-.271-.052.319.319,0,0,1-.145-.09.194.194,0,0,1-.043-.122V239.3a.212.212,0,0,1,.043-.127.315.315,0,0,1,.145-.1,1.19,1.19,0,0,1,.271-.061,4.666,4.666,0,0,1,.862,0,1.224,1.224,0,0,1,.273.061.327.327,0,0,1,.143.1.2.2,0,0,1,.042.127v5.526l1.864-2.507a.668.668,0,0,1,.127-.147.458.458,0,0,1,.186-.1,1.668,1.668,0,0,1,.29-.053c.115-.012.261-.018.44-.018s.321.007.44.018a1.586,1.586,0,0,1,.291.053.305.305,0,0,1,.152.089.206.206,0,0,1,.041.13.611.611,0,0,1-.053.226,1.146,1.146,0,0,1-.159.252l-1.843,2.09,2.132,3.3a1.646,1.646,0,0,1,.124.242A.518.518,0,0,1,104.416,248.587Z" transform="translate(-79.71 -238.995)" fill="#83d0e3"/>
      </g>
    </g>
    <g id="Group_10204" data-name="Group 10204" transform="translate(196.063 3650)" opacity="0.133" style="isolation: isolate">
      <rect id="Rectangle_33-2" data-name="Rectangle 33" width="30.566" height="55.831" transform="translate(0 24.828)" fill="#fff"/>
      <rect id="Rectangle_34-2" data-name="Rectangle 34" width="12.912" height="55.831" transform="translate(30.567 24.828)" fill="#e5e5e5"/>
      <path id="Path_339-2" data-name="Path 339" d="M124.883,219.389l-6.448-1.682v-16.63Z" transform="translate(-81.405 -194.562)" fill="#e5e5e5"/>
      <path id="Path_340-2" data-name="Path 340" d="M116.474,201.077v16.63l-6.464,1.682,5.271-14.913Z" transform="translate(-79.444 -194.562)" fill="#ccc"/>
      <path id="Path_341-2" data-name="Path 341" d="M122.922,224.435H110.011l6.464-1.682Z" transform="translate(-79.444 -199.607)" fill="#f2f2f2"/>
      <path id="Path_342-2" data-name="Path 342" d="M107.2,200.395v.524l-1.193,3.4-5.271,14.913H70.17l6.446-18.312v-.524Z" transform="translate(-70.17 -194.403)" fill="#f2f2f2"/>
      <path id="Path_343-2" data-name="Path 343" d="M109.157,194.267V199.1H78.573v-4.833a1.689,1.689,0,0,1,1.683-1.682h27.217A1.689,1.689,0,0,1,109.157,194.267Z" transform="translate(-72.126 -192.585)" fill="#fff"/>
      <path id="Path_344-2" data-name="Path 344" d="M100.737,273.1v18.884H70.17v-5.1c4.326,2.372,9.611,2.793,13.45-1.045,2.675-2.676,3.937-5.757,7.153-8.146A24.043,24.043,0,0,1,100.737,273.1Z" transform="translate(-70.17 -211.328)" fill="#83d0e3"/>
      <path id="Path_345-2" data-name="Path 345" d="M100.737,269.758v2.559a24.042,24.042,0,0,0-9.964,4.6c-3.216,2.388-4.478,5.47-7.153,8.146-3.839,3.838-9.124,3.417-13.45,1.045v-8.367a3.3,3.3,0,0,0,2.659.59c3.367-.707,7.575-3.1,10.791-4.359,2.81-1.112,5.621-2.526,8.416-3.368A26.5,26.5,0,0,1,100.737,269.758Z" transform="translate(-70.17 -210.543)" fill="#b0e2ed"/>
      <path id="Path_346-2" data-name="Path 346" d="M100.737,266.76v2.256a26.5,26.5,0,0,0-8.7.842c-2.795.842-5.605,2.256-8.416,3.368-3.216,1.261-7.424,3.652-10.791,4.359a3.3,3.3,0,0,1-2.659-.59V266.542a17.141,17.141,0,0,0,3.5,2.474c2.375,1.127,4.057.152,6.447-.269A80.21,80.21,0,0,1,100.737,266.76Z" transform="translate(-70.17 -209.801)" fill="#d9f1f6"/>
      <rect id="Rectangle_35-2" data-name="Rectangle 35" width="8.697" height="27.493" transform="translate(33.102 27.353)" fill="#a2cfda"/>
      <rect id="Rectangle_36-2" data-name="Rectangle 36" width="0.82" height="9.399" transform="translate(33.358 68.28)" fill="#6a878e"/>
      <rect id="Rectangle_37-2" data-name="Rectangle 37" width="1.128" height="8.356" transform="translate(34.589 68.28)" fill="#6a878e"/>
      <rect id="Rectangle_38-2" data-name="Rectangle 38" width="0.551" height="8.356" transform="translate(36.231 68.28)" fill="#6a878e"/>
      <rect id="Rectangle_39-2" data-name="Rectangle 39" width="0.819" height="8.356" transform="translate(37.272 68.28)" fill="#6a878e"/>
      <rect id="Rectangle_40-2" data-name="Rectangle 40" width="0.414" height="8.356" transform="translate(38.502 68.28)" fill="#6a878e"/>
      <rect id="Rectangle_41-2" data-name="Rectangle 41" width="0.411" height="8.356" transform="translate(39.232 68.28)" fill="#6a878e"/>
      <rect id="Rectangle_42-2" data-name="Rectangle 42" width="0.593" height="8.356" transform="translate(39.898 68.28)" fill="#6a878e"/>
      <rect id="Rectangle_43-2" data-name="Rectangle 43" width="0.817" height="9.399" transform="translate(40.669 68.28)" fill="#6a878e"/>
      <g id="Group_682-2" data-name="Group 682" transform="translate(2.93 35.607)">
        <path id="Path_347-2" data-name="Path 347" d="M84,249.455a.181.181,0,0,1-.043.122.314.314,0,0,1-.14.09,1.194,1.194,0,0,1-.268.052,4.216,4.216,0,0,1-.432.017,4.31,4.31,0,0,1-.437-.017,1.276,1.276,0,0,1-.27-.052.294.294,0,0,1-.143-.09.194.194,0,0,1-.038-.122v-3.734a2.576,2.576,0,0,0-.06-.58,1.372,1.372,0,0,0-.186-.449.866.866,0,0,0-.309-.288.925.925,0,0,0-.448-.1,1.061,1.061,0,0,0-.641.246,4.336,4.336,0,0,0-.707.721v4.185a.188.188,0,0,1-.041.122.345.345,0,0,1-.143.09,1.317,1.317,0,0,1-.275.052,4.074,4.074,0,0,1-.422.017,4.235,4.235,0,0,1-.432-.017,1.293,1.293,0,0,1-.272-.052.332.332,0,0,1-.145-.09.192.192,0,0,1-.041-.122v-3.734a2.666,2.666,0,0,0-.061-.58,1.435,1.435,0,0,0-.18-.449.862.862,0,0,0-.31-.288.944.944,0,0,0-.447-.1,1.076,1.076,0,0,0-.648.246,4.127,4.127,0,0,0-.7.721v4.185a.192.192,0,0,1-.041.122.342.342,0,0,1-.147.09,1.268,1.268,0,0,1-.269.052,4.235,4.235,0,0,1-.432.017,4.1,4.1,0,0,1-.429-.017,1.261,1.261,0,0,1-.273-.052.323.323,0,0,1-.145-.09.2.2,0,0,1-.041-.122v-6.3a.212.212,0,0,1,.035-.124.239.239,0,0,1,.127-.089,1.121,1.121,0,0,1,.237-.053,3.087,3.087,0,0,1,.363-.018,3.351,3.351,0,0,1,.375.018.943.943,0,0,1,.229.053.26.26,0,0,1,.116.089.219.219,0,0,1,.035.124v.727a4.137,4.137,0,0,1,1.04-.849,2.268,2.268,0,0,1,1.085-.282,2.766,2.766,0,0,1,.7.082,1.932,1.932,0,0,1,.555.233,1.744,1.744,0,0,1,.42.364,2.179,2.179,0,0,1,.3.473,5.108,5.108,0,0,1,.552-.522,3.387,3.387,0,0,1,.537-.358,2.448,2.448,0,0,1,.529-.2,2.158,2.158,0,0,1,.54-.068,2.406,2.406,0,0,1,1.059.211,1.876,1.876,0,0,1,.694.576,2.3,2.3,0,0,1,.379.852,4.579,4.579,0,0,1,.111,1.03Z" transform="translate(-73.989 -239.87)" fill="#83d0e3"/>
        <path id="Path_348-2" data-name="Path 348" d="M91.186,240.225a1,1,0,0,1-.22.742,1.739,1.739,0,0,1-1.62.008.961.961,0,0,1-.209-.713,1.02,1.02,0,0,1,.216-.745,1.7,1.7,0,0,1,1.62-.007A.959.959,0,0,1,91.186,240.225Zm-.135,8.428a.182.182,0,0,1-.044.122.307.307,0,0,1-.144.09,1.265,1.265,0,0,1-.271.052,4.222,4.222,0,0,1-.43.017,4.17,4.17,0,0,1-.431-.017,1.329,1.329,0,0,1-.274-.052.319.319,0,0,1-.142-.09.181.181,0,0,1-.043-.122v-6.281a.183.183,0,0,1,.043-.124.326.326,0,0,1,.142-.091,1.178,1.178,0,0,1,.274-.061,3.472,3.472,0,0,1,.431-.021,3.518,3.518,0,0,1,.43.021,1.121,1.121,0,0,1,.271.061.313.313,0,0,1,.144.091.184.184,0,0,1,.044.124Z" transform="translate(-77.515 -239.068)" fill="#83d0e3"/>
        <path id="Path_349-2" data-name="Path 349" d="M95.719,248.58a.186.186,0,0,1-.044.122.3.3,0,0,1-.144.09,1.274,1.274,0,0,1-.271.052,4.16,4.16,0,0,1-.429.017,4.222,4.222,0,0,1-.433-.017,1.247,1.247,0,0,1-.269-.052.3.3,0,0,1-.145-.09.185.185,0,0,1-.043-.122V239.3a.2.2,0,0,1,.043-.127.3.3,0,0,1,.145-.1,1.184,1.184,0,0,1,.269-.061,3.729,3.729,0,0,1,.433-.02,3.675,3.675,0,0,1,.429.02,1.21,1.21,0,0,1,.271.061.3.3,0,0,1,.144.1.2.2,0,0,1,.044.127Z" transform="translate(-78.633 -238.995)" fill="#83d0e3"/>
        <path id="Path_350-2" data-name="Path 350" d="M104.416,248.587a.2.2,0,0,1-.038.124.282.282,0,0,1-.141.083,1.3,1.3,0,0,1-.279.051c-.117.012-.269.017-.46.017s-.347,0-.466-.013a1.587,1.587,0,0,1-.3-.047.415.415,0,0,1-.179-.089.489.489,0,0,1-.115-.148l-2.1-3.315v3.331a.185.185,0,0,1-.042.122.33.33,0,0,1-.143.09,1.289,1.289,0,0,1-.273.052,5.507,5.507,0,0,1-.862,0,1.254,1.254,0,0,1-.271-.052.319.319,0,0,1-.145-.09.194.194,0,0,1-.043-.122V239.3a.212.212,0,0,1,.043-.127.315.315,0,0,1,.145-.1,1.19,1.19,0,0,1,.271-.061,4.666,4.666,0,0,1,.862,0,1.224,1.224,0,0,1,.273.061.327.327,0,0,1,.143.1.2.2,0,0,1,.042.127v5.526l1.864-2.507a.668.668,0,0,1,.127-.147.458.458,0,0,1,.186-.1,1.668,1.668,0,0,1,.29-.053c.115-.012.261-.018.44-.018s.321.007.44.018a1.586,1.586,0,0,1,.291.053.305.305,0,0,1,.152.089.206.206,0,0,1,.041.13.611.611,0,0,1-.053.226,1.146,1.146,0,0,1-.159.252l-1.843,2.09,2.132,3.3a1.646,1.646,0,0,1,.124.242A.518.518,0,0,1,104.416,248.587Z" transform="translate(-79.71 -238.995)" fill="#83d0e3"/>
      </g>
    </g>
    <g id="Group_10198" data-name="Group 10198" transform="translate(1704.681 3646)" opacity="0.133" style="isolation: isolate">
      <path id="Path_399" data-name="Path 399" d="M94.324,249l-19.4-3.872h-.012l-9.95-1.973v-.013l-7.735-1.538-11.389-2.275-4.83-.957c13.629-10.846,31.205-10.446,31.205-10.446Z" transform="translate(-41.005 -227.925)" fill="#ffb815"/>
      <path id="Path_400" data-name="Path 400" d="M92.686,277.642c-1.258-1.583-1.452-4.542.627-5.595a1.486,1.486,0,0,1,.308-.119l.037-1.057.1-2.4.037-1a4.532,4.532,0,0,1-3.1-2.507c-1.263-2.693.642-5.047,3.363-5.463a.041.041,0,0,1,.013,0l.022-.658.231-6.3-19.4-3.872h-.012l-9.95-1.973v-.013l-7.735-1.538-11.389-2.275-4.83-.957.606,15.046.376,9.6.036.786,13.423,3.425.012.012,5.315,1.343,12.708,3.246v.011l9.938,2.53,9.9,2.529v-.025l.075-2.083A4.605,4.605,0,0,1,92.686,277.642Z" transform="translate(-41.005 -231.469)" fill="#fee16c"/>
      <path id="Path_401" data-name="Path 401" d="M65.371,278.1A2.6,2.6,0,0,1,65,279.273l-5.315-1.344-.012-.011a9.3,9.3,0,0,1-1.367-1.853,4.567,4.567,0,0,1,.144-4.827,2.455,2.455,0,0,1,3.3-.874,2.577,2.577,0,0,1,1.211,2.18A6.9,6.9,0,0,1,65.371,278.1Z" transform="translate(-45.229 -238.59)" fill="#db951d" opacity="0.19" style="mix-blend-mode: multiply;isolation: isolate"/>
      <path id="Path_402" data-name="Path 402" d="M83.021,255.881a2.439,2.439,0,0,1-3.8.485c-.037-.025-.327-.242-.327-.254-.157-.109-.314-.231-.484-.326-.362-.219-.738-.436-1.113-.655a15.693,15.693,0,0,1-2.433-1.623,5.069,5.069,0,0,1-1.828-5.155l9.95,1.973H83A6.431,6.431,0,0,1,83.021,255.881Z" transform="translate(-49.08 -233.099)" fill="#db951d" opacity="0.19" style="mix-blend-mode: multiply;isolation: isolate"/>
      <path id="Path_403" data-name="Path 403" d="M106.122,270.54c-1.263-2.693.642-5.047,3.363-5.463a.045.045,0,0,1,.014,0l.022-.636c-3.159-1.342-7.371.087-7.589,3.972a4.775,4.775,0,0,0,2.628,4.575,8.665,8.665,0,0,0,2.227.762c.314.06.641.108.968.158.146.025.267.035.412.048a7.716,7.716,0,0,0,.774.108,1.56,1.56,0,0,0,.242.013l.037-1.031A4.531,4.531,0,0,1,106.122,270.54Z" transform="translate(-56.434 -237.049)" fill="#db951d" opacity="0.19" style="mix-blend-mode: multiply;isolation: isolate"/>
      <path id="Path_404" data-name="Path 404" d="M75.38,268.453a2.47,2.47,0,0,1-2.422,2.422,2.426,2.426,0,0,1-2.42-2.422,3.079,3.079,0,0,0,.024-.663v-.013a2.323,2.323,0,0,0-.084-.3c-.012-.026-.037-.062-.061-.11a1.118,1.118,0,0,1-.1-.157c-.06-.073-.121-.134-.181-.206a.86.86,0,0,1-.134-.108c-.1-.063-.181-.122-.278-.183a2.419,2.419,0,1,1,2.445-4.175A6.292,6.292,0,0,1,75.38,268.453Z" transform="translate(-47.976 -236.606)" fill="#db951d" opacity="0.19" style="mix-blend-mode: multiply;isolation: isolate"/>
      <path id="Path_405" data-name="Path 405" d="M58.447,248.554a7.979,7.979,0,0,0,.4-3.05l-11.389-2.277a.076.076,0,0,0-.013.05,8.626,8.626,0,0,0,5.072,8.522,3.07,3.07,0,0,0,.679,1.659,2.988,2.988,0,0,0,4.586.229,5.278,5.278,0,0,0,.871-4.6A2.623,2.623,0,0,0,58.447,248.554Z" transform="translate(-42.626 -231.801)" fill="#db951d" opacity="0.19" style="mix-blend-mode: multiply;isolation: isolate"/>
      <path id="Path_406" data-name="Path 406" d="M94.152,286.49l-9.938-2.53v-.012a7.2,7.2,0,0,1-.677-4.732,4.228,4.228,0,0,1,3.958-3.537,8.032,8.032,0,0,1,5.059,2.142,2.331,2.331,0,0,1,.328,2.991A7.162,7.162,0,0,1,94.152,286.49Z" transform="translate(-51.739 -240.02)" fill="#db951d" opacity="0.19" style="mix-blend-mode: multiply;isolation: isolate"/>
      <path id="Path_407" data-name="Path 407" d="M44.685,272.2a4.416,4.416,0,0,1-2.493-.53l-.376-9.6a2.942,2.942,0,0,1,1.222-.037,7.432,7.432,0,0,1,5.2,4.551A4.2,4.2,0,0,1,44.685,272.2Z" transform="translate(-41.21 -236.552)" fill="#db951d" opacity="0.19" style="mix-blend-mode: multiply;isolation: isolate"/>
      <path id="Path_408" data-name="Path 408" d="M109.025,287.455c-1.258-1.583-1.452-4.542.627-5.595a1.538,1.538,0,0,1,.308-.119l.037-1.033a4.348,4.348,0,0,0-2.88.52,3.47,3.47,0,0,0-1.586,3.209,7.815,7.815,0,0,0,3.413,5.506,1.964,1.964,0,0,0,.714.315l.075-2.108A4.51,4.51,0,0,1,109.025,287.455Z" transform="translate(-57.344 -241.282)" fill="#db951d" opacity="0.19" style="mix-blend-mode: multiply;isolation: isolate"/>
      <path id="Path_409" data-name="Path 409" d="M95.758,261.575a2.975,2.975,0,0,1-.919,2.48,4.111,4.111,0,0,1-4.709.426,3.608,3.608,0,0,1-1.44-1.685,1.189,1.189,0,0,1-.267-.216,2.448,2.448,0,0,1,0-3.425,4.179,4.179,0,0,1,7.335,2.42Z" transform="translate(-52.837 -235.475)" fill="#db951d" opacity="0.19" style="mix-blend-mode: multiply;isolation: isolate"/>
      <path id="Path_410" data-name="Path 410" d="M84.488,256.154a2.36,2.36,0,0,1-3.257.859,2.247,2.247,0,0,1-.12-.9c.157-1.063.762-1.063,0-2.274-.848-1.259-3.062-2.6-2.252-4.359l5.592,1.116h.013A6.432,6.432,0,0,1,84.488,256.154Z" transform="translate(-50.548 -233.385)" fill="#efdde6" opacity="0.48" style="mix-blend-mode: multiply;isolation: isolate"/>
      <path id="Path_411" data-name="Path 411" d="M60.627,249.46a5.278,5.278,0,0,1-.871,4.6,2.864,2.864,0,0,1-3.413.689,4.181,4.181,0,0,1,.29-4.14c.678-1.063,1.44-1.6.908-2.88-.5-1.2-1.6-2.01-2.337-2.979l5.616,1.128a7.989,7.989,0,0,1-.4,3.05A2.582,2.582,0,0,1,60.627,249.46Z" transform="translate(-44.601 -232.186)" fill="#efdde6" opacity="0.48" style="mix-blend-mode: multiply;isolation: isolate"/>
      <path id="Path_412" data-name="Path 412" d="M95.418,286.455l-2.99-.76a10.584,10.584,0,0,1-.691-2.218c-.375-1.585-1.21-1.658-2.263-2.8-1.259-1.26-1.525-3.74-.266-4.988a8.4,8.4,0,0,1,4.611,2.119,2.325,2.325,0,0,1,.326,2.989A7.1,7.1,0,0,1,95.418,286.455Z" transform="translate(-53.005 -240.023)" fill="#efdde6" opacity="0.48" style="mix-blend-mode: multiply;isolation: isolate"/>
      <path id="Path_413" data-name="Path 413" d="M47.589,270.583a6.9,6.9,0,0,0-1.078-2.832,8.83,8.83,0,0,0-4.588-3l-.108-2.7a2.954,2.954,0,0,1,1.222-.037,7.435,7.435,0,0,1,5.2,4.551A3.988,3.988,0,0,1,47.589,270.583Z" transform="translate(-41.21 -236.547)" fill="#efdde6" opacity="0.48" style="mix-blend-mode: multiply;isolation: isolate"/>
      <path id="Path_414" data-name="Path 414" d="M96.791,262.567a2.982,2.982,0,0,1-.92,2.482,4.13,4.13,0,0,1-3.9.787,3.152,3.152,0,0,1,1.162-3.668,4.922,4.922,0,0,1,3.523-.265A2.981,2.981,0,0,1,96.791,262.567Z" transform="translate(-53.87 -236.482)" fill="#efdde6" opacity="0.48" style="mix-blend-mode: multiply;isolation: isolate"/>
      <path id="Path_415" data-name="Path 415" d="M76.7,268.984a2.781,2.781,0,0,1-.327,1.1c-1.09-1.089-2.289-2.337-2.566-3.619a1.679,1.679,0,0,1,1.258-2.118A5.969,5.969,0,0,1,76.7,268.984Z" transform="translate(-49.298 -237.15)" fill="#efdde6" opacity="0.48" style="mix-blend-mode: multiply;isolation: isolate"/>
      <path id="Path_416" data-name="Path 416" d="M65.961,278.083a.659.659,0,0,1-.025.146,6.848,6.848,0,0,1-3.171-1.031c-.606-.45-.606-.98-.981-1.5-.376-.6-.907-.918-1.283-1.44a3.9,3.9,0,0,1,.278-4.2,2.222,2.222,0,0,1,1.561.291,2.573,2.573,0,0,1,1.211,2.178A6.905,6.905,0,0,1,65.961,278.083Z" transform="translate(-45.819 -238.587)" fill="#efdde6" opacity="0.48" style="mix-blend-mode: multiply;isolation: isolate"/>
      <path id="Path_417" data-name="Path 417" d="M74.921,248.672h-.012l-9.95-1.973v-.013l-7.735-1.538-11.389-2.275-4.83-.957.606,15.046v.025l.108,2.686.268,6.91.036.763,1,.254L43,266.986l-.266-6.961-.122-3.1v-.012l-.52-13.594,3.7.738,7.1,1.428,4.321.86,7.591,1.524,4.369.873,6.2,1.234v.013l18.9,3.775.048-1.222Zm-17.7-3.5-5.6-1.113c0-.013,0-.013-.011-.023l5.615,1.125Zm17.7,3.523h-.012l-5.593-1.116v-.011l5.593,1.115h.012Z" transform="translate(-41.005 -231.469)" fill="#fff26d"/>
    </g>
    <g id="icons8-pills" transform="translate(1034.715 3645)" opacity="0.133" style="isolation: isolate">
      <path id="Path_418" data-name="Path 418" d="M14.97,20.374c5.345-5.347,11.9-11.906,12.651-12.649a12.7,12.7,0,0,1,17.96,17.96c-.739.746-7.519,7.522-12.649,12.651Z" transform="translate(-1.035 -3.999)" fill="#00bcd4"/>
      <path id="Path_419" data-name="Path 419" d="M37.7,33.432,25.685,45.445a12.7,12.7,0,0,1-17.96-17.96s6.3-6.3,12.017-12.015Z" transform="translate(-4 -0.9)" fill="#e91e63"/>
      <path id="Path_420" data-name="Path 420" d="M32.932,35.235l1.8-1.8L22.457,21.153l-1.8,1.8ZM19.467,18.163,16.774,15.47l-1.8,1.8,2.693,2.693C18.263,19.368,18.866,18.765,19.467,18.163Z" transform="translate(-1.035 -0.899)" fill="#00838f"/>
      <path id="Path_421" data-name="Path 421" d="M9.6,29.223a8.811,8.811,0,0,0,.911,13.354,8.258,8.258,0,0,1,1.443-9.729L22.806,22l-2.989-2.99C14.794,24.034,10.088,28.739,9.6,29.223Z" transform="translate(-3.189 0.057)" fill="#fce4ec"/>
      <path id="Path_422" data-name="Path 422" d="M42.712,10.516A8.8,8.8,0,0,0,29.358,9.6L18.51,20.452l2.99,2.99L32.983,11.959A8.256,8.256,0,0,1,42.712,10.516Z" transform="translate(-0.078 -3.189)" fill="#e0f7fa"/>
      <path id="Path_423" data-name="Path 423" d="M17.09,19.394l2.99,2.99,1.8-1.8-2.99-2.99C18.293,18.192,17.69,18.8,17.09,19.394Z" transform="translate(-0.462 -0.326)" fill="#80deea"/>
      <path id="Path_424" data-name="Path 424" d="M35.243,20A15.243,15.243,0,1,0,50.486,35.243,15.243,15.243,0,0,0,35.243,20Z" transform="translate(0.325 0.325)" fill="#b0bec5"/>
      <path id="Path_425" data-name="Path 425" d="M34.7,22a12.7,12.7,0,1,0,12.7,12.7A12.7,12.7,0,0,0,34.7,22Z" transform="translate(0.865 0.865)" fill="#cfd8dc"/>
      <path id="Path_426" data-name="Path 426" d="M43.235,25.283,25.286,43.232a10.165,10.165,0,0,1-1.143-1.308c-.165-.216-.33-.445-.483-.673L41.253,23.67a8,8,0,0,1,.673.47A10.164,10.164,0,0,1,43.235,25.283Z" transform="translate(1.314 1.317)" fill="#c0cbd1"/>
      <path id="Path_427" data-name="Path 427" d="M44.489,26.909,26.922,44.489a10.96,10.96,0,0,1-1.385-1.042c-.2-.178-.406-.368-.6-.559L42.889,24.94c.191.191.381.394.559.6A12.179,12.179,0,0,1,44.489,26.909Z" transform="translate(1.66 1.66)" fill="#eceff1"/>
    </g>
    <g id="Group_10201" data-name="Group 10201" transform="translate(820.871 3637)" opacity="0.133" style="isolation: isolate">
      <path id="Path_329" data-name="Path 329" d="M243.627,135.107c0,11.359-1.717,21.464-4.385,27.953H198.584c-2.677-6.488-4.394-16.593-4.394-27.953s1.717-21.464,4.394-27.953h40.658C241.91,113.643,243.627,123.756,243.627,135.107Z" transform="translate(-194.19 -102.303)" fill="#fee16c"/>
      <path id="Path_330" data-name="Path 330" d="M266.55,135.107c0,11.359-1.717,21.464-4.384,27.953-2.677-6.488-4.394-16.593-4.394-27.953s1.717-21.464,4.394-27.953C264.833,113.643,266.55,123.756,266.55,135.107Z" transform="translate(-217.112 -102.303)" fill="#999" opacity="0.36" style="mix-blend-mode: multiply;isolation: isolate"/>
      <path id="Path_331" data-name="Path 331" d="M241.719,99.723v4.7H201.061V99.568l1.7.8,1.453-.8,1.691.8,1.453-.8,1.7.8,1.453-.8,1.7.8,1.443-.8,1.7.8,1.453-.8,1.7.8,1.443-.8,1.7.8,1.453-.8,1.7.8,1.452-.8,1.7.8,1.445-.8,1.7.8,1.453-.8,1.7.8,1.443-.8,1.7.8,1.453-.8,1.7.8Z" transform="translate(-196.667 -99.568)" fill="#fff29f"/>
      <path id="Path_332" data-name="Path 332" d="M241.719,199.272v-4.7H201.061v4.852l1.7-.8,1.453.8,1.691-.8,1.453.8,1.7-.8,1.453.8,1.7-.8,1.443.8,1.7-.8,1.453.8,1.7-.8,1.443.8,1.7-.8,1.453.8,1.7-.8,1.452.8,1.7-.8,1.445.8,1.7-.8,1.453.8,1.7-.8,1.443.8,1.7-.8,1.453.8,1.7-.8Z" transform="translate(-196.667 -133.82)" fill="#e7cc62"/>
      <path id="Path_333" data-name="Path 333" d="M232.583,156.4a15.761,15.761,0,1,1-15.761-15.761A15.761,15.761,0,0,1,232.583,156.4Z" transform="translate(-196.667 -114.376)" fill="#fea621"/>
      <g id="Group_680" data-name="Group 680" transform="translate(4.678 34.828)">
        <path id="Path_334" data-name="Path 334" d="M208.1,174.312c.047.128.082.239.107.327a2.268,2.268,0,0,1,.051.23.733.733,0,0,1,.007.162.592.592,0,0,1-.063.184,1.764,1.764,0,0,1-.23.32,3.327,3.327,0,0,1-.412.4,4.082,4.082,0,0,1-.543.374,4.146,4.146,0,0,1-2.091.56,2.685,2.685,0,0,1-1.251-.341,3.273,3.273,0,0,1-1.021-.914,6.355,6.355,0,0,1-1.143-3.275,3.477,3.477,0,0,1,.258-1.457,2.949,2.949,0,0,1,.8-1.092,4,4,0,0,1,1.257-.72,3.557,3.557,0,0,1,.6-.161,3.651,3.651,0,0,1,.587-.054,3.223,3.223,0,0,1,.521.038,1.42,1.42,0,0,1,.349.093.831.831,0,0,1,.167.1.515.515,0,0,1,.1.126,2.225,2.225,0,0,1,.11.209c.04.084.082.188.127.313a1.821,1.821,0,0,1,.147.634c-.007.134-.051.217-.13.246a.49.49,0,0,1-.306-.007c-.12-.036-.259-.07-.419-.109a2.7,2.7,0,0,0-.545-.063,1.875,1.875,0,0,0-.68.129,1.357,1.357,0,0,0-.912.97,3.1,3.1,0,0,0,.214,1.792,4.475,4.475,0,0,0,.441.909,2.158,2.158,0,0,0,.538.582,1.273,1.273,0,0,0,.627.239,1.611,1.611,0,0,0,.717-.106,1.843,1.843,0,0,0,.625-.358,2.792,2.792,0,0,0,.394-.435c.1-.145.189-.272.256-.384a.445.445,0,0,1,.2-.2.183.183,0,0,1,.126,0,.289.289,0,0,1,.122.113,1.931,1.931,0,0,1,.134.242Q208.005,174.066,208.1,174.312Z" transform="translate(-201.506 -159.374)" fill="#fff"/>
        <path id="Path_335" data-name="Path 335" d="M218.856,169.956a.22.22,0,0,1,0,.147.345.345,0,0,1-.116.147,1.309,1.309,0,0,1-.265.161,4.554,4.554,0,0,1-.444.183,4.878,4.878,0,0,1-.465.149,1.343,1.343,0,0,1-.307.048.333.333,0,0,1-.182-.038.216.216,0,0,1-.093-.114l-1.383-3.792a3.357,3.357,0,0,0-.348-.733,1.583,1.583,0,0,0-.377-.4.968.968,0,0,0-.457-.179,1.136,1.136,0,0,0-.535.072,1.322,1.322,0,0,0-.627.524,4.178,4.178,0,0,0-.483,1.037l1.61,4.417a.214.214,0,0,1,0,.146.339.339,0,0,1-.119.148,1.411,1.411,0,0,1-.268.161,4.708,4.708,0,0,1-.446.185c-.184.067-.336.115-.462.146a1.4,1.4,0,0,1-.306.048.34.34,0,0,1-.187-.037.21.21,0,0,1-.093-.114l-3.57-9.795a.228.228,0,0,1-.005-.15.368.368,0,0,1,.117-.157,1.393,1.393,0,0,1,.263-.167,4.289,4.289,0,0,1,.446-.189,3.9,3.9,0,0,1,.463-.142,1.315,1.315,0,0,1,.31-.043.361.361,0,0,1,.189.046.232.232,0,0,1,.094.117l1.339,3.673a3.827,3.827,0,0,1,.726-1.071,2.647,2.647,0,0,1,.962-.618,2.8,2.8,0,0,1,1.225-.192,2.119,2.119,0,0,1,.975.336,2.671,2.671,0,0,1,.744.754,5.711,5.711,0,0,1,.584,1.208Z" transform="translate(-204.18 -156.769)" fill="#fff"/>
        <path id="Path_336" data-name="Path 336" d="M224.141,158.137a1.123,1.123,0,0,1,.054.867,1.943,1.943,0,0,1-1.707.63,1.089,1.089,0,0,1-.494-.673,1.148,1.148,0,0,1-.059-.868,1.915,1.915,0,0,1,1.707-.631A1.086,1.086,0,0,1,224.141,158.137Zm3.1,8.946a.214.214,0,0,1,0,.146.337.337,0,0,1-.118.148,1.4,1.4,0,0,1-.267.161,4.673,4.673,0,0,1-.447.184c-.184.067-.338.116-.462.147a1.5,1.5,0,0,1-.307.048.343.343,0,0,1-.187-.037.2.2,0,0,1-.091-.114l-2.418-6.628a.21.21,0,0,1,0-.148.372.372,0,0,1,.116-.152,1.45,1.45,0,0,1,.264-.169,4.354,4.354,0,0,1,.446-.189,3.755,3.755,0,0,1,.462-.141,1.328,1.328,0,0,1,.311-.042.362.362,0,0,1,.187.042.212.212,0,0,1,.093.114Z" transform="translate(-208.848 -155.251)" fill="#fff"/>
        <path id="Path_337" data-name="Path 337" d="M237.26,160.7a6.617,6.617,0,0,1,.392,1.668,3.838,3.838,0,0,1-.114,1.412,2.62,2.62,0,0,1-.629,1.1,2.946,2.946,0,0,1-1.146.722,2.573,2.573,0,0,1-.553.139,2.238,2.238,0,0,1-.531,0,3.08,3.08,0,0,1-.556-.122,5.617,5.617,0,0,1-.607-.234l1.138,3.128a.235.235,0,0,1,.006.151.368.368,0,0,1-.116.155,1.343,1.343,0,0,1-.265.169,4.188,4.188,0,0,1-.446.187,4.11,4.11,0,0,1-.462.143,1.325,1.325,0,0,1-.309.04.344.344,0,0,1-.189-.045.231.231,0,0,1-.1-.118l-3.383-9.28a.24.24,0,0,1-.009-.145.276.276,0,0,1,.1-.141,1.052,1.052,0,0,1,.227-.145,3.992,3.992,0,0,1,.758-.277,1.146,1.146,0,0,1,.265-.035.3.3,0,0,1,.165.046.248.248,0,0,1,.084.116l.286.783a7.087,7.087,0,0,1,.378-.733,3.648,3.648,0,0,1,.432-.587,2.833,2.833,0,0,1,.515-.447,3.031,3.031,0,0,1,.633-.315,2.671,2.671,0,0,1,1.348-.166,2.5,2.5,0,0,1,1.125.48,3.805,3.805,0,0,1,.9.989A6.985,6.985,0,0,1,237.26,160.7Zm-1.9.845a5.639,5.639,0,0,0-.361-.792,2.6,2.6,0,0,0-.469-.616,1.414,1.414,0,0,0-.581-.342,1.088,1.088,0,0,0-.689.045,1.331,1.331,0,0,0-.349.19,1.517,1.517,0,0,0-.305.318,2.744,2.744,0,0,0-.271.471,4.861,4.861,0,0,0-.242.654l.8,2.19a4.62,4.62,0,0,0,1.033.495,1.283,1.283,0,0,0,.843,0,1.085,1.085,0,0,0,.554-.413,1.556,1.556,0,0,0,.244-.642,2.6,2.6,0,0,0-.008-.767A3.9,3.9,0,0,0,235.356,161.541Z" transform="translate(-211.554 -155.403)" fill="#fff"/>
        <path id="Path_338" data-name="Path 338" d="M248.579,158.641a2.354,2.354,0,0,1,.15,1.075,2.1,2.1,0,0,1-.336.941,2.827,2.827,0,0,1-.758.77,4.619,4.619,0,0,1-1.093.565,4.853,4.853,0,0,1-.733.2,4.9,4.9,0,0,1-.659.079,3.382,3.382,0,0,1-.511-.012,1.221,1.221,0,0,1-.32-.072.569.569,0,0,1-.217-.2,2.21,2.21,0,0,1-.225-.479,3.3,3.3,0,0,1-.111-.351.863.863,0,0,1-.031-.225.2.2,0,0,1,.036-.13.212.212,0,0,1,.1-.067.582.582,0,0,1,.276,0c.129.022.286.042.473.059a4.346,4.346,0,0,0,.631.006,2.636,2.636,0,0,0,.755-.166,1.9,1.9,0,0,0,.43-.215,1.233,1.233,0,0,0,.29-.274.686.686,0,0,0,.13-.326.8.8,0,0,0-.051-.37.6.6,0,0,0-.278-.333,1.257,1.257,0,0,0-.466-.146,4.474,4.474,0,0,0-.6-.036c-.217,0-.441-.005-.673-.016a5.732,5.732,0,0,1-.7-.077,2.378,2.378,0,0,1-.659-.215,1.968,1.968,0,0,1-.576-.44,2.294,2.294,0,0,1-.43-.755,2.2,2.2,0,0,1-.134-.943,2.045,2.045,0,0,1,.29-.877,2.7,2.7,0,0,1,.693-.75,4,4,0,0,1,1.07-.569,4.273,4.273,0,0,1,.625-.175,4.6,4.6,0,0,1,.574-.083,2.83,2.83,0,0,1,.453,0,1.439,1.439,0,0,1,.283.049.414.414,0,0,1,.142.075.488.488,0,0,1,.093.118,2.021,2.021,0,0,1,.1.184c.035.075.075.17.116.283q.075.2.108.332a.829.829,0,0,1,.036.214.184.184,0,0,1-.035.127.212.212,0,0,1-.093.064.553.553,0,0,1-.238,0,4.068,4.068,0,0,0-.416-.039,4.2,4.2,0,0,0-.551.012,2.554,2.554,0,0,0-.666.154,1.78,1.78,0,0,0-.419.212.9.9,0,0,0-.251.26.67.67,0,0,0-.1.293.738.738,0,0,0,.041.3.588.588,0,0,0,.284.335,1.388,1.388,0,0,0,.471.141,4.492,4.492,0,0,0,.608.031c.222,0,.447,0,.678.01a5.483,5.483,0,0,1,.7.07,2.382,2.382,0,0,1,.671.21,1.978,1.978,0,0,1,.581.434A2.163,2.163,0,0,1,248.579,158.641Z" transform="translate(-216.21 -154.03)" fill="#fff"/>
      </g>
    </g>
    <g id="Group_10199" data-name="Group 10199" transform="matrix(0.588, 0.809, -0.809, 0.588, 1345.72, 3639)" opacity="0.133" style="isolation: isolate">
      <path id="Path_314" data-name="Path 314" d="M13.8,25.742A3.838,3.838,0,0,1,9.96,29.58a3.771,3.771,0,0,1-1.883-.489,2.513,2.513,0,0,0-2.119-.133c-.088.046-.164.09-.237.133a3.758,3.758,0,0,1-1.867.489,3.835,3.835,0,0,1-2.519-6.743c.132-.1.251-.191.369-.3,1.483-1.127,2.15-1.439,2.15-3.231V0H9.96V19.311c0,1.792.652,2.1,2.1,3.215l.4.311A3.823,3.823,0,0,1,13.8,25.742Z" transform="translate(6.512 38.525)" fill="#f6dec6"/>
      <path id="Path_315" data-name="Path 315" d="M13.115,25.742A3.839,3.839,0,0,1,9.278,29.58,3.785,3.785,0,0,1,7.4,29.091a2.506,2.506,0,0,0-2.119-.133c-.088.044-.164.09-.237.133a3.771,3.771,0,0,1-1.867.489A3.862,3.862,0,0,1,0,27.935c2.445,1.393,2.816-.266,4.861-.726,1.29-.282,2.223.311,3.423.5a2.329,2.329,0,0,0,2.7-1.469c.549-2.059-1.571-3.126-3.469-3.674-.207-.059-.207-3.676-.177-6.09C7.38,11.055,7.084,5.927,7.233,0H9.278V19.311c0,1.792.652,2.1,2.1,3.215.135.1.268.207.4.311A3.823,3.823,0,0,1,13.115,25.742Z" transform="translate(7.194 38.525)" fill="#999" opacity="0.36" style="mix-blend-mode: multiply;isolation: isolate"/>
      <path id="Path_316" data-name="Path 316" d="M19.173,36.788c-1.482,2.4-2.1,4.57-2.447,8.761.175-2.1-2.119-1.66-2.861,0-.741-.919-1.511-2.03-2.253-2.964-.741,1.3-.634,1.707-1.7,2.477C9.6,35.553,1.891,28.7.408,20A19.789,19.789,0,0,1,1.7,7.759C2.808,4.793,6.977,1.027,10.567.424c5.048-.7,8.389-.856,12.25,2.061C26.985,5.635,27.994,10.27,28,14.9,28.023,24.438,23.62,29.749,19.173,36.788Z" fill="#dd884d"/>
      <path id="Path_317" data-name="Path 317" d="M21.148,13.19c.015,9.545-4.386,14.85-8.833,21.889-1.452,2.356-2.074,4.492-2.43,8.538,0-1.839-2.164-1.378-2.875.221-.741-.919-1.511-2.03-2.253-2.964-.741,1.3-.638,1.7-1.7,2.475A25.143,25.143,0,0,0,0,32.93,38.349,38.349,0,0,0,11.337,20.511C15.606,13.428,14.91,7.381,14.851,0c.37.238.74.489,1.111.77C20.126,3.927,21.134,8.551,21.148,13.19Z" transform="translate(6.854 1.711)" fill="#999" opacity="0.36" style="mix-blend-mode: multiply;isolation: isolate"/>
    </g>
    <g id="Group_10206" data-name="Group 10206" transform="matrix(0.588, 0.809, -0.809, 0.588, 819.72, 3487)" opacity="0.133" style="isolation: isolate">
      <path id="Path_314-2" data-name="Path 314" d="M13.8,25.742A3.838,3.838,0,0,1,9.96,29.58a3.771,3.771,0,0,1-1.883-.489,2.513,2.513,0,0,0-2.119-.133c-.088.046-.164.09-.237.133a3.758,3.758,0,0,1-1.867.489,3.835,3.835,0,0,1-2.519-6.743c.132-.1.251-.191.369-.3,1.483-1.127,2.15-1.439,2.15-3.231V0H9.96V19.311c0,1.792.652,2.1,2.1,3.215l.4.311A3.823,3.823,0,0,1,13.8,25.742Z" transform="translate(6.512 38.525)" fill="#f6dec6"/>
      <path id="Path_315-2" data-name="Path 315" d="M13.115,25.742A3.839,3.839,0,0,1,9.278,29.58,3.785,3.785,0,0,1,7.4,29.091a2.506,2.506,0,0,0-2.119-.133c-.088.044-.164.09-.237.133a3.771,3.771,0,0,1-1.867.489A3.862,3.862,0,0,1,0,27.935c2.445,1.393,2.816-.266,4.861-.726,1.29-.282,2.223.311,3.423.5a2.329,2.329,0,0,0,2.7-1.469c.549-2.059-1.571-3.126-3.469-3.674-.207-.059-.207-3.676-.177-6.09C7.38,11.055,7.084,5.927,7.233,0H9.278V19.311c0,1.792.652,2.1,2.1,3.215.135.1.268.207.4.311A3.823,3.823,0,0,1,13.115,25.742Z" transform="translate(7.194 38.525)" fill="#999" opacity="0.36" style="mix-blend-mode: multiply;isolation: isolate"/>
      <path id="Path_316-2" data-name="Path 316" d="M19.173,36.788c-1.482,2.4-2.1,4.57-2.447,8.761.175-2.1-2.119-1.66-2.861,0-.741-.919-1.511-2.03-2.253-2.964-.741,1.3-.634,1.707-1.7,2.477C9.6,35.553,1.891,28.7.408,20A19.789,19.789,0,0,1,1.7,7.759C2.808,4.793,6.977,1.027,10.567.424c5.048-.7,8.389-.856,12.25,2.061C26.985,5.635,27.994,10.27,28,14.9,28.023,24.438,23.62,29.749,19.173,36.788Z" fill="#dd884d"/>
      <path id="Path_317-2" data-name="Path 317" d="M21.148,13.19c.015,9.545-4.386,14.85-8.833,21.889-1.452,2.356-2.074,4.492-2.43,8.538,0-1.839-2.164-1.378-2.875.221-.741-.919-1.511-2.03-2.253-2.964-.741,1.3-.638,1.7-1.7,2.475A25.143,25.143,0,0,0,0,32.93,38.349,38.349,0,0,0,11.337,20.511C15.606,13.428,14.91,7.381,14.851,0c.37.238.74.489,1.111.77C20.126,3.927,21.134,8.551,21.148,13.19Z" transform="translate(6.854 1.711)" fill="#999" opacity="0.36" style="mix-blend-mode: multiply;isolation: isolate"/>
    </g>
    <g id="Group_10202" data-name="Group 10202" transform="translate(1666.777 3454)" opacity="0.133" style="isolation: isolate">
      <path id="Path_394" data-name="Path 394" d="M350.352,104.008c.023.24.048.48.069.753.007.012.007.012,0,.031A54.246,54.246,0,0,1,350.7,115.6c-1.54,1.936-3.839,3.77-6.38,3.376-5.067-.276-9.062-5.219-14.027-6.128-4.113-.742-8.876,1.59-12.993,2.03-3.907.353-15.018-1.169-16.581-6.356l.006-.019c.278-10.5,14.391-22.374,22.187-24.632,6.545-1.913,14.768.535,20.178,4.313C348.177,91.746,349.693,98.218,350.352,104.008Z" transform="translate(-298.806 -81.224)" fill="#c24753"/>
      <path id="Path_395" data-name="Path 395" d="M341.04,83.244a26.278,26.278,0,0,0-21.862-1.408c-10.8,4.2-25.891,20.6-20.217,32.928,2.449,5.322,7.975,7.279,13.442,6.571,3.863-.506,7.641-1.411,11.564-1.378,4.359.056,7.8,2.969,11.416,4.979,5.172,2.873,10.045.249,13.579-3.8,4.529-5.2,3.219-13.532,2.625-19.763C350.685,93.549,348.116,87.277,341.04,83.244Zm8.231,19.646c.023.24.048.48.069.753.007.012.007.012,0,.031a54.246,54.246,0,0,1,.284,10.809c-1.54,1.936-3.839,3.77-6.38,3.376-5.067-.276-9.062-5.219-14.027-6.128-4.113-.742-8.876,1.59-12.993,2.03-3.907.353-15.018-1.169-16.581-6.356l.006-.019c.278-10.5,14.391-22.374,22.187-24.632,6.545-1.913,14.768.535,20.178,4.313C347.1,90.628,348.612,97.1,349.271,102.89Z" transform="translate(-297.725 -80.106)" fill="#ffffdb"/>
      <path id="Path_396" data-name="Path 396" d="M343.346,97.8c1.32,5.656-10.623,8.606-14.026,5.42-2.932-2.77.029-5.827,2.859-7.574C335.581,93.648,342.263,93.463,343.346,97.8Z" transform="translate(-308.679 -85.219)" fill="#f2f2dc"/>
      <path id="Path_397" data-name="Path 397" d="M348.616,138.943c-3.492,3.775-8.186,6.089-13.163,3.327-3.616-2.011-7.057-4.925-11.415-4.979-3.923-.033-7.7.872-11.566,1.377-5.465.708-10.993-1.248-13.441-6.571a12.9,12.9,0,0,1-1.106-3.9c1.883,3.946,6.532,6.489,11.016,6.641,4.8.141,9.392-.929,13.971-.934a33.16,33.16,0,0,1,5.651-.01c1.737.331,3.355,1.508,4.877,2.464,2.409,1.7,6.235,4.949,9.294,4.506A23.53,23.53,0,0,0,348.616,138.943Z" transform="translate(-297.797 -97.443)" fill="#999" opacity="0.36" style="mix-blend-mode: multiply;isolation: isolate"/>
      <path id="Path_398" data-name="Path 398" d="M341.416,100.73c-.506,1.115-2.829,1.59-4,1.77-.842.144-3.59.483-4.269-.745a2.182,2.182,0,0,1,.552-1.892,7.918,7.918,0,0,1,2.537-1.384,4.937,4.937,0,0,1,4.49.164A1.809,1.809,0,0,1,341.416,100.73Z" transform="translate(-310.472 -86.563)" fill="#fcc0b7"/>
    </g>
    <g id="Group_10200" data-name="Group 10200" transform="translate(1713.953 3611.703) rotate(93)" opacity="0.133" style="isolation: isolate">
      <path id="Path_318" data-name="Path 318" d="M38.632,45.345c0,25.042-8.649,45.342-19.316,45.342S0,70.386,0,45.345,8.648,0,19.316,0,38.632,20.3,38.632,45.345Z" transform="translate(0 0)" fill="#fff" opacity="0.354"/>
      <path id="Path_319" data-name="Path 319" d="M30.12,0c-2.7,2.921-8.408,4.925-15.06,4.925C8.433,4.925,2.671,2.921,0,0Z" transform="translate(4.256 45.349)" fill="#efdde6" opacity="0.48" style="mix-blend-mode: multiply;isolation: isolate"/>
      <path id="Path_320" data-name="Path 320" d="M30.12,4.936H0C2.671,2.016,8.407,0,15.06,0S27.449,2.016,30.12,4.936Z" transform="translate(4.256 40.414)" fill="#ffffb5" opacity="0.54"/>
      <path id="Path_321" data-name="Path 321" d="M26.138,0c-2.343,2.54-7.307,4.282-13.069,4.282S2.331,2.54,0,0Z" transform="translate(6.247 32.412)" fill="#efdde6" opacity="0.48" style="mix-blend-mode: multiply;isolation: isolate"/>
      <path id="Path_322" data-name="Path 322" d="M26.138,0c-2.343,2.541-7.307,4.283-13.069,4.283S2.331,2.541,0,0Z" transform="translate(6.247 58.712)" fill="#efdde6" opacity="0.48" style="mix-blend-mode: multiply;isolation: isolate"/>
      <path id="Path_323" data-name="Path 323" d="M26.138,4.283H0C2.318,1.755,7.307,0,13.069,0S23.807,1.755,26.138,4.283Z" transform="translate(6.247 28.129)" fill="#ffffb5" opacity="0.54"/>
      <path id="Path_324" data-name="Path 324" d="M26.138,4.283H0C2.318,1.755,7.307,0,13.069,0S23.807,1.755,26.138,4.283Z" transform="translate(6.247 54.436)" fill="#ffffb5" opacity="0.54"/>
      <path id="Path_325" data-name="Path 325" d="M20.875,0C19,2.03,15.047,3.418,10.437,3.418S1.86,2.03,0,0Z" transform="translate(8.879 20.914)" fill="#efdde6" opacity="0.48" style="mix-blend-mode: multiply;isolation: isolate"/>
      <path id="Path_326" data-name="Path 326" d="M20.875,0C19,2.029,15.047,3.418,10.437,3.418S1.86,2.029,0,0Z" transform="translate(8.879 70.675)" fill="#efdde6" opacity="0.48" style="mix-blend-mode: multiply;isolation: isolate"/>
      <path id="Path_327" data-name="Path 327" d="M20.875,3.418H0C1.846,1.4,5.827,0,10.437,0S19.015,1.4,20.875,3.418Z" transform="translate(8.879 17.496)" fill="#ffffb5" opacity="0.54"/>
      <path id="Path_328" data-name="Path 328" d="M20.875,3.418H0C1.846,1.4,5.827,0,10.437,0S19.015,1.4,20.875,3.418Z" transform="translate(8.879 67.259)" fill="#ffffb5" opacity="0.54"/>
    </g>
    <g id="Group_10203" data-name="Group 10203" transform="translate(1116.378 3535)" opacity="0.133" style="isolation: isolate">
      <path id="Path_428" data-name="Path 428" d="M241.706,54.183a28.81,28.81,0,0,1-3.967,3.877,35.714,35.714,0,0,1-10.115,5.733,42.818,42.818,0,0,1-15.146,2.687,43.239,43.239,0,0,1-10.384-1.244,35.352,35.352,0,0,1-18.861-11.054A35.347,35.347,0,0,1,202.094,43.13a44.125,44.125,0,0,1,25.115,1.28A34.092,34.092,0,0,1,241.706,54.183Z" transform="translate(-183.233 -37.792)" fill="#6fb5cf"/>
      <path id="Path_429" data-name="Path 429" d="M284.569,55.657c3.5,4.165,3.156,7.537,4.381,9.683a33.741,33.741,0,0,1-14.28-9.683,33.727,33.727,0,0,1,14.28-9.682C287.725,48.12,288.067,51.491,284.569,55.657Z" transform="translate(-216.197 -39.266)" fill="#bde0e8"/>
      <path id="Path_430" data-name="Path 430" d="M205.1,54.884a21.7,21.7,0,0,1-3.011,11.054,35.352,35.352,0,0,1-18.861-11.054,35.347,35.347,0,0,1,18.861-11.052A21.7,21.7,0,0,1,205.1,54.884Z" transform="translate(-183.233 -38.494)" fill="#bde0e8"/>
      <path id="Path_431" data-name="Path 431" d="M197.6,58.516a1.916,1.916,0,1,1-1.917-1.915A1.917,1.917,0,0,1,197.6,58.516Z" transform="translate(-187.031 -43.097)"/>
      <path id="Path_432" data-name="Path 432" d="M196.316,58.316a.864.864,0,1,1-.863-.863A.863.863,0,0,1,196.316,58.316Z" transform="translate(-187.326 -43.404)" fill="#fff"/>
      <path id="Path_433" data-name="Path 433" d="M237.842,42.1a44.125,44.125,0,0,0-25.115-1.28,32.482,32.482,0,0,1,3.838-2.653c1.137-.667,2.592-1.888,4.171-2.685a27.862,27.862,0,0,1-.258,3.426c2.633-.432,4.815-1.442,6.96-1.225a4.587,4.587,0,0,0-.848,1.551,26.216,26.216,0,0,1,3.245-.523c2.8.017.488,1.352,1.66,1.37,1.388.035,3.064-.054,3.642.5C235.912,41.364,236.273,40.894,237.842,42.1Z" transform="translate(-193.866 -35.484)" fill="#bde0e8"/>
      <path id="Path_434" data-name="Path 434" d="M262.15,71.649a66.984,66.984,0,0,0-9.5,1.262,35.714,35.714,0,0,0,10.115-5.733A20.92,20.92,0,0,1,262.15,71.649Z" transform="translate(-208.259 -46.91)" fill="#bde0e8"/>
      <path id="Path_435" data-name="Path 435" d="M253.844,58.94c-3.21-.54-31.247-1.695-36.639-1.461a17.329,17.329,0,0,0-.307-2.4C244.125,55.044,253.844,58.94,253.844,58.94Z" transform="translate(-195.37 -42.549)" fill="#dcecef"/>
    </g>
  </g>
</svg>
