<svg id="Group_10183" data-name="Group 10183" xmlns="http://www.w3.org/2000/svg" width="180.257" height="60.383" viewBox="0 0 180.257 60.383">
  <g id="Group_146" data-name="Group 146" opacity="0.199">
    <path id="Path_287" data-name="Path 287" d="M206.028,75.665H43.63a8.94,8.94,0,0,1-8.93-8.93V24.212a8.94,8.94,0,0,1,8.93-8.93h162.4a8.94,8.94,0,0,1,8.929,8.93V66.735A8.94,8.94,0,0,1,206.028,75.665ZM43.63,17.391a6.828,6.828,0,0,0-6.821,6.821V66.735a6.828,6.828,0,0,0,6.821,6.821h162.4a6.827,6.827,0,0,0,6.82-6.821V24.212a6.827,6.827,0,0,0-6.82-6.821Z" transform="translate(-34.7 -15.282)" fill="#fff"/>
  </g>
  <g id="Group_147" data-name="Group 147" transform="translate(55.156 12.642)">
    <path id="Path_288" data-name="Path 288" d="M91.74,32.246h-1.2a7.958,7.958,0,0,0-.341-1.4H88.474a7.241,7.241,0,0,0-.351,1.4H87q0-.146.873-2.394a18.872,18.872,0,0,0,.874-2.477h1.414a20.588,20.588,0,0,0,.791,2.442A21.374,21.374,0,0,1,91.74,32.246Zm-1.729-2.114a21.091,21.091,0,0,1-.639-2.088h-.06q0,.146-.662,2.088Z" transform="translate(-86.996 -27.262)" fill="#fff"/>
    <path id="Path_289" data-name="Path 289" d="M96.277,32.246h-.925a9.129,9.129,0,0,0-1.028-1.62A8.971,8.971,0,0,1,93.1,28.512h-.06a13.208,13.208,0,0,1,.094,1.481q0,.925.053,2.253h-.921q.057-1.16.056-2.548,0-1.365-.056-2.323h1.112a7.025,7.025,0,0,0,.924,1.583,9.287,9.287,0,0,1,1.13,1.994h.056a14.361,14.361,0,0,1-.09-1.5q0-1.014-.052-2.081h.936q-.054.929-.053,2.323T96.277,32.246Z" transform="translate(-86.708 -27.262)" fill="#fff"/>
    <path id="Path_290" data-name="Path 290" d="M101.423,29.643a2.759,2.759,0,0,1-.68,1.855,2.38,2.38,0,0,1-1.909.794q-.554,0-1.526-.045.049-1.13.049-2.548,0-1.362-.049-2.323h.655c.107,0,.267,0,.479-.011s.35-.012.416-.012a2.526,2.526,0,0,1,1.959.673A2.332,2.332,0,0,1,101.423,29.643ZM100.4,29.8a1.8,1.8,0,0,0-.42-1.211A1.587,1.587,0,0,0,98.7,28.1a4,4,0,0,0-.441.034q.036.748.037,1.564,0,.9.038,1.774a2.526,2.526,0,0,0,.486.049,1.414,1.414,0,0,0,1.192-.5A1.929,1.929,0,0,0,100.4,29.8Z" transform="translate(-86.432 -27.263)" fill="#fff"/>
    <path id="Path_291" data-name="Path 291" d="M106.156,32.247h-1.107a7.363,7.363,0,0,0-.666-1.635.875.875,0,0,0-.749-.311c-.144,0-.283,0-.414,0q0,.962.033,1.942h-1.04q.049-1.13.049-2.548,0-1.362-.049-2.323h.648c.075,0,.231,0,.469-.011s.459-.012.66-.012q1.718,0,1.718,1.175a1.317,1.317,0,0,1-.981,1.3v.056a1.169,1.169,0,0,1,.662.59A12.919,12.919,0,0,1,106.156,32.247Zm-1.4-3.443q0-.744-.958-.745a3.282,3.282,0,0,0-.621.053q.041.581.041,1.511c.137.005.253.007.348.007Q104.753,29.631,104.753,28.8Z" transform="translate(-86.164 -27.263)" fill="#fff"/>
    <path id="Path_292" data-name="Path 292" d="M111.283,29.725a2.683,2.683,0,0,1-.7,1.9,2.279,2.279,0,0,1-1.739.756,2.2,2.2,0,0,1-1.654-.694,2.447,2.447,0,0,1-.667-1.764,2.691,2.691,0,0,1,.7-1.9,2.285,2.285,0,0,1,1.74-.755,2.2,2.2,0,0,1,1.654.692A2.443,2.443,0,0,1,111.283,29.725Zm-1.033.109a1.929,1.929,0,0,0-.4-1.268,1.232,1.232,0,0,0-.988-.486,1.145,1.145,0,0,0-.928.489,1.959,1.959,0,0,0-.381,1.239,1.926,1.926,0,0,0,.4,1.266,1.231,1.231,0,0,0,.986.488,1.138,1.138,0,0,0,.927-.491A1.954,1.954,0,0,0,110.25,29.834Z" transform="translate(-85.928 -27.268)" fill="#fff"/>
    <path id="Path_293" data-name="Path 293" d="M113.1,32.246h-1.059q.049-1.16.049-2.548,0-1.365-.049-2.323H113.1q-.049.943-.049,2.323Q113.048,31.109,113.1,32.246Z" transform="translate(-85.626 -27.262)" fill="#fff"/>
    <path id="Path_294" data-name="Path 294" d="M118.4,29.643a2.755,2.755,0,0,1-.681,1.855,2.376,2.376,0,0,1-1.908.794q-.554,0-1.526-.045.047-1.13.049-2.548,0-1.362-.049-2.323h.655c.107,0,.267,0,.479-.011s.35-.012.414-.012a2.527,2.527,0,0,1,1.96.673A2.332,2.332,0,0,1,118.4,29.643Zm-1.021.161a1.8,1.8,0,0,0-.42-1.211,1.588,1.588,0,0,0-1.279-.493,4.021,4.021,0,0,0-.442.034q.038.748.038,1.564,0,.9.037,1.774a2.544,2.544,0,0,0,.487.049,1.411,1.411,0,0,0,1.191-.5A1.923,1.923,0,0,0,117.376,29.8Z" transform="translate(-85.504 -27.263)" fill="#fff"/>
    <path id="Path_295" data-name="Path 295" d="M125.251,32.246h-1.2a7.96,7.96,0,0,0-.341-1.4h-1.729a7.242,7.242,0,0,0-.351,1.4h-1.126q0-.146.873-2.394a18.761,18.761,0,0,0,.873-2.477h1.414a20.726,20.726,0,0,0,.792,2.442A21.371,21.371,0,0,1,125.251,32.246Zm-1.729-2.114a21.3,21.3,0,0,1-.64-2.088h-.059q0,.146-.662,2.088Z" transform="translate(-85.163 -27.262)" fill="#fff"/>
    <path id="Path_296" data-name="Path 296" d="M129.327,28.651a1.457,1.457,0,0,1-.664,1.32,2.946,2.946,0,0,1-1.628.427c-.118,0-.2,0-.251-.008q0,.7.041,1.856h-1.052q.049-1.081.049-2.548,0-1.346-.049-2.323h.651c.093,0,.27,0,.532-.011s.489-.012.681-.012a2.147,2.147,0,0,1,1.2.322A1.089,1.089,0,0,1,129.327,28.651Zm-.965.206q0-.8-1.062-.8a3.065,3.065,0,0,0-.562.056c.028.471.041,1.005.041,1.6.062.005.135.007.217.007Q128.363,29.721,128.362,28.857Z" transform="translate(-84.875 -27.263)" fill="#fff"/>
    <path id="Path_297" data-name="Path 297" d="M133.582,28.651a1.457,1.457,0,0,1-.664,1.32,2.947,2.947,0,0,1-1.63.427c-.117,0-.2,0-.25-.008q0,.7.041,1.856h-1.052q.049-1.081.049-2.548,0-1.346-.049-2.323h.651c.093,0,.27,0,.532-.011s.488-.012.681-.012a2.143,2.143,0,0,1,1.2.322A1.088,1.088,0,0,1,133.582,28.651Zm-.965.206q0-.8-1.063-.8a3.054,3.054,0,0,0-.561.056q.041.707.041,1.6c.062.005.135.007.217.007Q132.617,29.721,132.617,28.857Z" transform="translate(-84.642 -27.263)" fill="#fff"/>
    <path id="Path_298" data-name="Path 298" d="M140.6,29.725a2.682,2.682,0,0,1-.7,1.9,2.279,2.279,0,0,1-1.739.756,2.2,2.2,0,0,1-1.654-.694,2.447,2.447,0,0,1-.667-1.764,2.691,2.691,0,0,1,.7-1.9,2.285,2.285,0,0,1,1.74-.755,2.2,2.2,0,0,1,1.654.692A2.443,2.443,0,0,1,140.6,29.725Zm-1.033.109a1.929,1.929,0,0,0-.4-1.268,1.233,1.233,0,0,0-.988-.486,1.143,1.143,0,0,0-.928.489,1.96,1.96,0,0,0-.382,1.239,1.921,1.921,0,0,0,.4,1.266,1.231,1.231,0,0,0,.985.488,1.138,1.138,0,0,0,.928-.491A1.953,1.953,0,0,0,139.568,29.834Z" transform="translate(-84.325 -27.268)" fill="#fff"/>
    <path id="Path_299" data-name="Path 299" d="M145.371,32.246h-.925a9.129,9.129,0,0,0-1.028-1.62,8.972,8.972,0,0,1-1.228-2.114h-.059a13.19,13.19,0,0,1,.093,1.481q0,.925.053,2.253h-.921q.057-1.16.056-2.548,0-1.365-.056-2.323h1.112a7.024,7.024,0,0,0,.924,1.583,9.285,9.285,0,0,1,1.13,1.994h.057a14.109,14.109,0,0,1-.091-1.5q0-1.014-.052-2.081h.936q-.054.929-.053,2.323T145.371,32.246Z" transform="translate(-84.023 -27.262)" fill="#fff"/>
  </g>
  <g id="Group_148" data-name="Group 148" transform="translate(54.861 23.489)">
    <path id="Path_300" data-name="Path 300" d="M104.221,47.3a7.81,7.81,0,0,1-2.152,5.779,8.387,8.387,0,0,1-6.359,2.563,8.918,8.918,0,0,1-8.994-9.043,8.918,8.918,0,0,1,8.994-9.042,8.92,8.92,0,0,1,3.554.725,7.128,7.128,0,0,1,2.707,1.934l-1.523,1.524A5.841,5.841,0,0,0,95.71,39.68a6.693,6.693,0,0,0-6.722,6.915,6.805,6.805,0,0,0,11.557,4.981A5.433,5.433,0,0,0,102,48.07H95.71v-2.08h8.39A7.48,7.48,0,0,1,104.221,47.3Z" transform="translate(-86.716 -37.553)" fill="#fff"/>
    <path id="Path_301" data-name="Path 301" d="M105.9,44.535a6.217,6.217,0,0,1,8.753,0,6.782,6.782,0,0,1,0,9.018,6.217,6.217,0,0,1-8.753,0,6.778,6.778,0,0,1,0-9.018Zm1.656,7.615a3.74,3.74,0,0,0,5.441,0,4.779,4.779,0,0,0,0-6.213,3.742,3.742,0,0,0-5.441,0,4.779,4.779,0,0,0,0,6.213Z" transform="translate(-85.761 -37.27)" fill="#fff"/>
    <path id="Path_302" data-name="Path 302" d="M118.166,44.535a6.217,6.217,0,0,1,8.753,0,6.782,6.782,0,0,1,0,9.018,6.217,6.217,0,0,1-8.753,0,6.778,6.778,0,0,1,0-9.018Zm1.656,7.615a3.738,3.738,0,0,0,5.44,0,4.776,4.776,0,0,0,0-6.213,3.741,3.741,0,0,0-5.44,0,4.776,4.776,0,0,0,0,6.213Z" transform="translate(-85.09 -37.27)" fill="#fff"/>
    <path id="Path_303" data-name="Path 303" d="M134.541,60.577a5.363,5.363,0,0,1-3.434-1.053,6.175,6.175,0,0,1-1.91-2.406l2.031-.846a3.33,3.33,0,0,0,1.246,1.62,3.441,3.441,0,0,0,2.067.653,3.809,3.809,0,0,0,2.889-1.1,4.141,4.141,0,0,0,1.052-2.986V53.324h-.1a4.548,4.548,0,0,1-1.643,1.45,4.919,4.919,0,0,1-2.394.58,5.21,5.21,0,0,1-3.965-1.813,6.893,6.893,0,0,1,0-9,5.213,5.213,0,0,1,3.965-1.812,4.93,4.93,0,0,1,2.394.579,4.55,4.55,0,0,1,1.643,1.451h.1V43.12h2.128V54.363a5.905,5.905,0,0,1-1.766,4.631A6.217,6.217,0,0,1,134.541,60.577Zm.169-7.253a3.547,3.547,0,0,0,2.672-1.161,4.971,4.971,0,0,0,0-6.237,3.627,3.627,0,0,0-5.33.012,4.893,4.893,0,0,0,0,6.213A3.538,3.538,0,0,0,134.71,53.324Z" transform="translate(-84.419 -37.27)" fill="#fff"/>
    <path id="Path_304" data-name="Path 304" d="M144.21,55.231h-2.223V37.919h2.223Z" transform="translate(-83.693 -37.533)" fill="#fff"/>
    <path id="Path_305" data-name="Path 305" d="M151.377,55.354a5.712,5.712,0,0,1-4.364-1.79,6.34,6.34,0,0,1-1.68-4.52,6.523,6.523,0,0,1,1.632-4.45,5.3,5.3,0,0,1,4.171-1.86,5.467,5.467,0,0,1,4.219,1.716,6.511,6.511,0,0,1,1.584,4.594l-.024.411h-9.357a4.016,4.016,0,0,0,1.2,2.828,3.63,3.63,0,0,0,2.575,1.041,3.193,3.193,0,0,0,3.24-2.031l1.982.822a5.307,5.307,0,0,1-1.909,2.31A5.561,5.561,0,0,1,151.377,55.354Zm3.192-7.737a3.153,3.153,0,0,0-.93-1.934,3.327,3.327,0,0,0-2.551-.919,3.188,3.188,0,0,0-2.14.774,3.951,3.951,0,0,0-1.245,2.079Z" transform="translate(-83.51 -37.27)" fill="#fff"/>
    <path id="Path_306" data-name="Path 306" d="M164.75,55.231h-2.224V37.919h5.9a5.474,5.474,0,0,1,3.807,1.463,5.033,5.033,0,0,1,0,7.374,5.47,5.47,0,0,1-3.807,1.463H164.75Zm0-9.139h3.724a2.878,2.878,0,0,0,2.248-.943,2.976,2.976,0,0,0,0-4.159,2.874,2.874,0,0,0-2.248-.943H164.75Z" transform="translate(-82.57 -37.533)" fill="#fff"/>
    <path id="Path_307" data-name="Path 307" d="M176.854,55.231H174.63V37.919h2.224Z" transform="translate(-81.908 -37.533)" fill="#fff"/>
    <path id="Path_308" data-name="Path 308" d="M182.4,55.354a4.675,4.675,0,0,1-3.155-1.088,3.6,3.6,0,0,1-1.27-2.876,3.555,3.555,0,0,1,1.5-3.034,6.074,6.074,0,0,1,3.7-1.1,6.366,6.366,0,0,1,3.216.725v-.339a2.648,2.648,0,0,0-.894-2.091,3.213,3.213,0,0,0-2.2-.786,3.412,3.412,0,0,0-1.753.46,2.369,2.369,0,0,0-1.077,1.256l-2.03-.87a4.6,4.6,0,0,1,1.62-1.97,5.186,5.186,0,0,1,3.192-.906,5.476,5.476,0,0,1,3.772,1.329,4.748,4.748,0,0,1,1.5,3.748v7.156H186.39V53.324h-.1A4.363,4.363,0,0,1,182.4,55.354Zm.363-2.03a3.628,3.628,0,0,0,2.5-1.028,3.186,3.186,0,0,0,1.124-2.43,4.387,4.387,0,0,0-2.829-.773,3.683,3.683,0,0,0-2.442.7,2.107,2.107,0,0,0-.823,1.644,1.584,1.584,0,0,0,.75,1.378A2.993,2.993,0,0,0,182.763,53.324Z" transform="translate(-81.725 -37.27)" fill="#fff"/>
    <path id="Path_309" data-name="Path 309" d="M192.786,60.169h-2.3l2.757-5.972-4.884-11.1h2.417l3.531,8.511h.047l3.433-8.511h2.417Z" transform="translate(-81.157 -37.25)" fill="#fff"/>
  </g>
  <g id="Group_149" data-name="Group 149" transform="translate(13.362 13.207)">
    <path id="Path_310" data-name="Path 310" d="M47.379,46.811q0-8.295,0-16.588a2.484,2.484,0,0,1,.612-1.811c.187-.2.322-.253.551-.019q5.581,5.694,11.179,11.373,3.621,3.68,7.253,7.351c.235.236.255.362.006.61q-8.9,8.844-17.764,17.715a.61.61,0,0,1-.961.057,2.256,2.256,0,0,1-.875-1.916q0-4.912-.006-9.824,0-3.474,0-6.946Z" transform="translate(-47.369 -27.78)" fill="#fff"/>
    <path id="Path_311" data-name="Path 311" d="M49.393,27.8a2.044,2.044,0,0,1,1.079.3Q61.831,34.47,73.194,40.827c.348.194.341.3.073.567q-2.541,2.5-5.054,5.028c-.18.181-.291.286-.534.038q-9.038-9.217-18.091-18.417C49.537,27.992,49.5,27.931,49.393,27.8Z" transform="translate(-47.258 -27.804)" fill="#fff"/>
    <path id="Path_312" data-name="Path 312" d="M51,64.256q8.246-8.334,16.482-16.677c.341-.346.5-.3.8.018q2.09,2.175,4.227,4.305c.25.251.27.353-.069.539Q61.859,58.235,51.285,64.049A3.26,3.26,0,0,0,51,64.256Z" transform="translate(-47.17 -26.736)" fill="#fff"/>
    <path id="Path_313" data-name="Path 313" d="M81.482,46.267a1.731,1.731,0,0,1-.761,1.388,9.53,9.53,0,0,1-1.053.641c-2.133,1.18-4.273,2.348-6.4,3.535a.479.479,0,0,1-.7-.093q-2.273-2.348-4.582-4.662c-.225-.225-.23-.348,0-.574q2.686-2.647,5.345-5.321a.429.429,0,0,1,.62-.086c2.107,1.194,4.224,2.372,6.338,3.556A1.934,1.934,0,0,1,81.482,46.267Z" transform="translate(-46.25 -27.082)" fill="#fff"/>
  </g>
</svg>
