<svg xmlns="http://www.w3.org/2000/svg" width="57" height="70.571" viewBox="0 0 57 70.571">
  <g id="icons8-cash_in_hand" transform="translate(-11 -6)">
    <path id="Path_7225" data-name="Path 7225" d="M27,30.13a4.126,4.126,0,1,1,3.3,4.048V30.957L27,30.13" transform="translate(8.37 9.672)"/>
    <path id="Path_7226" data-name="Path 7226" d="M63.929,22.286H61.214a5.434,5.434,0,0,0-5.429-5.429,5.373,5.373,0,0,0-2.714.755V15.5a6.755,6.755,0,0,0-11.293-5.035,6.76,6.76,0,0,0-13.012,1.1,6.714,6.714,0,0,0-4.195-1.494,6.793,6.793,0,0,0-6.786,6.786v5.429H15.071A4.076,4.076,0,0,0,11,26.357V53.5a4.076,4.076,0,0,0,4.071,4.071h2.823a9.48,9.48,0,0,0,2.923,5.581,4.066,4.066,0,0,0-3.032,3.919V72.5a4.076,4.076,0,0,0,4.071,4.071H57.143A4.076,4.076,0,0,0,61.214,72.5V67.071a4.066,4.066,0,0,0-3.031-3.919,9.48,9.48,0,0,0,2.923-5.581h2.822A4.076,4.076,0,0,0,68,53.5V26.357A4.076,4.076,0,0,0,63.929,22.286Zm0,2.714a1.358,1.358,0,0,1,1.357,1.357v5.429H63.929A5.434,5.434,0,0,1,58.5,26.357V25ZM55.786,53.5v1.357H38.224a12.284,12.284,0,0,0-3.463-4.225,6.108,6.108,0,0,0-1.368-12.061H24.571a6.793,6.793,0,0,0-6.786,6.786v.472a8.12,8.12,0,0,0-2.714-.472H13.714V34.5h1.357a8.151,8.151,0,0,0,8.143-8.143V25H55.786v1.357A8.151,8.151,0,0,0,63.929,34.5h1.357V45.357H63.929A8.151,8.151,0,0,0,55.786,53.5Zm0-33.929A2.717,2.717,0,0,1,58.5,22.286H53.071A2.717,2.717,0,0,1,55.786,19.571Zm-9.5-8.143A4.076,4.076,0,0,1,50.357,15.5v6.786H42.214V15.5A4.076,4.076,0,0,1,46.286,11.429ZM31.357,12.786a4.071,4.071,0,0,1,8.143,0v9.5H31.357v-9.5ZM20.5,16.857a4.071,4.071,0,1,1,8.143,0v5.429H20.5ZM15.071,25H20.5v1.357a5.434,5.434,0,0,1-5.429,5.429H13.714V26.357A1.358,1.358,0,0,1,15.071,25ZM13.714,53.5V48.071h1.357a5.384,5.384,0,0,1,2.714.741v6.045H15.071A1.358,1.358,0,0,1,13.714,53.5ZM57.143,65.714A1.358,1.358,0,0,1,58.5,67.071v1.357H53.071v2.714H58.5V72.5a1.358,1.358,0,0,1-1.357,1.357H21.857A1.358,1.358,0,0,1,20.5,72.5V67.071a1.358,1.358,0,0,1,1.357-1.357H57.143ZM51.714,63H27.286A6.793,6.793,0,0,1,20.5,56.214V45.357a4.076,4.076,0,0,1,4.071-4.071h8.821a3.393,3.393,0,0,1,0,6.786H25.929v2.714h1.357a9.512,9.512,0,0,1,9.5,9.5H39.5a12.254,12.254,0,0,0-.311-2.714H58.363A6.8,6.8,0,0,1,51.714,63Zm12.214-8.143H58.5V53.5a5.434,5.434,0,0,1,5.429-5.429h1.357V53.5A1.358,1.358,0,0,1,63.929,54.857Z" transform="translate(0 0)"/>
  </g>
</svg>
