<svg xmlns="http://www.w3.org/2000/svg" xmlns:xlink="http://www.w3.org/1999/xlink" width="334" height="334" viewBox="0 0 334 334">
  <defs>
    <linearGradient id="linear-gradient" x1="0.5" y1="1" x2="0.5" gradientUnits="objectBoundingBox">
      <stop offset="0" stop-color="gray" stop-opacity="0.251"/>
      <stop offset="0.535" stop-color="gray" stop-opacity="0.122"/>
      <stop offset="1" stop-color="gray" stop-opacity="0.102"/>
    </linearGradient>
  </defs>
  <g id="Group_12337" data-name="Group 12337" transform="translate(-225 -1502)">
    <circle id="Ellipse_51" data-name="Ellipse 51" cx="167" cy="167" r="167" transform="translate(225 1502)" fill="#268aca" opacity="0.116"/>
    <g id="Group_12336" data-name="Group 12336" transform="translate(238.263 1555.013)">
      <ellipse id="Ellipse_129" data-name="Ellipse 129" cx="132.737" cy="18.687" rx="132.737" ry="18.687" transform="translate(21 183.42)" fill="#268aca" opacity="0.1"/>
      <path id="Path_7546" data-name="Path 7546" d="M997.486,718.966s8.018-10.2,7.37-20.326a19.661,19.661,0,0,1,3.094-12.046,33.06,33.06,0,0,1,3.767-4.73" transform="translate(-734.431 -507.7)" fill="none" stroke="#535461" stroke-miterlimit="10" stroke-width="2"/>
      <path id="Path_7547" data-name="Path 7547" d="M1047.4,654.075c-.565,1.417.361,6.55.361,6.55s4.2-3.085,4.77-4.5a2.762,2.762,0,0,0-5.131-2.047Z" transform="translate(-770.488 -486.292)" fill="#268aca"/>
      <path id="Path_7548" data-name="Path 7548" d="M1020.94,672.352c.3,1.5,3.862,5.3,3.862,5.3s1.853-4.875,1.557-6.372a2.762,2.762,0,0,0-5.42,1.07Z" transform="translate(-751.396 -498.413)" fill="#268aca"/>
      <path id="Path_7549" data-name="Path 7549" d="M1000.467,717.977c1.011,1.143,6.01,2.627,6.01,2.627s-.862-5.144-1.872-6.287a2.762,2.762,0,1,0-4.138,3.66Z" transform="translate(-736.09 -530.552)" fill="#268aca"/>
      <path id="Path_7550" data-name="Path 7550" d="M995.345,759.27c.8,1.3,5.48,3.6,5.48,3.6s.02-5.215-.783-6.513a2.762,2.762,0,0,0-4.7,2.908Z" transform="translate(-732.579 -560.76)" fill="#268aca"/>
      <path id="Path_7551" data-name="Path 7551" d="M1037.037,695.122c-1.41.582-6.553-.285-6.553-.285s3.036-4.241,4.446-4.822a2.762,2.762,0,0,1,2.107,5.107Z" transform="translate(-758.354 -513.457)" fill="#268aca"/>
      <path id="Path_7552" data-name="Path 7552" d="M1030.6,741.648c-1.52.133-6.168-2.232-6.168-2.232s4.166-3.138,5.686-3.271a2.762,2.762,0,1,1,.482,5.5Z" transform="translate(-753.97 -547.044)" fill="#268aca"/>
      <path id="Path_7553" data-name="Path 7553" d="M1016.329,786.592c-1.475.388-6.456-1.158-6.456-1.158s3.576-3.8,5.051-4.185a2.762,2.762,0,1,1,1.405,5.343Z" transform="translate(-743.412 -579.686)" fill="#268aca"/>
      <path id="Path_7554" data-name="Path 7554" d="M1047.4,654.075c-.565,1.417.361,6.55.361,6.55s4.2-3.085,4.77-4.5a2.762,2.762,0,0,0-5.131-2.047Z" transform="translate(-770.488 -486.292)" opacity="0.25"/>
      <path id="Path_7555" data-name="Path 7555" d="M1020.94,672.352c.3,1.5,3.862,5.3,3.862,5.3s1.853-4.875,1.557-6.372a2.762,2.762,0,0,0-5.42,1.07Z" transform="translate(-751.396 -498.413)" opacity="0.25"/>
      <path id="Path_7556" data-name="Path 7556" d="M1000.467,717.977c1.011,1.143,6.01,2.627,6.01,2.627s-.862-5.144-1.872-6.287a2.762,2.762,0,1,0-4.138,3.66Z" transform="translate(-736.09 -530.552)" opacity="0.25"/>
      <path id="Path_7557" data-name="Path 7557" d="M995.345,759.27c.8,1.3,5.48,3.6,5.48,3.6s.02-5.215-.783-6.513a2.762,2.762,0,0,0-4.7,2.908Z" transform="translate(-732.579 -560.76)" opacity="0.25"/>
      <path id="Path_7558" data-name="Path 7558" d="M1037.037,695.122c-1.41.582-6.553-.285-6.553-.285s3.036-4.241,4.446-4.822a2.762,2.762,0,0,1,2.107,5.107Z" transform="translate(-758.354 -513.457)" opacity="0.25"/>
      <path id="Path_7559" data-name="Path 7559" d="M1030.6,741.648c-1.52.133-6.168-2.232-6.168-2.232s4.166-3.138,5.686-3.271a2.762,2.762,0,1,1,.482,5.5Z" transform="translate(-753.97 -547.044)" opacity="0.25"/>
      <path id="Path_7560" data-name="Path 7560" d="M1016.329,786.592c-1.475.388-6.456-1.158-6.456-1.158s3.576-3.8,5.051-4.185a2.762,2.762,0,1,1,1.405,5.343Z" transform="translate(-743.412 -579.686)" opacity="0.25"/>
      <path id="Path_7561" data-name="Path 7561" d="M997.733,741.013s11.465-6.079,14.974-15.6a19.661,19.661,0,0,1,7.71-9.758,33.056,33.056,0,0,1,5.361-2.8" transform="translate(-734.61 -530.172)" fill="none" stroke="#535461" stroke-miterlimit="10" stroke-width="2"/>
      <path id="Path_7562" data-name="Path 7562" d="M1101.751,689.027c-1.091,1.066-2.324,6.134-2.324,6.134s5.095-1.117,6.186-2.183a2.762,2.762,0,0,0-3.862-3.951Z" transform="translate(-808.336 -512.323)" fill="#268aca"/>
      <path id="Path_7563" data-name="Path 7563" d="M1074.185,695.026c-.336,1.488,1.383,6.412,1.383,6.412s3.669-3.706,4.006-5.194a2.762,2.762,0,1,0-5.388-1.218Z" transform="translate(-790.005 -515.681)" fill="#268aca"/>
      <path id="Path_7564" data-name="Path 7564" d="M1036.914,728.439c.461,1.454,4.43,4.837,4.43,4.837s1.3-5.052.836-6.506a2.762,2.762,0,1,0-5.266,1.669Z" transform="translate(-762.922 -538.858)" fill="#268aca"/>
      <path id="Path_7565" data-name="Path 7565" d="M1015.5,764.116c.208,1.511,3.549,5.516,3.549,5.516s2.132-4.76,1.923-6.271a2.762,2.762,0,1,0-5.473.755Z" transform="translate(-747.472 -565.055)" fill="#268aca"/>
      <path id="Path_7566" data-name="Path 7566" d="M1077.811,725.293c-1.525-.04-5.876-2.916-5.876-2.916s4.494-2.646,6.019-2.607a2.762,2.762,0,0,1-.143,5.523Z" transform="translate(-788.405 -535.18)" fill="#268aca"/>
      <path id="Path_7567" data-name="Path 7567" d="M1054.946,765.748c-1.443-.494-4.734-4.54-4.734-4.54s5.08-1.181,6.523-.686a2.762,2.762,0,0,1-1.789,5.227Z" transform="translate(-772.656 -564.637)" fill="#268aca"/>
      <path id="Path_7568" data-name="Path 7568" d="M1022.62,800.835c-1.506-.243-5.433-3.675-5.433-3.675s4.807-2.022,6.314-1.779a2.762,2.762,0,1,1-.88,5.454Z" transform="translate(-748.714 -589.982)" fill="#268aca"/>
      <path id="Path_7569" data-name="Path 7569" d="M315.207,74.739c-15.191-.527-29.66-5.432-43.476-10.8s-27.5-11.31-42.329-14.153c-9.537-1.829-20.443-2.087-28.127,3.026-7.395,4.92-9.784,13.414-11.069,21.3-.967,5.929-1.535,12.17,1.114,17.721,1.839,3.854,5.1,7.093,7.361,10.785,7.855,12.845,2.3,28.684-6.21,41.225-3.993,5.883-8.625,11.5-11.706,17.758s-4.507,13.439-1.811,19.827c2.672,6.332,9.04,11.088,15.938,14.434,14.01,6.794,30.52,8.739,46.619,9.84,35.637,2.438,71.465,1.382,107.2.325,13.223-.391,26.505-.788,39.514-2.832,7.224-1.135,14.682-2.938,19.927-7.288,6.658-5.523,8.308-14.876,3.847-21.8-7.483-11.617-28.173-14.5-33.4-26.969-2.879-6.862.078-14.506,4.261-20.87,8.975-13.653,24.019-25.63,24.812-41.235.544-10.718-6.688-21.452-17.87-26.523-11.721-5.316-27.975-4.647-36.622,4.152C344.268,71.718,328.62,75.2,315.207,74.739Z" transform="translate(-139.98 -48.59)" fill="#268aca" opacity="0.1"/>
      <ellipse id="Ellipse_130" data-name="Ellipse 130" cx="10.329" cy="10.964" rx="10.329" ry="10.964" transform="translate(138.888 171.797)" fill="#fbd56f"/>
      <ellipse id="Ellipse_131" data-name="Ellipse 131" cx="10.329" cy="10.964" rx="10.329" ry="10.964" transform="translate(138.888 171.797)" opacity="0.1"/>
      <ellipse id="Ellipse_132" data-name="Ellipse 132" cx="10.329" cy="10.72" rx="10.329" ry="10.72" transform="translate(140.67 172.286)" fill="#fbd56f"/>
      <path id="Path_7570" data-name="Path 7570" d="M601.446,747.111l-1.074-.6a13.015,13.015,0,0,0-.338,3.592.745.745,0,0,0,.56.643c2.472.614,14.252,3.229,22.352-.454a.743.743,0,0,0,.431-.6,11.13,11.13,0,0,0-.393-3.183C622.68,745.718,601.446,747.111,601.446,747.111Z" transform="translate(-446.263 -554.391)" fill="#fbd56f"/>
      <path id="Path_7571" data-name="Path 7571" d="M601.446,747.111l-1.074-.6a13.015,13.015,0,0,0-.338,3.592.745.745,0,0,0,.56.643c2.472.614,14.252,3.229,22.352-.454a.743.743,0,0,0,.431-.6,11.13,11.13,0,0,0-.393-3.183C622.68,745.718,601.446,747.111,601.446,747.111Z" transform="translate(-446.263 -554.391)" opacity="0.1"/>
      <ellipse id="Ellipse_133" data-name="Ellipse 133" cx="11.306" cy="2.548" rx="11.306" ry="2.548" transform="translate(154.109 189.573)" fill="#fbd56f"/>
      <path id="Path_7572" data-name="Path 7572" d="M617.151,733.44l-1.074-.6a13.014,13.014,0,0,0-.338,3.592.744.744,0,0,0,.559.643c2.472.614,14.252,3.229,22.353-.454a.743.743,0,0,0,.43-.6,11.124,11.124,0,0,0-.393-3.183C638.386,732.047,617.151,733.44,617.151,733.44Z" transform="translate(-457.649 -544.48)" fill="#fbd56f"/>
      <path id="Path_7573" data-name="Path 7573" d="M617.151,733.44l-1.074-.6a13.014,13.014,0,0,0-.338,3.592.744.744,0,0,0,.559.643c2.472.614,14.252,3.229,22.353-.454a.743.743,0,0,0,.43-.6,11.124,11.124,0,0,0-.393-3.183C638.386,732.047,617.151,733.44,617.151,733.44Z" transform="translate(-457.649 -544.48)" opacity="0.1"/>
      <ellipse id="Ellipse_134" data-name="Ellipse 134" cx="11.306" cy="2.548" rx="11.306" ry="2.548" transform="translate(158.428 185.813)" fill="#fbd56f"/>
      <path id="Path_7574" data-name="Path 7574" d="M631.036,715.471l-1.074-.6a13.013,13.013,0,0,0-.338,3.592.744.744,0,0,0,.559.643c2.472.614,14.252,3.229,22.352-.454a.743.743,0,0,0,.431-.6,11.131,11.131,0,0,0-.393-3.183C652.271,714.078,631.036,715.471,631.036,715.471Z" transform="translate(-467.715 -531.453)" fill="#fbd56f"/>
      <path id="Path_7575" data-name="Path 7575" d="M631.036,715.471l-1.074-.6a13.013,13.013,0,0,0-.338,3.592.744.744,0,0,0,.559.643c2.472.614,14.252,3.229,22.352-.454a.743.743,0,0,0,.431-.6,11.131,11.131,0,0,0-.393-3.183C652.271,714.078,631.036,715.471,631.036,715.471Z" transform="translate(-467.715 -531.453)" opacity="0.1"/>
      <ellipse id="Ellipse_135" data-name="Ellipse 135" cx="11.306" cy="2.548" rx="11.306" ry="2.548" transform="translate(162.247 180.871)" fill="#fbd56f"/>
      <path id="Path_7576" data-name="Path 7576" d="M615.66,696.765l-1.074-.6a13.015,13.015,0,0,0-.338,3.592.745.745,0,0,0,.56.643c2.472.614,14.252,3.229,22.352-.454a.743.743,0,0,0,.431-.6,11.13,11.13,0,0,0-.393-3.183C636.894,695.372,615.66,696.765,615.66,696.765Z" transform="translate(-456.568 -517.892)" fill="#fbd56f"/>
      <path id="Path_7577" data-name="Path 7577" d="M615.66,696.765l-1.074-.6a13.015,13.015,0,0,0-.338,3.592.745.745,0,0,0,.56.643c2.472.614,14.252,3.229,22.352-.454a.743.743,0,0,0,.431-.6,11.13,11.13,0,0,0-.393-3.183C636.894,695.372,615.66,696.765,615.66,696.765Z" transform="translate(-456.568 -517.892)" opacity="0.1"/>
      <ellipse id="Ellipse_136" data-name="Ellipse 136" cx="11.306" cy="2.548" rx="11.306" ry="2.548" transform="translate(158.018 175.727)" fill="#fbd56f"/>
      <path id="Path_7578" data-name="Path 7578" d="M650.251,681.754l-1.074-.6a13.014,13.014,0,0,0-.338,3.592.744.744,0,0,0,.559.643c2.472.614,14.252,3.229,22.353-.454a.743.743,0,0,0,.431-.6,11.13,11.13,0,0,0-.393-3.183C671.486,680.361,650.251,681.754,650.251,681.754Z" transform="translate(-481.645 -507.009)" fill="#fbd56f"/>
      <path id="Path_7579" data-name="Path 7579" d="M650.251,681.754l-1.074-.6a13.014,13.014,0,0,0-.338,3.592.744.744,0,0,0,.559.643c2.472.614,14.252,3.229,22.353-.454a.743.743,0,0,0,.431-.6,11.13,11.13,0,0,0-.393-3.183C671.486,680.361,650.251,681.754,650.251,681.754Z" transform="translate(-481.645 -507.009)" opacity="0.1"/>
      <ellipse id="Ellipse_137" data-name="Ellipse 137" cx="11.306" cy="2.548" rx="11.306" ry="2.548" transform="translate(167.531 171.599)" fill="#fbd56f"/>
      <path id="Path_7580" data-name="Path 7580" d="M626.88,671.665l-1.074-.6a13.013,13.013,0,0,0-.338,3.592.745.745,0,0,0,.56.643c2.472.614,14.252,3.229,22.352-.454a.743.743,0,0,0,.431-.6,11.128,11.128,0,0,0-.393-3.183C648.114,670.272,626.88,671.665,626.88,671.665Z" transform="translate(-464.702 -499.694)" fill="#fbd56f"/>
      <path id="Path_7581" data-name="Path 7581" d="M626.88,671.665l-1.074-.6a13.013,13.013,0,0,0-.338,3.592.745.745,0,0,0,.56.643c2.472.614,14.252,3.229,22.352-.454a.743.743,0,0,0,.431-.6,11.128,11.128,0,0,0-.393-3.183C648.114,670.272,626.88,671.665,626.88,671.665Z" transform="translate(-464.702 -499.694)" opacity="0.1"/>
      <ellipse id="Ellipse_138" data-name="Ellipse 138" cx="11.306" cy="2.548" rx="11.306" ry="2.548" transform="translate(161.103 168.824)" fill="#fbd56f"/>
      <path id="Path_7582" data-name="Path 7582" d="M642.483,652.187l-1.074-.6a13.015,13.015,0,0,0-.338,3.592.745.745,0,0,0,.56.643c2.472.614,14.252,3.229,22.352-.454a.743.743,0,0,0,.431-.6,11.128,11.128,0,0,0-.393-3.183C663.718,650.794,642.483,652.187,642.483,652.187Z" transform="translate(-476.014 -485.573)" fill="#fbd56f"/>
      <path id="Path_7583" data-name="Path 7583" d="M642.483,652.187l-1.074-.6a13.015,13.015,0,0,0-.338,3.592.745.745,0,0,0,.56.643c2.472.614,14.252,3.229,22.352-.454a.743.743,0,0,0,.431-.6,11.128,11.128,0,0,0-.393-3.183C663.718,650.794,642.483,652.187,642.483,652.187Z" transform="translate(-476.014 -485.573)" opacity="0.1"/>
      <ellipse id="Ellipse_139" data-name="Ellipse 139" cx="11.306" cy="2.548" rx="11.306" ry="2.548" transform="translate(165.395 163.467)" fill="#fbd56f"/>
      <path id="Path_7584" data-name="Path 7584" d="M650.18,629.066l-1.074-.6a13.013,13.013,0,0,0-.338,3.592.745.745,0,0,0,.559.643c2.472.614,14.252,3.229,22.353-.454a.743.743,0,0,0,.431-.6,11.128,11.128,0,0,0-.393-3.183C671.415,627.674,650.18,629.066,650.18,629.066Z" transform="translate(-481.594 -468.811)" fill="#fbd56f"/>
      <path id="Path_7585" data-name="Path 7585" d="M650.18,629.066l-1.074-.6a13.013,13.013,0,0,0-.338,3.592.745.745,0,0,0,.559.643c2.472.614,14.252,3.229,22.353-.454a.743.743,0,0,0,.431-.6,11.128,11.128,0,0,0-.393-3.183C671.415,627.674,650.18,629.066,650.18,629.066Z" transform="translate(-481.594 -468.811)" opacity="0.1"/>
      <ellipse id="Ellipse_140" data-name="Ellipse 140" cx="11.306" cy="2.548" rx="11.306" ry="2.548" transform="translate(167.512 157.108)" fill="#fbd56f"/>
      <path id="Path_7586" data-name="Path 7586" d="M719.575,752.473l-1.074-.6a13.016,13.016,0,0,0-.338,3.592.745.745,0,0,0,.559.643c2.472.614,14.252,3.229,22.352-.454a.743.743,0,0,0,.431-.6,11.128,11.128,0,0,0-.393-3.183C740.809,751.08,719.575,752.473,719.575,752.473Z" transform="translate(-531.904 -558.279)" fill="#fbd56f"/>
      <path id="Path_7587" data-name="Path 7587" d="M719.575,752.473l-1.074-.6a13.016,13.016,0,0,0-.338,3.592.745.745,0,0,0,.559.643c2.472.614,14.252,3.229,22.352-.454a.743.743,0,0,0,.431-.6,11.128,11.128,0,0,0-.393-3.183C740.809,751.08,719.575,752.473,719.575,752.473Z" transform="translate(-531.904 -558.279)" opacity="0.1"/>
      <ellipse id="Ellipse_141" data-name="Ellipse 141" cx="11.306" cy="2.548" rx="11.306" ry="2.548" transform="translate(186.597 191.048)" fill="#fbd56f"/>
      <path id="Path_7588" data-name="Path 7588" d="M733.459,734.5l-1.074-.6a13.016,13.016,0,0,0-.338,3.592.745.745,0,0,0,.559.643c2.472.614,14.252,3.229,22.352-.454a.743.743,0,0,0,.43-.6,11.129,11.129,0,0,0-.393-3.183C754.694,733.112,733.459,734.5,733.459,734.5Z" transform="translate(-541.97 -545.252)" fill="#fbd56f"/>
      <path id="Path_7589" data-name="Path 7589" d="M733.459,734.5l-1.074-.6a13.016,13.016,0,0,0-.338,3.592.745.745,0,0,0,.559.643c2.472.614,14.252,3.229,22.352-.454a.743.743,0,0,0,.43-.6,11.129,11.129,0,0,0-.393-3.183C754.694,733.112,733.459,734.5,733.459,734.5Z" transform="translate(-541.97 -545.252)" opacity="0.1"/>
      <ellipse id="Ellipse_142" data-name="Ellipse 142" cx="11.306" cy="2.548" rx="11.306" ry="2.548" transform="translate(190.415 186.106)" fill="#fbd56f"/>
      <path id="Path_7590" data-name="Path 7590" d="M718.083,715.8l-1.074-.6a13.014,13.014,0,0,0-.338,3.591.744.744,0,0,0,.559.643c2.472.614,14.252,3.229,22.353-.454a.743.743,0,0,0,.431-.6,11.128,11.128,0,0,0-.393-3.183C739.318,714.406,718.083,715.8,718.083,715.8Z" transform="translate(-530.822 -531.691)" fill="#fbd56f"/>
      <path id="Path_7591" data-name="Path 7591" d="M718.083,715.8l-1.074-.6a13.014,13.014,0,0,0-.338,3.591.744.744,0,0,0,.559.643c2.472.614,14.252,3.229,22.353-.454a.743.743,0,0,0,.431-.6,11.128,11.128,0,0,0-.393-3.183C739.318,714.406,718.083,715.8,718.083,715.8Z" transform="translate(-530.822 -531.691)" opacity="0.1"/>
      <ellipse id="Ellipse_143" data-name="Ellipse 143" cx="11.306" cy="2.548" rx="11.306" ry="2.548" transform="translate(186.186 180.962)" fill="#fbd56f"/>
      <path id="Path_7592" data-name="Path 7592" d="M752.674,700.788l-1.074-.6a13.015,13.015,0,0,0-.338,3.592.745.745,0,0,0,.56.643c2.472.614,14.252,3.229,22.352-.454a.743.743,0,0,0,.431-.6,11.133,11.133,0,0,0-.393-3.183C773.909,699.4,752.674,700.788,752.674,700.788Z" transform="translate(-555.9 -520.808)" fill="#fbd56f"/>
      <path id="Path_7593" data-name="Path 7593" d="M752.674,700.788l-1.074-.6a13.015,13.015,0,0,0-.338,3.592.745.745,0,0,0,.56.643c2.472.614,14.252,3.229,22.352-.454a.743.743,0,0,0,.431-.6,11.133,11.133,0,0,0-.393-3.183C773.909,699.4,752.674,700.788,752.674,700.788Z" transform="translate(-555.9 -520.808)" opacity="0.1"/>
      <ellipse id="Ellipse_144" data-name="Ellipse 144" cx="11.306" cy="2.548" rx="11.306" ry="2.548" transform="translate(195.7 176.833)" fill="#fbd56f"/>
      <path id="Path_7594" data-name="Path 7594" d="M729.3,690.7l-1.074-.6a13.016,13.016,0,0,0-.338,3.592.745.745,0,0,0,.56.643c2.472.614,14.252,3.229,22.352-.454a.743.743,0,0,0,.431-.6,11.129,11.129,0,0,0-.393-3.183C750.538,689.305,729.3,690.7,729.3,690.7Z" transform="translate(-538.956 -513.493)" fill="#fbd56f"/>
      <path id="Path_7595" data-name="Path 7595" d="M729.3,690.7l-1.074-.6a13.016,13.016,0,0,0-.338,3.592.745.745,0,0,0,.56.643c2.472.614,14.252,3.229,22.352-.454a.743.743,0,0,0,.431-.6,11.129,11.129,0,0,0-.393-3.183C750.538,689.305,729.3,690.7,729.3,690.7Z" transform="translate(-538.956 -513.493)" opacity="0.1"/>
      <ellipse id="Ellipse_145" data-name="Ellipse 145" cx="11.306" cy="2.548" rx="11.306" ry="2.548" transform="translate(189.272 174.059)" fill="#fbd56f"/>
      <path id="Path_7596" data-name="Path 7596" d="M744.906,671.22l-1.074-.6a13.016,13.016,0,0,0-.338,3.592.744.744,0,0,0,.559.643c2.472.614,14.252,3.229,22.352-.454a.743.743,0,0,0,.431-.6,11.132,11.132,0,0,0-.393-3.183C766.141,669.827,744.906,671.22,744.906,671.22Z" transform="translate(-550.269 -499.372)" fill="#fbd56f"/>
      <path id="Path_7597" data-name="Path 7597" d="M744.906,671.22l-1.074-.6a13.016,13.016,0,0,0-.338,3.592.744.744,0,0,0,.559.643c2.472.614,14.252,3.229,22.352-.454a.743.743,0,0,0,.431-.6,11.132,11.132,0,0,0-.393-3.183C766.141,669.827,744.906,671.22,744.906,671.22Z" transform="translate(-550.269 -499.372)" opacity="0.1"/>
      <ellipse id="Ellipse_146" data-name="Ellipse 146" cx="11.306" cy="2.548" rx="11.306" ry="2.548" transform="translate(193.563 168.702)" fill="#fbd56f"/>
      <path id="Path_7598" data-name="Path 7598" d="M752.6,648.1l-1.074-.6a13.014,13.014,0,0,0-.338,3.592.744.744,0,0,0,.559.643c2.472.614,14.252,3.229,22.352-.454a.743.743,0,0,0,.43-.6,11.127,11.127,0,0,0-.393-3.183C773.838,646.708,752.6,648.1,752.6,648.1Z" transform="translate(-555.849 -482.611)" fill="#fbd56f"/>
      <path id="Path_7599" data-name="Path 7599" d="M752.6,648.1l-1.074-.6a13.014,13.014,0,0,0-.338,3.592.744.744,0,0,0,.559.643c2.472.614,14.252,3.229,22.352-.454a.743.743,0,0,0,.43-.6,11.127,11.127,0,0,0-.393-3.183C773.838,646.708,752.6,648.1,752.6,648.1Z" transform="translate(-555.849 -482.611)" opacity="0.1"/>
      <ellipse id="Ellipse_147" data-name="Ellipse 147" cx="11.306" cy="2.548" rx="11.306" ry="2.548" transform="translate(195.68 162.343)" fill="#fbd56f"/>
      <path id="Path_7600" data-name="Path 7600" d="M812.49,459.333c-1.574-.055-1.63-.666-3.653-1.719a20.966,20.966,0,0,1-4.169-3.712l-.3-.326.536-.011s-.506-4.437-.056-5.491.112-7.321.112-7.321.281-4.77-.225-5.879.169-8.208.169-8.208.45-4.215.562-12.812-4.946-8.874-4.946-8.874-.674-.052-1.7-.15l-.307-.03c.663-1.388,1.05-2.427,1.05-2.427s-.843-8.042-1.068-9.428-1.574-7.1-1.574-7.1-.956-2.44-1.518-4.16a14.037,14.037,0,0,0-2.248-3.716s-3.035-5.99-3.878-6.877c-.391-.411-.94-.931-1.415-1.369l-.247-.227a10.046,10.046,0,0,0,.2-1.9s-3.147-3.106-3.372-3.882-3.2-3.66-3.2-3.66-1.686-3.106-3.6-3.161a15.593,15.593,0,0,0-2.707.082c.392-1.453.857-2.974,1.273-4.28l.137-.427a9.625,9.625,0,0,0,3.453-4.176c.04-.09.076-.181.112-.272.02,0,.04,0,.061,0a1.513,1.513,0,0,0,.236-.021c.629-.108,1.162-.818.871-1.379a.206.206,0,0,0,.183.1c.21-.007.466-.31.515-.577.008-.046.013-.093.02-.14s.018-.116.025-.174.011-.109.015-.164.009-.113.012-.17,0-.106.005-.159,0-.122,0-.183,0-.1,0-.147c0-.074-.01-.148-.016-.223,0-.03,0-.061-.007-.091v0a4.98,4.98,0,0,0-.181-.894c-.311-1.031-.962-2.053-.711-3.1,0-.011.008-.022.011-.033v0a9.1,9.1,0,0,1,1.342-2.128c.041-.069.077-.141.113-.212.006-.013.014-.026.021-.039.026-.054.048-.109.071-.164.015-.035.031-.07.044-.106s.033-.1.049-.147.03-.089.042-.134.022-.087.032-.131.025-.106.035-.159c.007-.038.013-.077.019-.115.01-.061.018-.121.025-.182,0-.033.006-.066.009-.1.005-.068.009-.136.011-.2,0-.027,0-.055,0-.082q0-.112-.006-.224c0-.022,0-.045,0-.067-.006-.08-.014-.159-.024-.238,0-.011,0-.023,0-.034v0a4,4,0,0,0-.8-1.912,4.926,4.926,0,0,0-4.046-1.75,6.777,6.777,0,0,1-1.272.023,4.2,4.2,0,0,1-1.865-.985l-4.708-3.626a5.811,5.811,0,0,0-1.78-1.058,1.987,1.987,0,0,0-1.955.353c-.881.87-.321,2.367-.675,3.546a3.445,3.445,0,0,1-2.315,2.059c-1.022.345-2.115.421-3.164.671a1.746,1.746,0,0,0-.847.389,1.638,1.638,0,0,0-.368,1.179,6.358,6.358,0,0,0,.731,3c.2.377.439.757.65,1.143l.051.1c.024.044.047.089.07.133q.055.108.1.217c.014.031.027.063.041.094q.033.077.063.154c.013.033.025.066.036.1.021.061.04.122.057.183a2.029,2.029,0,0,1,.031,1.106,4.106,4.106,0,0,1-1.038,1.521,2.96,2.96,0,0,0-.694,1.286l0,.011a1.035,1.035,0,0,0-.013.339c0,.014,0,.028.007.042a.58.58,0,0,0,.021.074.5.5,0,0,0,.022.052.479.479,0,0,0,.029.057.442.442,0,0,0,.071.084.463.463,0,0,0,.039.029.482.482,0,0,0,.072.044c.016.008.031.015.048.021a.663.663,0,0,0,.115.031l.032.007a1.054,1.054,0,0,0,.181.008l.055,0a1.73,1.73,0,0,0,.173-.022l.063-.012a2.732,2.732,0,0,0,.265-.068,5.949,5.949,0,0,0,.918-.363c0,.034,0,.067,0,.1,0,.058,0,.119.006.177a9.349,9.349,0,0,0,.607,3.181,9.608,9.608,0,0,0,2.931,4.05q-.024.144-.054.289c-.271,1.33-.837,2.664-1.187,2.561a4.768,4.768,0,0,0-1.042-.114c-.106,0-.209,0-.307-.005h0a4.157,4.157,0,0,0-.955,0,1.036,1.036,0,0,1-.418-.058,5.7,5.7,0,0,0-2.808-.158c-1.944.4-4.9,1.127-5.71,2-1.236,1.331-3.035,2.607-5.058,8.153,0,0-1.012,3.383-1.8,3.827a5.243,5.243,0,0,1,.534-.24,1.424,1.424,0,0,1-.422.462,6.21,6.21,0,0,1,.885-.369c-.614,3.613.3,13.95.3,13.95s-.731,1.782.225,2.836a5.341,5.341,0,0,1,1.034,2.294l-.138.215h0c-.506.784-1.182,1.807-1.626,2.37-.787,1-.562,4.16-.562,4.16A4.4,4.4,0,0,1,744.82,396c-.562.555-.45,2.607-.45,2.607l-1.461,5.38s-1.349,1.22-1.349,1.775a7.289,7.289,0,0,1-1.068,2.108s-1.63,2.662,0,2.274a5.115,5.115,0,0,0,1.646-.827v.04q0,.146-.006.3c-.046,2.9.27,6.979,2.408,6.979,3.316,0,11.859,3.938,11.859,3.938a5.73,5.73,0,0,0,4.1.887s-4.159,4.16-4.047,5.879-2.361,4.548-2.361,4.548L746.45,446.8a11.443,11.443,0,0,0,.548,3.058c-.036.032-.074.062-.109.094-2.937,2.683-3.192,8-3.192,8l-.674,2.718,10.229,4.492s13.264.277,15.569-.333,1.8-3.161-1.237-3.66-3.766-1.83-4.777-2.44a47.951,47.951,0,0,1-4.61-4.757l-.066-.075.349-1.934c.674-.333,1.686-3.66,1.686-3.66s0-1.331.674-1.719,2.08-4.381,2.08-4.381,3.035-5.047,2.866-5.712,2.192-4.049,2.192-4.049,3.99-3.882,3.822-4.576,3.2-4.243,3.2-4.243a11.257,11.257,0,0,0,2.984-3.436c.3-.049.629-.1.973-.159,4.413-.723,11.747-2.031,12.566-2.395,1.124-.5.9,1.719.45,3.6s-.787,10.926-.281,12.091a7.283,7.283,0,0,1,.281,3.05l-.674,10.149.45,2.163s-1.518,1.22-.9,1.941.056,3.827.056,3.827c.053-.02.116-.039.187-.058-.054.122-.106.247-.152.378-.871,2.484-.372,6.557-.372,6.557v3.217s15.569.277,19,.277,8.15-1.664,8.431-2.995S814.063,459.388,812.49,459.333ZM768.21,401.6l-1.02.086A8.467,8.467,0,0,1,768.21,401.6Zm6.218-42.57c.143-.642.316-1.332.507-2.039Zm1.923,44.126a4.126,4.126,0,0,1-3.028,0l-.007,0a32.129,32.129,0,0,1,.506-5.491c.45-1.608,1.068-4.548,1.068-4.548a59.524,59.524,0,0,1,1.012-5.879c.506-1.83,2.473-12.035,3.485-12.7a1.066,1.066,0,0,1,1.574.5s.151,0,.4-.031q.071.16.161.34a83.525,83.525,0,0,0,4.718,7.4,8.1,8.1,0,0,1,2.585,2.551c.955,1.608,1.236,5.38,1.236,5.38s2.136,8.375,3.147,9.539c.506.582.281.93-.07,1.13a4.98,4.98,0,0,0-1.774,1.638c-.144.228-.3.479-.451.747-.387-.09-.733-.183-1.021-.28-2.754-.925-12.028-.962-13.545-.3Z" transform="translate(-547.591 -250.139)" fill="url(#linear-gradient)"/>
      <path id="Path_7601" data-name="Path 7601" d="M922.781,792.094v3.19s15.234.275,18.589.275,7.974-1.65,8.25-2.97-3.85-2.42-5.39-2.475-1.595-.66-3.575-1.7a20.606,20.606,0,0,1-4.08-3.68c-.976-1.064-1.695-1.929-1.695-1.929s-8.195-.165-10.559,1.155a2.861,2.861,0,0,0-1.176,1.638C922.293,788.055,922.781,792.094,922.781,792.094Z" transform="translate(-680.171 -580.871)" fill="#434175"/>
      <path id="Path_7602" data-name="Path 7602" d="M924.472,785.592c1.718-.6,11.777-.829,13.43-.863-.976-1.064-1.695-1.929-1.695-1.929s-8.195-.165-10.559,1.155A2.861,2.861,0,0,0,924.472,785.592Z" transform="translate(-681.498 -580.871)" opacity="0.1"/>
      <path id="Path_7603" data-name="Path 7603" d="M763.77,602.241l.889.537.333.2,1.292.779c6.912,4.165,25.767,15.457,26.8,15.367.271-.023,1.083-.145,2.205-.328.3-.048.616-.1.953-.157,4.318-.717,11.494-2.014,12.3-2.375,1.1-.5.88,1.7.44,3.575s-.77,10.834-.275,11.989a7.314,7.314,0,0,1,.275,3.025l-.66,10.064.44,2.145s-1.485,1.21-.88,1.925.055,3.795.055,3.795c1.76-.66,13.694-.88,13.694-.88s-.495-4.4-.055-5.445.11-7.26.11-7.26.275-4.73-.22-5.83.165-8.14.165-8.14.44-4.18.55-12.7-4.84-8.8-4.84-8.8-.66-.052-1.662-.148a73.742,73.742,0,0,1-7.409-1.022,12.362,12.362,0,0,1-1.323-.351c-2.695-.917-11.769-.954-13.254-.294a3.988,3.988,0,0,1-2.963,0l-.007,0-1.155-1.87-11.031.94-1.169.1-10.86.926-.747.064Z" transform="translate(-564.992 -448.38)" fill="#565387"/>
      <path id="Path_7604" data-name="Path 7604" d="M920.217,617.306c3.2,1.562,6.262-3.975,7.687-7.1a73.71,73.71,0,0,1-7.409-1.022C919.06,611.593,917.145,615.809,920.217,617.306Z" transform="translate(-677.222 -455.008)" opacity="0.1"/>
      <path id="Path_7605" data-name="Path 7605" d="M889.552,488.447a3.36,3.36,0,0,0,.388,1.076,82.971,82.971,0,0,0,4.616,7.339,7.973,7.973,0,0,1,2.53,2.53c.935,1.595,1.21,5.335,1.21,5.335s2.09,8.3,3.08,9.459c.495.578.275.922-.068,1.121a4.9,4.9,0,0,0-1.736,1.625c-1.442,2.319-3.744,6.917-.506,8.5,4.4,2.145,8.525-9.1,8.525-9.1s-.825-7.975-1.045-9.349-1.54-7.04-1.54-7.04-.935-2.42-1.485-4.125a13.948,13.948,0,0,0-2.2-3.685s-2.97-5.94-3.795-6.82c-.383-.408-.92-.923-1.385-1.357-.538-.5-.98-.9-.98-.9S889.5,487.127,889.552,488.447Z" transform="translate(-656.181 -363.569)" fill="#ee8e9e"/>
      <path id="Path_7606" data-name="Path 7606" d="M753.971,782.16l10.009,4.455s12.979.275,15.234-.33,1.76-3.135-1.21-3.63-3.685-1.815-4.675-2.42a47.256,47.256,0,0,1-4.511-4.718c-.708-.805-1.209-1.387-1.209-1.387s-1.925-5.115-7.26-3.96a5.467,5.467,0,0,0-2.6,1.366c-2.874,2.661-3.124,7.928-3.124,7.928Z" transform="translate(-557.888 -571.597)" fill="#434175"/>
      <path id="Path_7607" data-name="Path 7607" d="M768.213,602.4l1.292.779c6.912,4.165,25.767,15.457,26.8,15.367.271-.023,1.083-.145,2.205-.328.3-.048.616-.1.953-.157.013-.021.025-.042.037-.063a12.64,12.64,0,0,0,1.259-3.082c1.155-4.4-4.565-7.755-4.565-7.755l-1.21-.94c-1.375-2.315-11.274-4.5-11.274-4.5l-1.276-.857-.681-.458-.179-.12-1.549-1.041-7.755.55-2.3,1.481-.243.156-.855.55Z" transform="translate(-568.214 -447.8)" opacity="0.1"/>
      <path id="Path_7608" data-name="Path 7608" d="M767.729,771.537c2.105,7.282,10.9,4.9,10.9,4.9l.164-.923c-.708-.805-1.209-1.387-1.209-1.387s-1.925-5.115-7.26-3.96A5.467,5.467,0,0,0,767.729,771.537Z" transform="translate(-567.863 -571.597)" opacity="0.1"/>
      <path id="Path_7609" data-name="Path 7609" d="M753.149,615.275c3.245,0,11.6,3.9,11.6,3.9a5.544,5.544,0,0,0,4.015.88s-4.07,4.125-3.96,5.83-2.31,4.51-2.31,4.51l-7.48,14.794c.55,10.5,11.329,7.59,11.329,7.59l.44-2.475c.66-.33,1.65-3.63,1.65-3.63s0-1.32.66-1.7,2.035-4.345,2.035-4.345,2.97-5,2.8-5.665,2.145-4.015,2.145-4.015,3.9-3.85,3.74-4.537,3.135-4.207,3.135-4.207a11.106,11.106,0,0,0,2.92-3.408,12.641,12.641,0,0,0,1.259-3.082c.931-3.543-2.6-6.409-4.007-7.389-.341-.238-.558-.365-.558-.365l-1.21-.94c-.625-1.054-3.014-2.08-5.433-2.886-1.745-.582-3.505-1.049-4.631-1.33-.745-.185-1.211-.288-1.211-.288l-1.276-.857-.449-.3-.411-.276-1.549-1.041-3.451.244-4.3.306-2.3,1.481-1.1.706-4.3,2.763s-.113,1.058-.15,2.478c0,.11,0,.221-.007.336C750.748,611.23,751.057,615.275,753.149,615.275Z" transform="translate(-555.581 -448.38)" fill="#565387"/>
      <path id="Path_7610" data-name="Path 7610" d="M819.562,417.378l1.155,4.125s2.035,7.095,2.255,7.59a78.249,78.249,0,0,0,5.775,5.61c.22.11,3.125,1.76,3.125,1.76s.23-9.074.01-11.714a7.537,7.537,0,0,1,.143-1.729A65.032,65.032,0,0,1,834,415.579c.616-1.958,1.127-3.426,1.127-3.426s-12.869-.55-12.429.715a4.517,4.517,0,0,1-.048,2.08c-.265,1.319-.819,2.642-1.161,2.54a4.6,4.6,0,0,0-1.02-.113C819.992,417.36,819.562,417.378,819.562,417.378Z" transform="translate(-605.441 -312.079)" fill="#ee8e9e"/>
      <path id="Path_7611" data-name="Path 7611" d="M830.785,414.948a9.518,9.518,0,0,0,11.35.631c.616-1.958,1.127-3.426,1.127-3.426s-12.869-.55-12.429.715A4.52,4.52,0,0,1,830.785,414.948Z" transform="translate(-613.577 -312.079)" opacity="0.1"/>
      <path id="Path_7612" data-name="Path 7612" d="M837.4,369.8a9.478,9.478,0,0,1-.476,2.97q-.119.371-.275.729a9.515,9.515,0,0,1-17.678-.368,9.379,9.379,0,0,1-.594-3.155c-.005-.058-.005-.118-.005-.176a9.514,9.514,0,0,1,19.029,0Z" transform="translate(-604.574 -274.56)" fill="#ee8e9e"/>
      <path id="Path_7613" data-name="Path 7613" d="M819.562,431.44l1.155,4.125s2.035,7.095,2.255,7.59a78.238,78.238,0,0,0,5.775,5.61c.22.11,3.125,1.76,3.125,1.76s.23-9.075.01-11.714a7.537,7.537,0,0,1,.143-1.729l-.748,3.049.055,6.1.44.33-.99,1.485v-1.1s-3.52-3.41-4.07-4.84a24,24,0,0,0-2.53-4.019,32.62,32.62,0,0,1-2.31-4.45,7.1,7.1,0,0,0-1.4-2.2C819.992,431.423,819.562,431.44,819.562,431.44Z" transform="translate(-605.441 -326.142)" opacity="0.1"/>
      <path id="Path_7614" data-name="Path 7614" d="M889.552,488.447a3.36,3.36,0,0,0,.388,1.076,6.787,6.787,0,0,0,6.2-5.568c-.538-.5-.98-.9-.98-.9S889.5,487.127,889.552,488.447Z" transform="translate(-656.181 -363.569)" opacity="0.1"/>
      <path id="Path_7615" data-name="Path 7615" d="M750.8,608.355c1.11-.785,2.166-1.857,2.8-2.154a12.147,12.147,0,0,0,2.365-1.87s.363-.246.92-.573a11.115,11.115,0,0,1,3.975-1.572c1.148-.1,4.963-.34,7.964-.527,2.171-.136,3.916-.243,3.916-.243s3.575-1.265,5.115-.44a16.16,16.16,0,0,0,3.465,1.265s0-.12.007-.327l-.007,0-1.155-1.87-12.2,1.041-1.549-1.041-7.755.55-2.3,1.481-1.987.169.889.537-4.3,2.763S750.828,606.77,750.8,608.355Z" transform="translate(-555.592 -448.38)" opacity="0.1"/>
      <path id="Path_7616" data-name="Path 7616" d="M743.1,485.763a4.978,4.978,0,0,0,1.61-.821h0c1.108-.784,2.16-1.852,2.789-2.148a12.148,12.148,0,0,0,2.365-1.87s2.915-1.98,4.895-2.145c.54-.045,1.669-.123,3.025-.211,1.388-.092,3.013-.2,4.49-.287l2.331-.146,2.034-.125s3.575-1.265,5.115-.44a16.158,16.158,0,0,0,3.465,1.265,32.274,32.274,0,0,1,.495-5.445c.44-1.595,1.045-4.51,1.045-4.51s.495-4.015.99-5.83,2.42-11.934,3.41-12.594,1.54.495,1.54.495,6.6-.11,6.71-7.37c0,0-3.08-3.08-3.3-3.85s-3.135-3.63-3.135-3.63-1.65-3.08-3.52-3.135a15.044,15.044,0,0,0-2.649.081l-1.586,6.463.055,6.1.44.33-.99,1.485v-1.1s-3.52-3.41-4.07-4.84a24,24,0,0,0-2.53-4.019,32.617,32.617,0,0,1-2.31-4.45c-.055-.66-1.595-2.429-1.595-2.429a4.012,4.012,0,0,0-.935,0,1,1,0,0,1-.409-.057,5.508,5.508,0,0,0-2.748-.156c-1.9.395-4.795,1.117-5.588,1.982-1.21,1.32-2.97,2.585-4.95,8.085l10.669,3.85-.913,1.736-8.491,16.138s-.282.459-.663,1.058h0c-.495.778-1.157,1.792-1.592,2.351-.77.99-.55,4.125-.55,4.125a4.4,4.4,0,0,1-.715,2.035c-.55.55-.44,2.585-.44,2.585l-1.43,5.335s-1.32,1.21-1.32,1.76a7.264,7.264,0,0,1-1.045,2.09S741.509,486.148,743.1,485.763Z" transform="translate(-549.496 -325.302)" fill="#434175"/>
      <path id="Path_7617" data-name="Path 7617" d="M937.857,646.435s-3.465,1.155-4.4,2.8S937.857,646.435,937.857,646.435Z" transform="translate(-687.932 -482.015)" opacity="0.1"/>
      <path id="Path_7618" data-name="Path 7618" d="M931.568,633.237c-.11.165-4.745,4.816-4.455,5.94S931.568,633.237,931.568,633.237Z" transform="translate(-683.403 -472.446)" opacity="0.1"/>
      <path id="Path_7619" data-name="Path 7619" d="M835.91,645.235s-5.17,2.438-5.61,3.5S835.91,645.235,835.91,645.235Z" transform="translate(-613.209 -481.145)" opacity="0.1"/>
      <path id="Path_7620" data-name="Path 7620" d="M835.454,656.634s-4.665,1.98-5.3,2.475S835.454,656.634,835.454,656.634Z" transform="translate(-613.083 -489.408)" opacity="0.1"/>
      <path id="Path_7621" data-name="Path 7621" d="M832.807,671.217s-2.066,1.54-3.205.33S832.807,671.217,832.807,671.217Z" transform="translate(-612.581 -499.757)" opacity="0.1"/>
      <path id="Path_7622" data-name="Path 7622" d="M846.21,526.051c-.111.165-6.986,12.539-8.8,13.474S846.21,526.051,846.21,526.051Z" transform="translate(-618.228 -394.739)" opacity="0.1"/>
      <path id="Path_7623" data-name="Path 7623" d="M847.921,543.049c0,.275-6.71,14.629-7.81,14.794S847.921,543.049,847.921,543.049Z" transform="translate(-620.27 -407.062)" opacity="0.1"/>
      <path id="Path_7624" data-name="Path 7624" d="M763.6,576.644s-3.241,6.92-4.51,7.315S763.6,576.644,763.6,576.644Z" transform="translate(-561.468 -431.418)" opacity="0.1"/>
      <path id="Path_7625" data-name="Path 7625" d="M768.923,565.446s-1.117,2.42-1.8,2.42S768.923,565.446,768.923,565.446Z" transform="translate(-567.341 -423.299)" opacity="0.1"/>
      <path id="Path_7626" data-name="Path 7626" d="M837.4,369.8a9.475,9.475,0,0,1-.476,2.97,7.745,7.745,0,0,1-.275.729,2.8,2.8,0,0,1-1.334-.586,3.3,3.3,0,0,1-1-1.067,13.388,13.388,0,0,1-.487-1.389,3.231,3.231,0,0,0-2.61-1.977,1.014,1.014,0,0,1-.806,1.375,1.968,1.968,0,0,1-1.647-.734c-.426-.459-.734-1.018-1.158-1.477a1.968,1.968,0,0,0-1.647-.734,3.768,3.768,0,0,0-1.43.811,1.377,1.377,0,0,1-1.54.187c-.248-.184-.369-.5-.605-.7-.608-.509-1.554.016-2,.674a5.315,5.315,0,0,1-2.008,2.093c-.005-.058-.005-.118-.005-.176a9.514,9.514,0,0,1,19.029,0Z" transform="translate(-604.574 -274.56)" opacity="0.1"/>
      <path id="Path_7627" data-name="Path 7627" d="M814.7,346.242c.448-.658,1.393-1.184,2-.672.237.2.357.512.6.7a1.376,1.376,0,0,0,1.541-.188,3.746,3.746,0,0,1,1.429-.811,1.963,1.963,0,0,1,1.647.734c.425.46.733,1.017,1.158,1.477a1.962,1.962,0,0,0,1.647.733,1.012,1.012,0,0,0,.805-1.374,3.232,3.232,0,0,1,2.609,1.977,13.4,13.4,0,0,0,.487,1.389,3.293,3.293,0,0,0,1,1.066,2.366,2.366,0,0,0,1.733.575c.616-.107,1.138-.814.852-1.37.2.3.62-.118.684-.47a5.029,5.029,0,0,0-.127-2.321c-.3-1.022-.941-2.036-.7-3.074a8.63,8.63,0,0,1,1.323-2.141,3.869,3.869,0,0,0-.364-4.214,4.792,4.792,0,0,0-3.959-1.735,6.545,6.545,0,0,1-1.245.023,4.094,4.094,0,0,1-1.825-.977l-4.607-3.6a5.667,5.667,0,0,0-1.741-1.049,1.925,1.925,0,0,0-1.913.35c-.862.863-.314,2.347-.661,3.517a3.387,3.387,0,0,1-2.265,2.042c-1,.342-2.069.417-3.1.665a1.7,1.7,0,0,0-.828.386,1.639,1.639,0,0,0-.36,1.169,6.373,6.373,0,0,0,.715,2.974c.533,1.026,1.379,2.08,1.08,3.2a4.075,4.075,0,0,1-1.015,1.508c-.871,1-1.164,2.481.474,1.964C813.365,348.2,813.808,347.551,814.7,346.242Z" transform="translate(-598.891 -253.197)" fill="#434175"/>
      <g id="Group_12335" data-name="Group 12335" transform="translate(211.644 85.419)" opacity="0.1">
        <path id="Path_7628" data-name="Path 7628" d="M833.116,384.122c-.064.352-.487.769-.684.47.286.556-.235,1.263-.852,1.37a2.367,2.367,0,0,1-1.733-.575,3.294,3.294,0,0,1-1-1.066,13.4,13.4,0,0,1-.487-1.389,3.232,3.232,0,0,0-2.609-1.977,1.011,1.011,0,0,1-.805,1.374,1.962,1.962,0,0,1-1.647-.733c-.425-.46-.733-1.017-1.158-1.477a1.963,1.963,0,0,0-1.647-.734,3.745,3.745,0,0,0-1.429.811,1.376,1.376,0,0,1-1.541.188c-.247-.186-.367-.5-.6-.7-.609-.511-1.555.015-2,.672-.89,1.309-1.333,1.954-2.911,2.452-.518.163-.842.126-1.016-.031-.346.8-.189,1.5,1.016,1.115,1.578-.5,2.021-1.143,2.911-2.452.448-.658,1.393-1.184,2-.672.237.2.357.512.6.7a1.376,1.376,0,0,0,1.541-.188,3.745,3.745,0,0,1,1.429-.811,1.963,1.963,0,0,1,1.647.734c.425.46.733,1.017,1.158,1.477a1.962,1.962,0,0,0,1.647.733,1.012,1.012,0,0,0,.805-1.374,3.232,3.232,0,0,1,2.609,1.977,13.393,13.393,0,0,0,.487,1.389,3.294,3.294,0,0,0,1,1.066,2.367,2.367,0,0,0,1.733.575c.616-.107,1.138-.814.852-1.37.2.3.62-.118.684-.47a5.024,5.024,0,0,0,.05-1.439C833.153,383.887,833.137,384.005,833.116,384.122Z" transform="translate(-810.753 -373.818)"/>
        <path id="Path_7629" data-name="Path 7629" d="M812.333,364.744c0-.014.01-.027.014-.042.3-1.117-.546-2.171-1.08-3.2a6.375,6.375,0,0,1-.684-2.323,3.088,3.088,0,0,0-.031.433,6.373,6.373,0,0,0,.715,2.974A11.2,11.2,0,0,1,812.333,364.744Z" transform="translate(-810.552 -359.182)"/>
        <path id="Path_7630" data-name="Path 7630" d="M890.055,365.986a8.626,8.626,0,0,0-1.323,2.141,2.389,2.389,0,0,0,.01,1.054,9.042,9.042,0,0,1,1.313-2.11,3.614,3.614,0,0,0,.423-2.322A3.4,3.4,0,0,1,890.055,365.986Z" transform="translate(-867.192 -363.217)"/>
      </g>
      <path id="Path_7631" data-name="Path 7631" d="M770.757,504.765h0a8.378,8.378,0,0,1,.168.921s4.345,10.174,4.895,10.779c.169.186.807,1.1,1.609,2.279.29.426.6.887.921,1.36,1.663,2.468,3.52,5.271,3.52,5.271l4.07,3.575s8.853.708,11.667-2.165c-.341-.238-.558-.365-.558-.365l-1.21-.94c-.625-1.054-3.014-2.08-5.433-2.886-2.228.016-4.051.2-4.051.2l-.58-1.527-.605-1.593-3.077-8.1s-1.984-10.229-2.644-10.724-.495-2.035-.495-2.035,1.21-4.345.77-4.95.715-5.06.715-5.06a4.617,4.617,0,0,0-.528-1.234l-8.492,16.138S771.139,504.165,770.757,504.765Z" transform="translate(-570.058 -366.84)" opacity="0.1"/>
      <path id="Path_7632" data-name="Path 7632" d="M776.348,478.546s-1.155,4.455-.715,5.06-.77,4.95-.77,4.95-.165,1.54.495,2.035S778,501.315,778,501.315l4.261,11.219s13.334-1.32,11.959,2.86-12.374,3.3-12.374,3.3l-4.07-3.575s-5.5-8.3-6.05-8.909-4.895-10.779-4.895-10.779a6.576,6.576,0,0,0-1.155-3.08c-.935-1.045-.22-2.812-.22-2.812s-1.155-13.3.055-14.9S775.083,473.762,776.348,478.546Z" transform="translate(-565.856 -356.914)" fill="#ee8e9e"/>
      <path id="Path_7633" data-name="Path 7633" d="M767.795,458.463l-3.465,2.09s-.99,3.355-1.76,3.795c0,0,6.93-3.85,12.154,5a2,2,0,0,1,.55-1.7c.715-.55.55-2.915.55-2.915a9.524,9.524,0,0,0,.495-1.155C776.814,462.368,774.229,455.438,767.795,458.463Z" transform="translate(-564.122 -345.19)" opacity="0.1"/>
      <path id="Path_7634" data-name="Path 7634" d="M767.395,457.663l-3.465,2.09s-.99,3.355-1.76,3.795c0,0,6.93-3.85,12.154,5a2,2,0,0,1,.55-1.7c.715-.55.55-2.915.55-2.915a9.525,9.525,0,0,0,.495-1.155C776.414,461.568,773.829,454.639,767.395,457.663Z" transform="translate(-563.832 -344.61)" fill="#434175"/>
      <ellipse id="Ellipse_148" data-name="Ellipse 148" cx="10.329" cy="10.964" rx="10.329" ry="10.964" transform="translate(162.351 187.44)" fill="#fbd56f"/>
      <ellipse id="Ellipse_149" data-name="Ellipse 149" cx="10.329" cy="10.964" rx="10.329" ry="10.964" transform="translate(162.351 187.44)" opacity="0.1"/>
      <ellipse id="Ellipse_150" data-name="Ellipse 150" cx="10.329" cy="10.72" rx="10.329" ry="10.72" transform="translate(164.134 187.928)" fill="#fbd56f"/>
      <ellipse id="Ellipse_151" data-name="Ellipse 151" cx="12.757" cy="2.157" rx="12.757" ry="2.157" transform="translate(12.034 200.116)" fill="#268aca"/>
      <path id="Path_7635" data-name="Path 7635" d="M119.2,755.746a3.7,3.7,0,0,0,1.216-1.836,1.632,1.632,0,0,0-.85-1.869,2.389,2.389,0,0,0-2.247.789,3,3,0,0,1-2.185,1.054,3.326,3.326,0,0,0,1.029-3.113,1.3,1.3,0,0,0-.286-.632c-.433-.463-1.219-.264-1.738.1-1.65,1.161-2.11,3.4-2.119,5.419a10.251,10.251,0,0,1-.03-2.232,2.29,2.29,0,0,0-.838-1.975,2.526,2.526,0,0,0-1.279-.3,2.645,2.645,0,0,0-2.074.589,2.062,2.062,0,0,0,.081,2.547,8.039,8.039,0,0,0,2.147,1.719,4.759,4.759,0,0,1,1.534,1.463,1.447,1.447,0,0,1,.114.261h4.65A12.958,12.958,0,0,0,119.2,755.746Z" transform="translate(-89.134 -557.002)" fill="#268aca"/>
      <path id="Path_7636" data-name="Path 7636" d="M517.372,727.855a11.119,11.119,0,0,1,1.383,2.525c.092.232.183.476.268.732,1.374,4.108-.8,9.033-1.426,8.5s-2.563-1.517-2.938-.132a7.948,7.948,0,0,1-1.761,2.8c-2.525,2.539-4.81-.2-6.31-3.039a27.442,27.442,0,0,1-1.305-2.884c-.333-.871-.524-1.472-.524-1.472l10.516-8.96A6.226,6.226,0,0,1,517.372,727.855Z" transform="translate(-377.215 -539.645)" fill="#268aca"/>
      <path id="Path_7637" data-name="Path 7637" d="M457.108,748.687a11.118,11.118,0,0,1,1.383,2.525c.092.232.183.476.268.732,1.374,4.107-.8,9.033-1.426,8.5s-2.563-1.517-2.938-.132a7.949,7.949,0,0,1-1.761,2.8c-2.525,2.539-4.81-.2-6.31-3.039a27.464,27.464,0,0,1-1.305-2.884c-.333-.871-.524-1.472-.524-1.472l10.516-8.96A6.224,6.224,0,0,1,457.108,748.687Z" transform="translate(-333.525 -554.748)" fill="#268aca"/>
      <path id="Path_7638" data-name="Path 7638" d="M327.434,775.107a11.123,11.123,0,0,1-.547,2.826c-.077.238-.163.483-.261.735-1.563,4.039-6.383,6.442-6.524,5.635s-1-2.8-2.178-1.976a7.948,7.948,0,0,1-3.143,1.033c-3.564.344-3.573-3.227-2.918-6.367a27.458,27.458,0,0,1,.836-3.053c.3-.883.536-1.468.536-1.468l13.814-.187A6.225,6.225,0,0,1,327.434,775.107Z" transform="translate(-237.13 -573.253)" fill="#268aca"/>
      <path id="Path_7639" data-name="Path 7639" d="M262.535,758.739a11.118,11.118,0,0,1-.547,2.826c-.077.238-.163.483-.261.735-1.563,4.039-6.383,6.442-6.524,5.635s-1-2.8-2.178-1.976a7.95,7.95,0,0,1-3.143,1.033c-3.564.344-3.573-3.227-2.919-6.367a27.462,27.462,0,0,1,.836-3.053c.3-.883.536-1.468.536-1.468l13.814-.187A6.225,6.225,0,0,1,262.535,758.739Z" transform="translate(-190.079 -561.386)" fill="#268aca"/>
      <path id="Path_7640" data-name="Path 7640" d="M517.372,727.855a11.119,11.119,0,0,1,1.383,2.525c.092.232.183.476.268.732,1.374,4.108-.8,9.033-1.426,8.5s-2.563-1.517-2.938-.132a7.948,7.948,0,0,1-1.761,2.8c-2.525,2.539-4.81-.2-6.31-3.039a27.442,27.442,0,0,1-1.305-2.884c-.333-.871-.524-1.472-.524-1.472l10.516-8.96A6.226,6.226,0,0,1,517.372,727.855Z" transform="translate(-377.215 -539.645)" opacity="0.2" style="isolation: isolate"/>
      <path id="Path_7641" data-name="Path 7641" d="M457.108,748.687a11.118,11.118,0,0,1,1.383,2.525c.092.232.183.476.268.732,1.374,4.107-.8,9.033-1.426,8.5s-2.563-1.517-2.938-.132a7.949,7.949,0,0,1-1.761,2.8c-2.525,2.539-4.81-.2-6.31-3.039a27.464,27.464,0,0,1-1.305-2.884c-.333-.871-.524-1.472-.524-1.472l10.516-8.96A6.224,6.224,0,0,1,457.108,748.687Z" transform="translate(-333.525 -554.748)" opacity="0.2" style="isolation: isolate"/>
      <path id="Path_7642" data-name="Path 7642" d="M327.434,775.107a11.123,11.123,0,0,1-.547,2.826c-.077.238-.163.483-.261.735-1.563,4.039-6.383,6.442-6.524,5.635s-1-2.8-2.178-1.976a7.948,7.948,0,0,1-3.143,1.033c-3.564.344-3.573-3.227-2.918-6.367a27.458,27.458,0,0,1,.836-3.053c.3-.883.536-1.468.536-1.468l13.814-.187A6.225,6.225,0,0,1,327.434,775.107Z" transform="translate(-237.13 -573.253)" opacity="0.2" style="isolation: isolate"/>
      <path id="Path_7643" data-name="Path 7643" d="M262.535,758.739a11.118,11.118,0,0,1-.547,2.826c-.077.238-.163.483-.261.735-1.563,4.039-6.383,6.442-6.524,5.635s-1-2.8-2.178-1.976a7.95,7.95,0,0,1-3.143,1.033c-3.564.344-3.573-3.227-2.919-6.367a27.462,27.462,0,0,1,.836-3.053c.3-.883.536-1.468.536-1.468l13.814-.187A6.225,6.225,0,0,1,262.535,758.739Z" transform="translate(-190.079 -561.386)" opacity="0.2" style="isolation: isolate"/>
      <path id="Path_7644" data-name="Path 7644" d="M283.087,369.935c0,36.9-12.482,66.807-70.081,66.807-38.7,0-68.649-9.617-70.081-66.807C142,333.05,174.3,303.128,213.006,303.128S283.087,333.039,283.087,369.935Z" transform="translate(-114.879 -233.125)" fill="#268aca"/>
      <path id="Path_7645" data-name="Path 7645" d="M349.994,307.369H350l-.006,0Z" transform="translate(-265.014 -236.199)" opacity="0.2" style="isolation: isolate"/>
      <path id="Path_7646" data-name="Path 7646" d="M350.233,306.98c.178-.029.53-.078,1.042-.117l-1.14.135.061-.012Z" transform="translate(-265.116 -235.832)" opacity="0.2" style="isolation: isolate"/>
      <path id="Path_7647" data-name="Path 7647" d="M405.044,331.893l-5.115,1.842a114.26,114.26,0,0,0-8.4-10.018,82.1,82.1,0,0,0-10.642-9.533c-13.1-9.707-23.228-9.955-26.574-9.7l7.689-.9a62.518,62.518,0,0,1,20.644,7.462,68.2,68.2,0,0,1,12.406,9.165A60.662,60.662,0,0,1,405.044,331.893Z" transform="translate(-268.142 -233.448)" opacity="0.2" style="isolation: isolate"/>
      <path id="Path_7648" data-name="Path 7648" d="M361.865,343.128s-6.752-22.508-1.023-28.646c0,0,9-3.069,15.755,14.323Z" transform="translate(-271.207 -241.204)" opacity="0.2" style="isolation: isolate"/>
      <path id="Path_7649" data-name="Path 7649" d="M494.962,309.084s17.907-15.217,25.828-12.432c0,0,6.424,7.015-6.8,20.179Z" transform="translate(-370.112 -228.183)" fill="#268aca"/>
      <path id="Path_7650" data-name="Path 7650" d="M494.962,309.084s17.907-15.217,25.828-12.432c0,0,6.424,7.015-6.8,20.179Z" transform="translate(-370.112 -228.183)" opacity="0.2" style="isolation: isolate"/>
      <ellipse id="Ellipse_152" data-name="Ellipse 152" cx="4.502" cy="5.729" rx="4.502" ry="5.729" transform="translate(130.746 131.032)" fill="#1e6fa2"/>
      <ellipse id="Ellipse_153" data-name="Ellipse 153" cx="4.502" cy="5.729" rx="4.502" ry="5.729" transform="translate(146.706 126.121)" fill="#1e6fa2"/>
      <path id="Path_7653" data-name="Path 7653" d="M465.972,329.57a8.17,8.17,0,0,1-.874,3.7,7.852,7.852,0,0,1-3.524,3.515,82.09,82.09,0,0,0-10.642-9.533,8.021,8.021,0,0,1,1.76-3.147,7.544,7.544,0,0,1,5.594-2.507A7.835,7.835,0,0,1,465.972,329.57Z" transform="translate(-338.192 -246.512)" fill="#fad46f"/>
    </g>
  </g>
</svg>
