<svg xmlns="http://www.w3.org/2000/svg" width="334" height="334" viewBox="0 0 334 334">
  <g id="Group_12313" data-name="Group 12313" transform="translate(-225 -1502)">
    <circle id="Ellipse_51" data-name="Ellipse 51" cx="167" cy="167" r="167" transform="translate(225 1502)" fill="#268aca" opacity="0.116"/>
    <g id="Group_12312" data-name="Group 12312" transform="translate(-3 0.562)">
      <circle id="Ellipse_69" data-name="Ellipse 69" cx="112.844" cy="112.844" r="112.844" transform="translate(279.393 1555.438)" fill="#268aca"/>
      <path id="Path_7356" data-name="Path 7356" d="M506.408,437.274a82.365,82.365,0,1,1,58.241-24.124A82.364,82.364,0,0,1,506.408,437.274Zm0-159.651a77.285,77.285,0,1,0,77.285,77.285A77.373,77.373,0,0,0,506.408,277.624Z" transform="translate(-114.171 1313.373)" opacity="0.2"/>
      <circle id="Ellipse_70" data-name="Ellipse 70" cx="79.825" cy="79.825" r="79.825" transform="translate(312.412 1588.457)" fill="#3f3d56"/>
      <path id="Path_7357" data-name="Path 7357" d="M472.065,363.8a10.131,10.131,0,1,1,18.055-9.195l22.553,44.287a10.131,10.131,0,0,1-18.055,9.195Z" transform="translate(-139.192 1272.563)" fill="#ff6584"/>
      <path id="Path_7358" data-name="Path 7358" d="M477.527,378.371l-1.041-2.044a58.5,58.5,0,0,1,18.055-9.195l1.041,2.044C488.266,370.7,482.041,373.52,477.527,378.371Z" transform="translate(-142.139 1262.932)" opacity="0.2"/>
      <path id="Path_7359" data-name="Path 7359" d="M487.934,398.807l-1.041-2.044a58.5,58.5,0,0,1,18.055-9.195l1.041,2.044C498.672,391.136,492.448,393.956,487.934,398.807Z" transform="translate(-147.688 1252.035)" opacity="0.2"/>
      <path id="Path_7360" data-name="Path 7360" d="M498.341,419.242,497.3,417.2A58.5,58.5,0,0,1,515.355,408l1.041,2.044C509.079,411.571,502.854,414.391,498.341,419.242Z" transform="translate(-153.237 1241.138)" opacity="0.2"/>
      <path id="Path_7361" data-name="Path 7361" d="M508.747,439.677l-1.041-2.044a58.5,58.5,0,0,1,18.055-9.195l1.041,2.044C519.486,432.006,513.261,434.826,508.747,439.677Z" transform="translate(-158.786 1230.241)" opacity="0.2"/>
      <path id="Path_7362" data-name="Path 7362" d="M519.154,460.113l-1.041-2.044a58.5,58.5,0,0,1,18.055-9.195l1.041,2.044C529.892,452.442,523.667,455.262,519.154,460.113Z" transform="translate(-164.335 1219.345)" opacity="0.2"/>
      <path id="Path_7363" data-name="Path 7363" d="M435.816,399.319a10.131,10.131,0,1,1,18.055-9.195l22.553,44.287a10.131,10.131,0,1,1-18.055,9.195Z" transform="translate(-119.863 1253.624)" fill="#ff6584"/>
      <path id="Path_7364" data-name="Path 7364" d="M441.279,413.89l-1.041-2.044a58.5,58.5,0,0,1,18.055-9.195l1.041,2.044C452.018,406.219,445.793,409.039,441.279,413.89Z" transform="translate(-122.81 1243.992)" opacity="0.2"/>
      <path id="Path_7365" data-name="Path 7365" d="M451.686,434.326l-1.041-2.044a58.5,58.5,0,0,1,18.055-9.195l1.041,2.044C462.424,426.655,456.2,429.475,451.686,434.326Z" transform="translate(-128.36 1233.095)" opacity="0.2"/>
      <path id="Path_7366" data-name="Path 7366" d="M462.092,454.761l-1.041-2.044a58.5,58.5,0,0,1,18.055-9.195l1.041,2.044C472.831,447.09,466.606,449.91,462.092,454.761Z" transform="translate(-133.909 1222.198)" opacity="0.2"/>
      <path id="Path_7367" data-name="Path 7367" d="M472.5,475.2l-1.041-2.044a58.5,58.5,0,0,1,18.055-9.195L490.554,466C483.237,467.525,477.012,470.345,472.5,475.2Z" transform="translate(-139.458 1211.302)" opacity="0.2"/>
      <path id="Path_7368" data-name="Path 7368" d="M482.905,495.632l-1.041-2.044a58.5,58.5,0,0,1,18.055-9.195l1.041,2.044C493.644,487.961,487.419,490.781,482.905,495.632Z" transform="translate(-145.007 1200.405)" opacity="0.2"/>
      <path id="Path_7369" data-name="Path 7369" d="M640.577,383.986h.071a12.084,12.084,0,0,0,11.314-7.579,39.553,39.553,0,1,0-52.691,21.666,11.98,11.98,0,0,0,13.306-2.467A39.423,39.423,0,0,1,640.577,383.986Z" transform="translate(-195.002 1286.837)" fill="#e6e6e6"/>
      <circle id="Ellipse_71" data-name="Ellipse 71" cx="13.062" cy="13.062" r="13.062" transform="translate(412.193 1632.724)" fill="#f9a825"/>
      <circle id="Ellipse_72" data-name="Ellipse 72" cx="1.539" cy="1.539" r="1.539" transform="translate(395.328 1641.24)" fill="#3f3d56"/>
      <circle id="Ellipse_73" data-name="Ellipse 73" cx="1.539" cy="1.539" r="1.539" transform="translate(344.53 1642.691)" fill="#3f3d56"/>
      <circle id="Ellipse_74" data-name="Ellipse 74" cx="1.539" cy="1.539" r="1.539" transform="translate(403.529 1625.292)" fill="#3f3d56"/>
      <circle id="Ellipse_75" data-name="Ellipse 75" cx="1.539" cy="1.539" r="1.539" transform="translate(403.485 1669.646)" fill="#3f3d56"/>
      <circle id="Ellipse_76" data-name="Ellipse 76" cx="1.539" cy="1.539" r="1.539" transform="translate(433.964 1622.114)" fill="#3f3d56"/>
      <circle id="Ellipse_77" data-name="Ellipse 77" cx="1.539" cy="1.539" r="1.539" transform="translate(334.545 1664.203)" fill="#3f3d56"/>
      <circle id="Ellipse_78" data-name="Ellipse 78" cx="1.539" cy="1.539" r="1.539" transform="translate(345.793 1686.337)" fill="#3f3d56"/>
      <circle id="Ellipse_79" data-name="Ellipse 79" cx="5.805" cy="5.805" r="5.805" transform="translate(412.193 1684.973)" fill="#ff6584"/>
      <path id="Path_7370" data-name="Path 7370" d="M655.08,497.982a4.354,4.354,0,0,1-8.708,0" transform="translate(-232.727 1193.159)" opacity="0.2"/>
      <path id="Path_7371" data-name="Path 7371" d="M646.371,491.453a4.354,4.354,0,1,1,8.708,0" transform="translate(-232.727 1198.962)" opacity="0.2"/>
      <ellipse id="Ellipse_80" data-name="Ellipse 80" cx="0.363" cy="0.544" rx="0.363" ry="0.544" transform="translate(415.459 1688.238)" fill="#ff6584"/>
      <ellipse id="Ellipse_81" data-name="Ellipse 81" cx="0.363" cy="0.544" rx="0.363" ry="0.544" transform="translate(417.636 1687.513)" fill="#ff6584"/>
      <ellipse id="Ellipse_82" data-name="Ellipse 82" cx="0.363" cy="0.544" rx="0.363" ry="0.544" transform="translate(417.636 1692.23)" fill="#ff6584"/>
      <ellipse id="Ellipse_83" data-name="Ellipse 83" cx="0.363" cy="0.544" rx="0.363" ry="0.544" transform="translate(419.813 1689.327)" fill="#ff6584"/>
      <ellipse id="Ellipse_84" data-name="Ellipse 84" cx="0.363" cy="0.544" rx="0.363" ry="0.544" transform="translate(419.45 1693.318)" fill="#ff6584"/>
      <ellipse id="Ellipse_85" data-name="Ellipse 85" cx="0.363" cy="0.544" rx="0.363" ry="0.544" transform="translate(415.096 1691.504)" fill="#ff6584"/>
      <circle id="Ellipse_86" data-name="Ellipse 86" cx="5.805" cy="5.805" r="5.805" transform="translate(423.804 1669.371)" fill="#ff6584"/>
      <path id="Path_7372" data-name="Path 7372" d="M679.955,464.556a4.354,4.354,0,1,1-8.708,0" transform="translate(-245.991 1210.983)" opacity="0.2"/>
      <path id="Path_7373" data-name="Path 7373" d="M671.246,458.028a4.354,4.354,0,1,1,8.708,0" transform="translate(-245.991 1216.786)" opacity="0.2"/>
      <ellipse id="Ellipse_87" data-name="Ellipse 87" cx="0.363" cy="0.544" rx="0.363" ry="0.544" transform="translate(427.07 1672.636)" fill="#ff6584"/>
      <ellipse id="Ellipse_88" data-name="Ellipse 88" cx="0.363" cy="0.544" rx="0.363" ry="0.544" transform="translate(429.247 1671.911)" fill="#ff6584"/>
      <ellipse id="Ellipse_89" data-name="Ellipse 89" cx="0.363" cy="0.544" rx="0.363" ry="0.544" transform="translate(429.247 1676.628)" fill="#ff6584"/>
      <ellipse id="Ellipse_90" data-name="Ellipse 90" cx="0.363" cy="0.544" rx="0.363" ry="0.544" transform="translate(431.424 1673.725)" fill="#ff6584"/>
      <ellipse id="Ellipse_91" data-name="Ellipse 91" cx="0.363" cy="0.544" rx="0.363" ry="0.544" transform="translate(431.061 1677.716)" fill="#ff6584"/>
      <ellipse id="Ellipse_92" data-name="Ellipse 92" cx="0.363" cy="0.544" rx="0.363" ry="0.544" transform="translate(426.707 1675.902)" fill="#ff6584"/>
      <circle id="Ellipse_93" data-name="Ellipse 93" cx="5.805" cy="5.805" r="5.805" transform="translate(435.415 1677.353)" fill="#268aca"/>
      <path id="Path_7374" data-name="Path 7374" d="M704.83,481.658a4.354,4.354,0,1,1-8.708,0" transform="translate(-259.255 1201.864)" opacity="0.2"/>
      <path id="Path_7375" data-name="Path 7375" d="M696.121,475.129a4.354,4.354,0,1,1,8.708,0" transform="translate(-259.255 1207.667)" opacity="0.2"/>
      <ellipse id="Ellipse_94" data-name="Ellipse 94" cx="0.363" cy="0.544" rx="0.363" ry="0.544" transform="translate(438.681 1680.619)" fill="#268aca"/>
      <ellipse id="Ellipse_95" data-name="Ellipse 95" cx="0.363" cy="0.544" rx="0.363" ry="0.544" transform="translate(440.858 1679.893)" fill="#268aca"/>
      <ellipse id="Ellipse_96" data-name="Ellipse 96" cx="0.363" cy="0.544" rx="0.363" ry="0.544" transform="translate(440.858 1684.61)" fill="#268aca"/>
      <ellipse id="Ellipse_97" data-name="Ellipse 97" cx="0.363" cy="0.544" rx="0.363" ry="0.544" transform="translate(443.035 1681.707)" fill="#268aca"/>
      <ellipse id="Ellipse_98" data-name="Ellipse 98" cx="0.363" cy="0.544" rx="0.363" ry="0.544" transform="translate(442.672 1685.699)" fill="#268aca"/>
      <ellipse id="Ellipse_99" data-name="Ellipse 99" cx="0.363" cy="0.544" rx="0.363" ry="0.544" transform="translate(438.318 1683.884)" fill="#268aca"/>
      <circle id="Ellipse_100" data-name="Ellipse 100" cx="5.805" cy="5.805" r="5.805" transform="translate(406.388 1678.079)" fill="#268aca"/>
      <path id="Path_7376" data-name="Path 7376" d="M642.642,483.213a4.354,4.354,0,1,1-8.708,0" transform="translate(-226.095 1201.035)" opacity="0.2"/>
      <path id="Path_7377" data-name="Path 7377" d="M633.934,476.684a4.354,4.354,0,1,1,8.708,0" transform="translate(-226.095 1206.838)" opacity="0.2"/>
      <ellipse id="Ellipse_101" data-name="Ellipse 101" cx="0.363" cy="0.544" rx="0.363" ry="0.544" transform="translate(409.654 1681.344)" fill="#268aca"/>
      <ellipse id="Ellipse_102" data-name="Ellipse 102" cx="0.363" cy="0.544" rx="0.363" ry="0.544" transform="translate(411.831 1680.619)" fill="#268aca"/>
      <ellipse id="Ellipse_103" data-name="Ellipse 103" cx="0.363" cy="0.544" rx="0.363" ry="0.544" transform="translate(411.831 1685.336)" fill="#268aca"/>
      <ellipse id="Ellipse_104" data-name="Ellipse 104" cx="0.363" cy="0.544" rx="0.363" ry="0.544" transform="translate(414.008 1682.433)" fill="#268aca"/>
      <ellipse id="Ellipse_105" data-name="Ellipse 105" cx="0.363" cy="0.544" rx="0.363" ry="0.544" transform="translate(413.645 1686.424)" fill="#268aca"/>
      <ellipse id="Ellipse_106" data-name="Ellipse 106" cx="0.363" cy="0.544" rx="0.363" ry="0.544" transform="translate(409.291 1684.61)" fill="#268aca"/>
      <circle id="Ellipse_107" data-name="Ellipse 107" cx="5.805" cy="5.805" r="5.805" transform="translate(419.45 1680.619)" fill="#268aca"/>
      <path id="Path_7378" data-name="Path 7378" d="M670.627,488.654a4.354,4.354,0,1,1-8.708,0" transform="translate(-241.017 1198.133)" opacity="0.2"/>
      <path id="Path_7379" data-name="Path 7379" d="M661.918,482.125a4.354,4.354,0,1,1,8.708,0" transform="translate(-241.017 1203.936)" opacity="0.2"/>
      <ellipse id="Ellipse_108" data-name="Ellipse 108" cx="0.363" cy="0.544" rx="0.363" ry="0.544" transform="translate(422.716 1683.884)" fill="#268aca"/>
      <ellipse id="Ellipse_109" data-name="Ellipse 109" cx="0.363" cy="0.544" rx="0.363" ry="0.544" transform="translate(424.893 1683.159)" fill="#268aca"/>
      <ellipse id="Ellipse_110" data-name="Ellipse 110" cx="0.363" cy="0.544" rx="0.363" ry="0.544" transform="translate(424.893 1687.876)" fill="#268aca"/>
      <ellipse id="Ellipse_111" data-name="Ellipse 111" cx="0.363" cy="0.544" rx="0.363" ry="0.544" transform="translate(427.07 1684.973)" fill="#268aca"/>
      <ellipse id="Ellipse_112" data-name="Ellipse 112" cx="0.363" cy="0.544" rx="0.363" ry="0.544" transform="translate(426.707 1688.964)" fill="#268aca"/>
      <ellipse id="Ellipse_113" data-name="Ellipse 113" cx="0.363" cy="0.544" rx="0.363" ry="0.544" transform="translate(422.353 1687.15)" fill="#268aca"/>
      <circle id="Ellipse_114" data-name="Ellipse 114" cx="5.805" cy="5.805" r="5.805" transform="translate(428.521 1686.787)" fill="#ff6584"/>
      <path id="Path_7380" data-name="Path 7380" d="M690.06,501.869a4.354,4.354,0,1,1-8.708,0" transform="translate(-251.379 1191.086)" opacity="0.2"/>
      <path id="Path_7381" data-name="Path 7381" d="M681.352,495.34a4.354,4.354,0,1,1,8.708,0" transform="translate(-251.379 1196.89)" opacity="0.2"/>
      <ellipse id="Ellipse_115" data-name="Ellipse 115" cx="0.363" cy="0.544" rx="0.363" ry="0.544" transform="translate(431.787 1690.053)" fill="#ff6584"/>
      <ellipse id="Ellipse_116" data-name="Ellipse 116" cx="0.363" cy="0.544" rx="0.363" ry="0.544" transform="translate(433.964 1689.327)" fill="#ff6584"/>
      <ellipse id="Ellipse_117" data-name="Ellipse 117" cx="0.363" cy="0.544" rx="0.363" ry="0.544" transform="translate(433.964 1694.044)" fill="#ff6584"/>
      <ellipse id="Ellipse_118" data-name="Ellipse 118" cx="0.363" cy="0.544" rx="0.363" ry="0.544" transform="translate(436.141 1691.141)" fill="#ff6584"/>
      <ellipse id="Ellipse_119" data-name="Ellipse 119" cx="0.363" cy="0.544" rx="0.363" ry="0.544" transform="translate(435.778 1695.132)" fill="#ff6584"/>
      <ellipse id="Ellipse_120" data-name="Ellipse 120" cx="0.363" cy="0.544" rx="0.363" ry="0.544" transform="translate(431.424 1693.318)" fill="#ff6584"/>
      <circle id="Ellipse_121" data-name="Ellipse 121" cx="1.539" cy="1.539" r="1.539" transform="translate(358.13 1668.92)" fill="#3f3d56"/>
      <path id="Path_7382" data-name="Path 7382" d="M422.127,348.365,385.17,338.116l1.416-5.259,36.957,10.249Z" transform="translate(-20.63 1377.949)" fill="#f9a825"/>
      <path id="Path_7383" data-name="Path 7383" d="M564.972,563.343a101.882,101.882,0,0,1-38.311,0v-5.451a117.154,117.154,0,0,0,38.311,0Z" transform="translate(-168.893 1161.213)" fill="#f9a825"/>
      <path id="Path_7384" data-name="Path 7384" d="M573.41,528.308a101.883,101.883,0,0,1-38.312,0v-5.451a117.154,117.154,0,0,0,38.311,0Z" transform="translate(-173.393 1179.895)" fill="#f9a825"/>
      <path id="Path_7385" data-name="Path 7385" d="M601.792,542.322a101.879,101.879,0,0,1-38.312,0v-5.451a117.155,117.155,0,0,0,38.312,0Z" transform="translate(-188.527 1172.422)" fill="#f9a825"/>
      <path id="Path_7386" data-name="Path 7386" d="M608.7,555.558a101.883,101.883,0,0,1-38.312,0v-5.451a117.154,117.154,0,0,0,38.312,0Z" transform="translate(-192.208 1165.365)" fill="#f9a825"/>
      <path id="Path_7387" data-name="Path 7387" d="M476.35,365.68l-37.8,6.349-.877-5.378,37.8-6.349Z" transform="translate(-48.628 1363.315)" fill="#f9a825"/>
      <path id="Path_7388" data-name="Path 7388" d="M622.1,574.918a102.677,102.677,0,0,1-34.812,16.236L585.05,586.2a118.074,118.074,0,0,0,34.812-16.236Z" transform="translate(-200.028 1154.776)" fill="#f9a825"/>
      <path id="Path_7389" data-name="Path 7389" d="M615.359,539.508a102.676,102.676,0,0,1-34.812,16.236l-2.243-4.953a118.072,118.072,0,0,0,34.812-16.236Z" transform="translate(-196.431 1173.657)" fill="#f9a825"/>
      <path id="Path_7390" data-name="Path 7390" d="M646.913,540.213A102.674,102.674,0,0,1,612.1,556.45l-2.243-4.953a118.072,118.072,0,0,0,34.812-16.236Z" transform="translate(-213.257 1173.281)" fill="#f9a825"/>
      <path id="Path_7391" data-name="Path 7391" d="M658.632,549.314A102.679,102.679,0,0,1,623.82,565.55l-2.243-4.953a118.073,118.073,0,0,0,34.812-16.236Z" transform="translate(-219.505 1168.429)" fill="#f9a825"/>
      <rect id="Rectangle_2271" data-name="Rectangle 2271" width="1.814" height="1.814" transform="translate(391.511 1707.106)" fill="#00bf71"/>
      <rect id="Rectangle_2272" data-name="Rectangle 2272" width="1.814" height="1.814" transform="translate(396.954 1738.674)" fill="#00bf71"/>
      <rect id="Rectangle_2273" data-name="Rectangle 2273" width="1.814" height="1.814" transform="translate(367.927 1707.106)" fill="#00bf71"/>
      <rect id="Rectangle_2274" data-name="Rectangle 2274" width="1.814" height="1.814" transform="translate(410.016 1729.602)" fill="#00bf71"/>
      <rect id="Rectangle_2275" data-name="Rectangle 2275" width="1.814" height="1.814" transform="translate(411.105 1719.08)" fill="#00bf71"/>
      <rect id="Rectangle_2276" data-name="Rectangle 2276" width="2.54" height="1.451" transform="translate(380.89 1712.684) rotate(34.156)" fill="#00bf71"/>
      <rect id="Rectangle_2277" data-name="Rectangle 2277" width="2.54" height="1.451" transform="translate(402.297 1716.676) rotate(34.156)" fill="#00bf71"/>
      <rect id="Rectangle_2278" data-name="Rectangle 2278" width="2.54" height="1.451" transform="translate(376.173 1723.57) rotate(34.156)" fill="#00bf71"/>
      <rect id="Rectangle_2279" data-name="Rectangle 2279" width="2.54" height="1.451" transform="translate(393.009 1722.79) rotate(124.156)" fill="#00bf71"/>
      <rect id="Rectangle_2280" data-name="Rectangle 2280" width="2.54" height="1.451" transform="translate(402.806 1725.33) rotate(124.156)" fill="#00bf71"/>
      <rect id="Rectangle_2281" data-name="Rectangle 2281" width="2.54" height="1.451" transform="translate(428.93 1716.622) rotate(124.156)" fill="#00bf71"/>
      <rect id="Rectangle_2282" data-name="Rectangle 2282" width="147.493" height="1.046" transform="translate(372.753 1781.005)" fill="#3f3d56" opacity="0.072"/>
      <path id="Path_7354" data-name="Path 7354" d="M778.921,307.634,778,344.422l-1.14,45.619h-38.8l-1.336-53.448L736,307.634Z" transform="translate(-244.703 1391.399)" fill="#e6e6e6"/>
      <rect id="Rectangle_2265" data-name="Rectangle 2265" width="5.494" height="72.793" transform="translate(509.839 1679.461)" fill="#268aca"/>
      <path id="Path_7355" data-name="Path 7355" d="M935.088,563l-1.039,52.288H898.683l-1.218-61.261a24.1,24.1,0,0,1,19.057,2.621A53.482,53.482,0,0,0,935.088,563Z" transform="translate(-403.617 1163.754)" fill="#3f3d56"/>
      <rect id="Rectangle_2266" data-name="Rectangle 2266" width="5.041" height="5.041" transform="translate(498.78 1732.639)" fill="#e6e6e6"/>
      <rect id="Rectangle_2267" data-name="Rectangle 2267" width="5.041" height="5.041" transform="translate(502.214 1722.338)" fill="#e6e6e6"/>
      <rect id="Rectangle_2268" data-name="Rectangle 2268" width="5.041" height="5.041" transform="translate(514.032 1726.467) rotate(36.562)" fill="#e6e6e6"/>
      <rect id="Rectangle_2269" data-name="Rectangle 2269" width="5.041" height="5.041" transform="translate(523.14 1735.399) rotate(36.562)" fill="#e6e6e6"/>
      <rect id="Rectangle_2270" data-name="Rectangle 2270" width="5.041" height="5.041" transform="translate(507.689 1740.549) rotate(36.562)" fill="#e6e6e6"/>
      <circle id="Ellipse_66" data-name="Ellipse 66" cx="1.03" cy="1.03" r="1.03" transform="translate(522.543 1718.261)" fill="#3f3d56"/>
      <circle id="Ellipse_67" data-name="Ellipse 67" cx="1.03" cy="1.03" r="1.03" transform="translate(501.598 1711.394)" fill="#3f3d56"/>
      <circle id="Ellipse_68" data-name="Ellipse 68" cx="1.03" cy="1.03" r="1.03" transform="translate(519.11 1704.183)" fill="#3f3d56"/>
    </g>
  </g>
</svg>
