<svg xmlns="http://www.w3.org/2000/svg" width="334" height="334" viewBox="0 0 334 334">
  <g id="Group_12334" data-name="Group 12334" transform="translate(-225 -1502)">
    <g id="Group_12333" data-name="Group 12333">
      <circle id="Ellipse_51" data-name="Ellipse 51" cx="167" cy="167" r="167" transform="translate(225 1502)" fill="#268aca" opacity="0.116"/>
      <g id="Group_12332" data-name="Group 12332">
        <g id="Group_12331" data-name="Group 12331" transform="translate(-8217 -58)">
          <g id="Group_12330" data-name="Group 12330">
            <path id="Path_7535" data-name="Path 7535" d="M369.7,672.443l-21.874-34.714,21.885,38.5.012,3.955q2.341-.027,4.634-.179l-1.784-50.812.023-.393-.04-.075-.17-4.8,22.872-38.046-22.9,34.451-.069,1.017-1.348-38.391,19.662-39.364L370.793,576.2l-.922-79.573,0-.265,0,.261-.449,62.738-18.788-25.1,18.805,30.506.087,34.362-17.433-33.187,17.443,38.239.048,19.107-25.323-46.208L369.6,629.955Z" transform="translate(8211 1125.265)" fill="#e2e2e2"/>
            <path id="Path_7536" data-name="Path 7536" d="M557.413,672.443l-21.874-34.714,21.885,38.5.012,3.955q2.341-.027,4.634-.179l-1.784-50.812.023-.393-.04-.075-.17-4.8,22.872-38.046-22.9,34.451-.068,1.017-1.348-38.391,19.662-39.364L558.5,576.2l-.922-79.573,0-.265,0,.261-.449,62.738-18.788-25.1,18.805,30.506.087,34.362L539.8,565.944l17.443,38.239.048,19.107-25.323-46.208,25.343,52.874Z" transform="translate(8176 1125.265)" fill="#e2e2e2"/>
            <rect id="Rectangle_2293" data-name="Rectangle 2293" width="118" height="5" transform="translate(8749.714 1745.297) rotate(180)" fill="#268aca"/>
            <rect id="Rectangle_2294" data-name="Rectangle 2294" width="118" height="5" transform="translate(8743.714 1740.297) rotate(180)" fill="#268aca"/>
            <rect id="Rectangle_2295" data-name="Rectangle 2295" width="118" height="5" transform="translate(8750.714 1735.297) rotate(180)" fill="#268aca"/>
            <rect id="Rectangle_2296" data-name="Rectangle 2296" width="118" height="5" transform="translate(8762.714 1730.297) rotate(180)" fill="#268aca"/>
            <rect id="Rectangle_2297" data-name="Rectangle 2297" width="4.097" height="29.088" transform="translate(8548.41 1732.291) rotate(180)" fill="#3f3d56"/>
            <rect id="Rectangle_2298" data-name="Rectangle 2298" width="4.097" height="163.621" transform="translate(8545.842 1706.63) rotate(-112.092)" fill="#3f3d56"/>
            <rect id="Rectangle_2299" data-name="Rectangle 2299" width="35.644" height="13.93" transform="translate(8504.163 1775.719) rotate(180)" fill="#3f3d56"/>
            <rect id="Rectangle_2300" data-name="Rectangle 2300" width="175.76" height="15.568" transform="translate(8647.557 1789.648) rotate(180)" fill="#3f3d56"/>
            <path id="Path_7539" data-name="Path 7539" d="M133.68,436.862h42.2V383.806H144.332L133.68,410.565Z" transform="translate(8367 1345.002)" fill="#e2e2e2"/>
            <rect id="Rectangle_2301" data-name="Rectangle 2301" width="18.027" height="18.027" transform="translate(8536.324 1750.112) rotate(180)" fill="#fff"/>
            <path id="Path_7540" data-name="Path 7540" d="M137.777,405.315h11.472V387.289h-4.917Z" transform="translate(8367 1345.002)" fill="#fff"/>
            <rect id="Rectangle_2302" data-name="Rectangle 2302" width="4.097" height="7.784" transform="translate(8535.505 1768.139) rotate(180)" fill="#3f3d56"/>
            <path id="Path_7541" data-name="Path 7541" d="M297.669,618.5h.2a3.892,3.892,0,0,1,3.892,3.892h0a3.892,3.892,0,0,1-3.892,3.892h-.2V618.5Z" transform="translate(8810.436 2370.044) rotate(180)" fill="#3f3d56"/>
            <path id="Path_7542" data-name="Path 7542" d="M450.077,648.815h.2a3.892,3.892,0,0,1,3.892,3.892h0a3.892,3.892,0,0,1-3.892,3.892h-.2v-7.784Z" transform="translate(9115.25 2430.679) rotate(180)" fill="#3f3d56"/>
            <path id="Path_7543" data-name="Path 7543" d="M273.292,648.756a20.27,20.27,0,0,0-15.756,7.843H249.53l7.784-21.684,36.258-7.151L292.548,656.6h-3.5a20.27,20.27,0,0,0-15.756-7.843Z" transform="translate(8211 1125.265)" fill="#e2e2e2"/>
            <circle id="Ellipse_124" data-name="Ellipse 124" cx="17.822" cy="17.822" r="17.822" transform="translate(8466.061 1769.163)" fill="#3f3d56"/>
            <circle id="Ellipse_125" data-name="Ellipse 125" cx="9.38" cy="9.38" r="9.38" transform="translate(8474.503 1777.605)" fill="#e2e2e2"/>
            <circle id="Ellipse_126" data-name="Ellipse 126" cx="15.568" cy="15.568" r="15.568" transform="translate(8629.325 1773.465)" fill="#3f3d56"/>
            <circle id="Ellipse_127" data-name="Ellipse 127" cx="8.194" cy="8.194" r="8.194" transform="translate(8636.699 1780.84)" fill="#e2e2e2"/>
            <rect id="Rectangle_2303" data-name="Rectangle 2303" width="8.604" height="62.069" transform="translate(8550.254 1783.503) rotate(180)" fill="#3f3d56"/>
            <rect id="Rectangle_2304" data-name="Rectangle 2304" width="123.729" height="3.687" transform="translate(8665.379 1775.923) rotate(180)" fill="#3f3d56"/>
            <rect id="Rectangle_2305" data-name="Rectangle 2305" width="4.097" height="1.639" transform="translate(8514.405 1752.775) rotate(180)" fill="#3f3d56"/>
            <path id="Path_7544" data-name="Path 7544" d="M480.394,620a.41.41,0,0,1-.1-.318l5.65-53.432a.41.41,0,0,1,.406-.367h0a.41.41,0,0,1,.407.363l6.111,53.321a.41.41,0,0,1-.4.456l-11.761.111h0A.409.409,0,0,1,480.394,620Zm5.97-49.966-5.211,49.277,10.847-.1Z" transform="translate(8211 1125.265)" fill="#3f3d56"/>
            <path id="Path_7545" data-name="Path 7545" d="M255.88,635.7h.2a3.892,3.892,0,0,1,3.892,3.892h0a3.892,3.892,0,0,1-3.892,3.892h-.2V635.7Z" transform="matrix(0.935, 0.354, -0.354, 0.935, 8453.941, 1075.379)" fill="#3f3d56"/>
            <rect id="Rectangle_2306" data-name="Rectangle 2306" width="4.097" height="59.816" transform="translate(8699.588 1701.154) rotate(180)" fill="#3f3d56"/>
            <circle id="Ellipse_128" data-name="Ellipse 128" cx="5.736" cy="5.736" r="5.736" transform="translate(8540.626 1698.286)" fill="#3f3d56"/>
            <rect id="Rectangle_2307" data-name="Rectangle 2307" width="118" height="5" transform="translate(8672.714 1772.297) rotate(180)" fill="#268aca"/>
            <rect id="Rectangle_2308" data-name="Rectangle 2308" width="118" height="5" transform="translate(8679.714 1767.297) rotate(180)" fill="#268aca"/>
            <rect id="Rectangle_2309" data-name="Rectangle 2309" width="118" height="5" transform="translate(8674.714 1763.297) rotate(180)" fill="#268aca"/>
            <rect id="Rectangle_2310" data-name="Rectangle 2310" width="118" height="5" transform="translate(8681.714 1758.297) rotate(180)" fill="#268aca"/>
            <rect id="Rectangle_2330" data-name="Rectangle 2330" width="296" height="2" transform="translate(8461 1803.297)" fill="#3f3d56" opacity="0.199"/>
          </g>
        </g>
      </g>
    </g>
  </g>
</svg>
