<svg id="Group_10182" data-name="Group 10182" xmlns="http://www.w3.org/2000/svg" width="178.061" height="60.436" viewBox="0 0 178.061 60.436">
  <g id="Group_143" data-name="Group 143" transform="translate(18.67 11.758)">
    <g id="Group_142" data-name="Group 142">
      <path id="Path_285" data-name="Path 285" d="M244.24,30.441h3.177a.375.375,0,1,0,0-.751H244.24a.375.375,0,1,0,0,.751Zm1.587,27.847a1.654,1.654,0,1,0,1.654,1.656A1.656,1.656,0,0,0,245.827,58.288Zm-8.106-1.416h16.217V32.888H237.721Zm52-7.875a3.23,3.23,0,0,0-2.09.763,3.588,3.588,0,0,0-1.228,2.013,4.165,4.165,0,0,0-.142.954v2.336a3.732,3.732,0,0,0,.937,2.587,3.129,3.129,0,0,0,2.438,1.049,3.191,3.191,0,0,0,2.744-1.356,5.982,5.982,0,0,0,.979-3.584,5.76,5.76,0,0,0-.921-3.373A3.212,3.212,0,0,0,289.716,49Zm56.872-.194a3.119,3.119,0,0,0-2.853,1.669,6.3,6.3,0,0,0-.839,3.363,6.2,6.2,0,0,0,.839,3.311,3.134,3.134,0,0,0,2.83,1.666,3.1,3.1,0,0,0,2.793-1.7,6.177,6.177,0,0,0,.871-3.331,6.289,6.289,0,0,0-.833-3.309A3.1,3.1,0,0,0,346.588,48.8ZM305.135,49a3.226,3.226,0,0,0-2.091.763,3.6,3.6,0,0,0-1.23,2.013,4.144,4.144,0,0,0-.14.954v2.336a3.741,3.741,0,0,0,.935,2.587,3.128,3.128,0,0,0,2.435,1.049,3.188,3.188,0,0,0,2.748-1.356,5.969,5.969,0,0,0,.985-3.584,5.784,5.784,0,0,0-.924-3.373A3.221,3.221,0,0,0,305.135,49Zm-32.218-5.019h-.055c-.2.827-.5,2.047-.927,3.666l-1.617,5.083h5.224L273.9,47.643Q273.638,46.86,272.917,43.977Zm97.316,4.672a2.99,2.99,0,0,0-2.482,1.276,4.634,4.634,0,0,0-.924,2.419h6.495a4.271,4.271,0,0,0-.6-2.393A2.74,2.74,0,0,0,370.234,48.65ZM286.667,34.8a1.274,1.274,0,0,0,.043-.4v-.994c-1.291-.015-2.522.252-2.522,1.35a.958.958,0,0,0,1.039,1.039A1.5,1.5,0,0,0,286.667,34.8Zm-17.013-4.542c-.193-.609-.357-1.291-.5-1.87h-.032c-.147.579-.311,1.276-.475,1.87l-.77,2.464h2.566Zm103.459-.712c2.345,0,3.117,1.929,3.117,3.517a4.368,4.368,0,0,1-.06.771h-4.838a1.956,1.956,0,0,0,2.226,1.869,5.815,5.815,0,0,0,2-.326l.267,1.247a6.491,6.491,0,0,1-2.522.46,3.418,3.418,0,0,1-3.725-3.649C369.581,31.435,370.8,29.551,373.113,29.551Zm-28.963.162.089,1.084h.045a2.651,2.651,0,0,1,2.314-1.247c1.262,0,2.568.815,2.568,3.1V36.94H347.34V32.86c0-1.039-.386-1.826-1.38-1.826a1.534,1.534,0,0,0-1.426,1.069,1.7,1.7,0,0,0-.089.578V36.94h-1.825V31.866c0-.832-.031-1.528-.06-2.153Zm-19.167-.162c2.345,0,3.117,1.929,3.117,3.517a4.5,4.5,0,0,1-.059.771H323.2a1.955,1.955,0,0,0,2.225,1.869,5.819,5.819,0,0,0,2-.326l.267,1.247a6.487,6.487,0,0,1-2.522.46,3.417,3.417,0,0,1-3.724-3.649C321.452,31.435,322.668,29.551,324.983,29.551ZM317.5,26.405h1.825V36.94H317.5Zm-14.475,4.436a3.819,3.819,0,0,0-1.944.536l-.357-1.188a5.2,5.2,0,0,1,2.611-.638c2.315,0,2.984,1.469,2.984,3.056v2.6a9.792,9.792,0,0,0,.117,1.736h-1.646l-.133-.8h-.044a2.646,2.646,0,0,1-2.138.965,2.145,2.145,0,0,1-2.271-2.153c0-1.811,1.617-2.745,4.288-2.731V32.1C304.5,31.629,304.3,30.841,303.027,30.841ZM292.235,26.7a.988.988,0,1,1-1.023.995A.975.975,0,0,1,292.235,26.7Zm.9,3.012V36.94h-1.825V29.714Zm-25.1-2.775h2.33l3.25,10h-1.973l-.9-2.834h-3.162l-.862,2.834H264.83ZM255.882,60.1a3.2,3.2,0,0,1-3.2,3.19H238.977a3.2,3.2,0,0,1-3.2-3.19V29.647a3.2,3.2,0,0,1,3.2-3.194h13.706a3.2,3.2,0,0,1,3.2,3.194Zm22.03.731L276.1,55.124h-6.324l-1.735,5.711h-3.229l6.259-19.457h3.873l6.3,19.457Zm.709-23.9h-1.8l-2.686-7.227h1.974l1.172,3.666c.208.638.355,1.217.489,1.811h.045c.133-.594.3-1.159.489-1.811l1.158-3.666h1.914Zm3.758-1.988c0-1.811,1.617-2.745,4.288-2.731V32.1c0-.475-.194-1.262-1.469-1.262a3.822,3.822,0,0,0-1.944.536l-.356-1.188a5.193,5.193,0,0,1,2.611-.638c2.315,0,2.984,1.469,2.984,3.056v2.6a9.68,9.68,0,0,0,.118,1.736h-1.648l-.133-.8h-.044a2.644,2.644,0,0,1-2.137.965A2.145,2.145,0,0,1,282.379,34.952ZM294.586,59.31a5.715,5.715,0,0,1-4.324,1.843,4.318,4.318,0,0,1-4.006-2v7.369H283.14V51.416c0-1.5-.04-3.035-.119-4.612h2.743l.172,2.223h.054a5.561,5.561,0,0,1,8.886-.544,7.748,7.748,0,0,1,1.659,5.167A7.937,7.937,0,0,1,294.586,59.31Zm3.244-22.37h-1.824V26.405h1.824ZM310,59.31a5.713,5.713,0,0,1-4.324,1.843,4.315,4.315,0,0,1-4-2v7.369h-3.119V51.416c0-1.5-.04-3.035-.116-4.612h2.736l.18,2.223h.054a5.555,5.555,0,0,1,8.879-.544,7.721,7.721,0,0,1,1.661,5.167A7.932,7.932,0,0,1,310,59.31ZM312.141,37.1a2.489,2.489,0,0,1-2.286-1.247h-.03l-.089,1.082H308.18c.03-.489.059-1.29.059-2.032v-8.5h1.825v4.3h.03a2.615,2.615,0,0,1,2.315-1.157c1.767,0,3.027,1.469,3.013,3.665C315.421,35.814,313.774,37.1,312.141,37.1Zm15.694,22.314a7.673,7.673,0,0,1-5.3,1.7,9.292,9.292,0,0,1-5.042-1.211l.724-2.6a8.706,8.706,0,0,0,4.5,1.213,4.274,4.274,0,0,0,2.745-.793,2.594,2.594,0,0,0,.979-2.13,2.723,2.723,0,0,0-.806-1.985,7.619,7.619,0,0,0-2.683-1.5q-5.105-1.9-5.108-5.569a4.907,4.907,0,0,1,1.8-3.929,7.15,7.15,0,0,1,4.78-1.529,9.511,9.511,0,0,1,4.418.922l-.787,2.542a7.71,7.71,0,0,0-3.734-.9,3.879,3.879,0,0,0-2.581.8,2.341,2.341,0,0,0-.778,1.768,2.409,2.409,0,0,0,.893,1.909,10.248,10.248,0,0,0,2.827,1.5,9.492,9.492,0,0,1,3.7,2.37,4.958,4.958,0,0,1,1.183,3.373A5.2,5.2,0,0,1,327.835,59.419ZM338.826,49.14h-3.441v6.821c0,1.731.612,2.589,1.825,2.589a5.669,5.669,0,0,0,1.384-.136l.089,2.363a7.055,7.055,0,0,1-2.424.347A3.717,3.717,0,0,1,333.372,60a5.473,5.473,0,0,1-1.044-3.78V49.14h-2.047V46.8h2.047V44.236l3.056-.923V46.8h3.441ZM337.068,37.1a3.5,3.5,0,0,1-3.621-3.725,3.567,3.567,0,0,1,3.739-3.829,3.467,3.467,0,0,1,3.592,3.709A3.581,3.581,0,0,1,337.068,37.1Zm14.549,21.917a6.614,6.614,0,0,1-5.137,2.132,6.285,6.285,0,0,1-4.93-2.048,7.472,7.472,0,0,1-1.829-5.169A7.625,7.625,0,0,1,341.61,48.6a6.524,6.524,0,0,1,5.092-2.075,6.39,6.39,0,0,1,4.972,2.049,7.391,7.391,0,0,1,1.787,5.134A7.7,7.7,0,0,1,351.617,59.021Zm3.222-29.308h1.024v-1.35l1.8-.505v1.855h1.735v1.365h-1.735V34.27c0,.89.236,1.335.933,1.335a2.391,2.391,0,0,0,.713-.074l.03,1.38a4.006,4.006,0,0,1-1.319.194,2.1,2.1,0,0,1-1.575-.594,2.849,2.849,0,0,1-.578-2.033v-3.4h-1.024Zm8,19.832a5.519,5.519,0,0,0-.982-.079,2.949,2.949,0,0,0-2.54,1.239,4.634,4.634,0,0,0-.779,2.769v7.361h-3.118V51.218q0-2.411-.084-4.414h2.714l.116,2.686h.086a4.716,4.716,0,0,1,1.559-2.218,3.737,3.737,0,0,1,2.254-.749,4.912,4.912,0,0,1,.775.053Zm.472-16.938V36.94H361.49V26.405h1.825v4.288h.03a2.4,2.4,0,0,1,.906-.815,2.558,2.558,0,0,1,1.261-.327c1.232,0,2.524.815,2.524,3.13V36.94h-1.827V32.874c0-1.038-.386-1.84-1.394-1.84a1.523,1.523,0,0,0-1.425,1.025A1.638,1.638,0,0,0,363.315,32.608Zm12.868,21.969h-9.355a4.053,4.053,0,0,0,1.358,3.168,4.608,4.608,0,0,0,3.058.984,10.187,10.187,0,0,0,3.782-.67l.492,2.168a11.642,11.642,0,0,1-4.709.864,6.8,6.8,0,0,1-5.119-1.915,7.091,7.091,0,0,1-1.867-5.151,8.083,8.083,0,0,1,1.733-5.289,6,6,0,0,1,4.91-2.248,5.218,5.218,0,0,1,4.591,2.248,7.613,7.613,0,0,1,1.241,4.423A7.845,7.845,0,0,1,376.183,54.577Zm-64.442-23.6a1.7,1.7,0,0,0-1.618,1.335,2.133,2.133,0,0,0-.06.476v1.172a1.968,1.968,0,0,0,.045.431,1.666,1.666,0,0,0,1.617,1.275c1.143,0,1.841-.9,1.841-2.373C313.566,32.015,312.957,30.975,311.741,30.975ZM324.88,30.8a1.784,1.784,0,0,0-1.677,1.766h3.175A1.553,1.553,0,0,0,324.88,30.8Zm12.263.074c-1.292,0-1.811,1.26-1.811,2.463,0,1.4.7,2.449,1.8,2.449,1.038,0,1.766-1.009,1.766-2.477C338.893,32.177,338.388,30.872,337.143,30.872Zm-35.124,3.888a.958.958,0,0,0,1.038,1.039,1.5,1.5,0,0,0,1.44-.994,1.246,1.246,0,0,0,.044-.4v-.994C303.25,33.394,302.018,33.661,302.018,34.759Zm70.99-3.961a1.786,1.786,0,0,0-1.677,1.766h3.176A1.552,1.552,0,0,0,373.008,30.8Z" transform="translate(-235.777 -26.405)" fill="#fff"/>
    </g>
  </g>
  <g id="Group_144" data-name="Group 144" opacity="0.2">
    <path id="Path_286" data-name="Path 286" d="M391.358,75.693H230.37a8.353,8.353,0,0,1-8.535-8.137V23.4a8.357,8.357,0,0,1,8.535-8.146H391.358A8.358,8.358,0,0,1,399.9,23.4V67.556A8.354,8.354,0,0,1,391.358,75.693ZM230.37,17.366a6.193,6.193,0,0,0-6.325,6.037V67.556a6.189,6.189,0,0,0,6.325,6.028H391.358a6.19,6.19,0,0,0,6.327-6.028V23.4a6.194,6.194,0,0,0-6.327-6.037Z" transform="translate(-221.835 -15.257)" fill="#fff"/>
  </g>
</svg>
