<svg xmlns="http://www.w3.org/2000/svg" width="69" height="61.038" viewBox="0 0 69 61.038">
  <g id="icons8-package" transform="translate(-6 -9)">
    <path id="Path_7209" data-name="Path 7209" d="M40,32H24a3,3,0,0,1-3-3h0a3,3,0,0,1,3-3H40a3,3,0,0,1,3,3h0A3,3,0,0,1,40,32Z" transform="translate(8.5 6.391)" />
    <path id="Path_7210" data-name="Path 7210" d="M74.582,19.789,70.288,11.2A3.968,3.968,0,0,0,66.723,9H14.277a3.966,3.966,0,0,0-3.565,2.2L6.418,19.789A4.026,4.026,0,0,0,6,21.57V63.376a6.669,6.669,0,0,0,6.662,6.662H68.339A6.669,6.669,0,0,0,75,63.376V21.57A4.026,4.026,0,0,0,74.582,19.789Zm-3.028-.119a3.946,3.946,0,0,0-.535-.054H9.981a3.946,3.946,0,0,0-.535.054L10.8,16.962H70.2ZM14.277,11.654H66.721a1.322,1.322,0,0,1,1.19.736l.961,1.917H12.128l.959-1.917A1.323,1.323,0,0,1,14.277,11.654ZM28.051,67.385l.958-1.917a1.326,1.326,0,0,1,1.19-.736H50.8a1.322,1.322,0,0,1,1.189.735l.961,1.919Zm44.3-4.009a4.013,4.013,0,0,1-4.009,4.009H55.916l-1.554-3.108a3.964,3.964,0,0,0-3.561-2.2H30.2a3.968,3.968,0,0,0-3.564,2.2l-1.551,3.106H12.662a4.013,4.013,0,0,1-4.009-4.009V23.6a1.327,1.327,0,0,1,1.327-1.327H71.019A1.327,1.327,0,0,1,72.346,23.6v39.78Z" transform="translate(0 0)"/>
    <path id="Path_7211" data-name="Path 7211" d="M44,29a4,4,0,0,0-4-4H24a4,4,0,0,0,0,8H40A4,4,0,0,0,44,29ZM22,29a2,2,0,0,1,2-2H40a2,2,0,0,1,0,4H24A2,2,0,0,1,22,29Z" transform="translate(8.5 6.332)" />
    <path id="Path_7212" data-name="Path 7212" d="M38,45H52v2H38Z" transform="translate(17 12.304)"/>
    <path id="Path_7213" data-name="Path 7213" d="M40,41H52v2H40Z" transform="translate(17 10.937)"/>
    <path id="Path_7214" data-name="Path 7214" d="M12,43h2v4H12Z" transform="translate(0 12.174)"/>
    <path id="Path_7215" data-name="Path 7215" d="M16,43h2v4H16Z" transform="translate(3.4 12.174)"/>
    <path id="Path_7216" data-name="Path 7216" d="M20,43h2v4H20Z" transform="translate(4.76 12.174)"/>
  </g>
</svg>
