<svg id="icons8-truck" xmlns="http://www.w3.org/2000/svg" width="78.975" height="51.742" viewBox="0 0 78.975 51.742">
  <path id="Path_7217" data-name="Path 7217" d="M19,22H36.813v2.227H19Z" transform="translate(4.557 -10.381)"/>
  <path id="Path_7218" data-name="Path 7218" d="M23,26H36.36v2.227H23Z" transform="translate(5.669 -9.036)" />
  <path id="Path_7219" data-name="Path 7219" d="M27,30h8.906v2.227H27Z" transform="translate(6.676 -7.692)" />
  <path id="Path_7220" data-name="Path 7220" d="M79.252,49.764V42.956a4.09,4.09,0,0,0-4.085-4.085H71.745a1.37,1.37,0,0,1-1.3-.968l-2.921-9.738a4.056,4.056,0,0,0-3.911-2.91h-.7V23.893a4.09,4.09,0,0,0-4.085-4.085H52.019A6.816,6.816,0,0,0,45.211,13H12.531a6.816,6.816,0,0,0-6.808,6.808V49.764A2.726,2.726,0,0,0,3,52.487v2.723a2.726,2.726,0,0,0,2.723,2.723H16.739a8.16,8.16,0,0,0,16.095,0H54.865a8.16,8.16,0,0,0,16.095,0h8.292a2.726,2.726,0,0,0,2.723-2.723V52.487A2.726,2.726,0,0,0,79.252,49.764Zm-68.082,0H8.447V47.041H9.808A1.363,1.363,0,0,1,11.17,48.4ZM8.447,52.487H11.17v2.723H8.447Zm16.34,9.531a5.447,5.447,0,1,1,5.447-5.447A5.452,5.452,0,0,1,24.786,62.019ZM49.3,55.211H32.833a8.16,8.16,0,0,0-16.095,0H13.893V48.4a4.09,4.09,0,0,0-4.085-4.085H8.447V19.808a4.09,4.09,0,0,1,4.085-4.085H45.211A4.09,4.09,0,0,1,49.3,19.808Zm9.531-32.679a1.363,1.363,0,0,1,1.362,1.362v1.362h-8.17V22.531Zm4.085,39.487a5.447,5.447,0,1,1,5.447-5.447A5.452,5.452,0,0,1,62.912,62.019Zm0-13.616a8.178,8.178,0,0,0-8.047,6.808H52.019V27.978H63.61a1.37,1.37,0,0,1,1.3.968l2.921,9.738a4.056,4.056,0,0,0,3.911,2.91h3.422a1.363,1.363,0,0,1,1.362,1.362v6.808a2.726,2.726,0,0,0-2.723,2.723v2.723H70.959A8.178,8.178,0,0,0,62.912,48.4Z" transform="translate(-3 -13)" />
  <path id="Path_7221" data-name="Path 7221" d="M15,18H37.266v2.227H15Z" transform="translate(3.305 -12.84)" />
  <path id="Path_7222" data-name="Path 7222" d="M41,27.113V32.68a1.114,1.114,0,0,0,1.113,1.113h6.321A1.111,1.111,0,0,0,49.5,32.378L47.91,26.8a1.111,1.111,0,0,0-1.068-.8H42.113A1.114,1.114,0,0,0,41,27.113Z" transform="translate(11.631 -8.569)" />
  <path id="Path_7223" data-name="Path 7223" d="M47.227,43a2.227,2.227,0,1,0,2.227,2.227A2.227,2.227,0,0,0,47.227,43Z" transform="translate(12.362 -1.984)" />
  <path id="Path_7224" data-name="Path 7224" d="M19.227,43a2.227,2.227,0,1,0,2.227,2.227A2.227,2.227,0,0,0,19.227,43Z" transform="translate(2.84 -1.984)" />
</svg>
