<svg xmlns="http://www.w3.org/2000/svg" width="64.775" height="76.553" viewBox="0 0 64.775 76.553">
  <g id="icons8-vegetarian_food" transform="translate(17)">
    <g id="Group_10192" data-name="Group 10192" transform="translate(-17)">
      <path id="Path_7195" data-name="Path 7195" d="M42.889,36a5.889,5.889,0,1,0,5.889,5.889A5.889,5.889,0,0,0,42.889,36Z" transform="translate(2.748 8.165)" />
      <path id="Path_7196" data-name="Path 7196" d="M73.945,34.673,66.661,17.679a2.942,2.942,0,0,0,2.226-2.846V11.889a2.947,2.947,0,0,0-2.944-2.944H61.526A2.947,2.947,0,0,0,58.581,6H52.693a2.947,2.947,0,0,0-2.944,2.944H45.332a2.947,2.947,0,0,0-2.944,2.944v2.944a2.942,2.942,0,0,0,2.226,2.846l-7.286,17a10.253,10.253,0,0,0-.829,4.048v7.03a19.024,19.024,0,0,0-5.889-1.4V38.388h-.122A8.834,8.834,0,0,0,12.944,39.86v1.472H27.666v3.019a19.128,19.128,0,1,0,10.76,35.782,7.379,7.379,0,0,0,5.434,2.419H67.414a7.369,7.369,0,0,0,7.361-7.361V38.723A10.241,10.241,0,0,0,73.945,34.673ZM16.076,38.388a5.889,5.889,0,0,1,11.4,0ZM45.332,14.833V11.889h20.61v2.944H45.332Zm-5.3,21,7.739-18.056H63.5l7.738,18.055a7.332,7.332,0,0,1,.593,2.891V39.86H39.443V38.723A7.344,7.344,0,0,1,40.035,35.833ZM39.443,42.8H71.831V69.3H47.34a19.068,19.068,0,0,0-7.9-21.99Zm-26.5,20.61A16.194,16.194,0,1,1,29.138,79.608,16.213,16.213,0,0,1,12.944,63.414Zm54.47,16.194H43.86a4.413,4.413,0,0,1-2.933-1.148A19.254,19.254,0,0,0,46.1,72.247H71.831v2.944A4.422,4.422,0,0,1,67.414,79.608Z" transform="translate(-10 -6)" />
      <path id="Path_7197" data-name="Path 7197" d="M14,49.249h2.944A10.317,10.317,0,0,1,27.249,38.944V36A13.265,13.265,0,0,0,14,49.249Z" transform="translate(-8.111 8.165)" />
    </g>
  </g>
</svg>
