<svg xmlns="http://www.w3.org/2000/svg" width="69" height="49.45" viewBox="0 0 69 49.45">
  <g id="icons8-car" transform="translate(-2 -10)">
    <path id="Path_7198" data-name="Path 7198" d="M19,47v3a1,1,0,0,1-1,1H12a1,1,0,0,1-1-1V47Z" transform="translate(1.558 6.45)"/>
    <path id="Path_7199" data-name="Path 7199" d="M53,47v3a1,1,0,0,1-1,1H46a1,1,0,0,1-1-1V47Z" transform="translate(7.442 6.45)" />
    <path id="Path_7200" data-name="Path 7200" d="M61.21,27H11.79l6.48-11.28A3.845,3.845,0,0,1,21.6,14H51.4a3.845,3.845,0,0,1,3.326,1.72Z" />
    <path id="Path_7201" data-name="Path 7201" d="M20,29H14a3,3,0,0,0-3,3v2a3,3,0,0,0,3,3h6a3,3,0,0,0,3-3V32A3,3,0,0,0,20,29Zm1,5a1,1,0,0,1-1,1H14a1,1,0,0,1-1-1V32a1,1,0,0,1,1-1h6a1,1,0,0,1,1,1Z" transform="translate(1.688 3.501)" />
    <path id="Path_7202" data-name="Path 7202" d="M41,32v2a3,3,0,0,0,3,3h6a3,3,0,0,0,3-3V32a3,3,0,0,0-3-3H44A3,3,0,0,0,41,32Zm10,0v2a1,1,0,0,1-1,1H44a1,1,0,0,1-1-1V32a1,1,0,0,1,1-1h6A1,1,0,0,1,51,32Z" transform="translate(7.313 3.501)" />
    <path id="Path_7203" data-name="Path 7203" d="M65.442,22.65H61.583L57.8,14.623A8.08,8.08,0,0,0,50.521,10H22.479A8.081,8.081,0,0,0,15.2,14.623L11.417,22.65H7.558C3.461,22.65,2,25.166,2,27.52c0,1.45.713,3.18,4.112,3.18H7.75V47.95a4.585,4.585,0,0,0,2.3,3.961V56a3.454,3.454,0,0,0,3.45,3.45h6.9A3.454,3.454,0,0,0,23.85,56V52.55h25.3V56a3.454,3.454,0,0,0,3.45,3.45h6.9A3.454,3.454,0,0,0,62.95,56V51.911a4.585,4.585,0,0,0,2.3-3.961V30.7h1.638c3.4,0,4.112-1.73,4.112-3.18C71,25.166,69.539,22.65,65.442,22.65ZM6.112,28.4C4.3,28.4,4.3,27.912,4.3,27.52c0-1.705,1.1-2.57,3.258-2.57h2.777L8.711,28.4ZM21.55,56a1.15,1.15,0,0,1-1.15,1.15H13.5A1.15,1.15,0,0,1,12.35,56V52.55h9.2Zm-2.3-5.75V49.1a1.15,1.15,0,0,1,1.15-1.15H52.6a1.15,1.15,0,0,1,1.15,1.15v1.15ZM60.65,56a1.15,1.15,0,0,1-1.15,1.15H52.6A1.15,1.15,0,0,1,51.45,56V52.55h9.2Zm0-5.75h-4.6V49.1a3.454,3.454,0,0,0-3.45-3.45H20.4a3.454,3.454,0,0,0-3.45,3.45v1.15h-4.6a2.3,2.3,0,0,1-2.3-2.3V46.8h4.6V44.5h-4.6V30.958L17.277,15.6a5.772,5.772,0,0,1,5.2-3.3H50.522a5.77,5.77,0,0,1,5.2,3.3L62.95,30.958V44.5h-4.6v2.3h4.6v1.15A2.3,2.3,0,0,1,60.65,50.25ZM66.888,28.4h-2.6l-1.624-3.45h2.777c2.162,0,3.258.865,3.258,2.57C68.7,27.912,68.7,28.4,66.888,28.4Z"/>
  </g>
</svg>
