<svg id="Group_12288" data-name="Group 12288" xmlns="http://www.w3.org/2000/svg" width="453.96" height="489.219" viewBox="0 0 453.96 489.219">
  <g id="Group_12287" data-name="Group 12287" transform="translate(0 0)">
    <g id="Background_Complete" data-name="Background Complete" transform="translate(0 0)">
      <g id="Group_12072" data-name="Group 12072" transform="translate(316.112 287.278)">
        <g id="Group_12046" data-name="Group 12046" transform="translate(0)">
          <g id="Group_12045" data-name="Group 12045">
            <g id="Group_12044" data-name="Group 12044">
              <g id="Group_12043" data-name="Group 12043">
                <path id="Path_1671" data-name="Path 1671" d="M404.608,491.048c-30.265-11.979-44.142-44.25-50.293-74.758C353.288,411.2,351.47,406,352.821,401s6.241-9.36,11.268-8.3c4.17.876,6.841,4.852,9.8,7.964a30.377,30.377,0,0,0,14.532,8.5c3.613.907,7.835.984,10.595-1.522,3.788-3.438,2.873-9.58,1.65-14.6q-3.421-14.026-6.84-28.05c-1.223-5.016-2.454-10.144-2.023-15.283s2.833-10.388,7.295-12.86,11.028-1.119,13.2,3.559c.906,1.946.993,4.17,1.627,6.222s2.153,4.13,4.272,4.241c2.145.115,3.817-1.788,4.97-3.614,3.983-6.3,5.951-13.674,7.7-20.954s3.36-14.69,6.753-21.339,8.861-12.578,15.961-14.692,15.819.508,19.313,7.141c3.5,6.651,1.076,14.818-2.06,21.618a115.317,115.317,0,0,1-18.071,27.8c-1.318,1.5-2.746,3.122-2.91,5.126-.3,3.609,3.666,6.183,7.234,6.5,4.041.359,8.012-.994,12.039-1.463s8.681.253,11.041,3.6c3.276,4.647.258,11.049-3.131,15.577a98.773,98.773,0,0,1-24.541,23.158c-3.375,2.229-6.983,4.338-9.347,7.642s-3.092,8.247-.453,11.357,7.533,3.152,11.233,1.515,6.668-4.559,10.027-6.826c6.287-4.244,15.316-5.883,21.155-.965,3.837,3.233,5.389,8.635,5.027,13.659s-2.386,9.758-4.671,14.224c-7.987,15.609-19.674,29.423-34.374,38.776s-29.184,14.376-46.482,12.331" transform="translate(-352.34 -289.56)" fill="#f5f5f5" opacity="0.149"/>
              </g>
            </g>
          </g>
        </g>
        <g id="Group_12051" data-name="Group 12051" transform="translate(55.58 2.686)">
          <g id="Group_12050" data-name="Group 12050">
            <g id="Group_12049" data-name="Group 12049">
              <g id="Group_12048" data-name="Group 12048">
                <g id="Group_12047" data-name="Group 12047">
                  <path id="Path_1672" data-name="Path 1672" d="M400.372,469.859c.831-16.331,3.227-34.154,6.373-52.711q1.206-6.953,2.38-13.731c.793-4.5,1.577-8.972,2.614-13.294a231.286,231.286,0,0,1,7.386-24.494c2.726-7.678,5.593-14.864,8.322-21.562s5.421-12.891,8.1-18.431a183.21,183.21,0,0,1,14.578-25.18c1.946-2.828,3.529-4.972,4.622-6.411L456,292.417a3.731,3.731,0,0,1,.452-.535,3.669,3.669,0,0,1-.375.594c-.292.419-.682.975-1.176,1.685-1.04,1.474-2.573,3.651-4.472,6.507a194.024,194.024,0,0,0-14.277,25.266c-2.634,5.544-5.268,11.738-7.976,18.438s-5.531,13.894-8.228,21.56a233.684,233.684,0,0,0-7.3,24.413c-1.025,4.3-1.8,8.73-2.589,13.246s-1.573,9.091-2.376,13.724c-3.143,18.542-5.559,36.318-6.436,52.6" transform="translate(-400.372 -291.882)" fill="#e0e0e0" opacity="0.16"/>
                </g>
              </g>
            </g>
          </g>
        </g>
        <g id="Group_12056" data-name="Group 12056" transform="translate(46.747 47.291)">
          <g id="Group_12055" data-name="Group 12055">
            <g id="Group_12054" data-name="Group 12054">
              <g id="Group_12053" data-name="Group 12053">
                <g id="Group_12052" data-name="Group 12052">
                  <path id="Path_1673" data-name="Path 1673" d="M413.194,383.967a10.635,10.635,0,0,1-1-2.027c-.593-1.325-1.387-3.271-2.334-5.69-1.9-4.835-4.29-11.6-6.9-19.068S397.872,343,395.906,338.2c-.976-2.4-1.785-4.332-2.362-5.661a10.378,10.378,0,0,1-.8-2.114,10.268,10.268,0,0,1,1.132,1.956c.68,1.283,1.586,3.181,2.644,5.554,2.131,4.741,4.723,11.444,7.335,18.924,2.556,7.377,4.867,14.05,6.633,19.15.812,2.3,1.5,4.235,2.049,5.789A10.221,10.221,0,0,1,413.194,383.967Z" transform="translate(-392.738 -330.429)" fill="#e0e0e0"/>
                </g>
              </g>
            </g>
          </g>
        </g>
        <g id="Group_12061" data-name="Group 12061" transform="translate(67.201 73.422)">
          <g id="Group_12060" data-name="Group 12060">
            <g id="Group_12059" data-name="Group 12059">
              <g id="Group_12058" data-name="Group 12058">
                <g id="Group_12057" data-name="Group 12057">
                  <path id="Path_1674" data-name="Path 1674" d="M472.151,353.023a14.429,14.429,0,0,1-2.5.919c-1.622.541-3.975,1.311-6.849,2.355-5.765,2.042-13.63,5.142-22.157,8.941-8.524,3.816-16.09,7.6-21.483,10.491-2.709,1.428-4.869,2.643-6.368,3.474a14.212,14.212,0,0,1-2.374,1.216,14.179,14.179,0,0,1,2.186-1.539c1.443-.93,3.558-2.238,6.232-3.748,5.325-3.054,12.871-6.945,21.419-10.774a234.1,234.1,0,0,1,22.327-8.7c2.911-.964,5.3-1.639,6.963-2.069A14,14,0,0,1,472.151,353.023Z" transform="translate(-410.415 -353.011)" fill="#e0e0e0" opacity="0.16"/>
                </g>
              </g>
            </g>
          </g>
        </g>
        <g id="Group_12066" data-name="Group 12066" transform="translate(3.995 104.497)">
          <g id="Group_12065" data-name="Group 12065">
            <g id="Group_12064" data-name="Group 12064">
              <g id="Group_12063" data-name="Group 12063">
                <g id="Group_12062" data-name="Group 12062">
                  <path id="Path_1675" data-name="Path 1675" d="M407.889,454.656a3.484,3.484,0,0,1-.629-.683c-.448-.561-1-1.246-1.659-2.076-1.433-1.807-3.437-4.478-5.87-7.811-4.873-6.66-11.312-16.073-18.278-26.555s-13.314-19.947-18.04-26.7c-2.308-3.281-4.21-5.978-5.621-7.983l-1.517-2.181a3.4,3.4,0,0,1-.478-.8,3.507,3.507,0,0,1,.631.685c.449.56,1,1.244,1.658,2.072,1.432,1.809,3.438,4.479,5.871,7.811,4.872,6.661,11.312,16.074,18.28,26.561s13.312,19.942,18.038,26.7c2.31,3.277,4.21,5.977,5.62,7.981.607.871,1.107,1.592,1.518,2.181A3.411,3.411,0,0,1,407.889,454.656Z" transform="translate(-355.793 -379.866)" fill="#e0e0e0"/>
                </g>
              </g>
            </g>
          </g>
        </g>
        <g id="Group_12071" data-name="Group 12071" transform="translate(56.091 131.255)">
          <g id="Group_12070" data-name="Group 12070">
            <g id="Group_12069" data-name="Group 12069">
              <g id="Group_12068" data-name="Group 12068">
                <g id="Group_12067" data-name="Group 12067">
                  <path id="Path_1676" data-name="Path 1676" d="M480.092,402.994a3.561,3.561,0,0,1-.769.553l-2.295,1.428c-2.126,1.292-4.994,3.037-8.485,5.159-7.164,4.359-16.989,10.492-27.837,17.282s-20.743,12.843-28,17.054c-3.628,2.106-6.581,3.782-8.644,4.9-.956.509-1.744.929-2.384,1.272a3.492,3.492,0,0,1-.864.385,3.593,3.593,0,0,1,.768-.555c.617-.382,1.376-.853,2.3-1.425l8.484-5.16c7.164-4.357,16.991-10.491,27.842-17.284s20.738-12.84,27.995-17.05c3.628-2.107,6.58-3.781,8.645-4.9.956-.509,1.741-.93,2.384-1.272A3.524,3.524,0,0,1,480.092,402.994Z" transform="translate(-400.813 -402.99)" fill="#e0e0e0" opacity="0.16"/>
                </g>
              </g>
            </g>
          </g>
        </g>
      </g>
      <g id="Group_12090" data-name="Group 12090" transform="translate(64.002 68.535)">
        <g id="Group_12082" data-name="Group 12082">
          <path id="Path_1680" data-name="Path 1680" d="M215.267,152.389l-74.655,7.819-6.145-51.866,74.655-7.819Z" transform="translate(-134.467 -100.523)" fill="#f5f5f5" opacity="0.149"/>
        </g>
        <g id="Group_12085" data-name="Group 12085" transform="translate(0.312 0.597)">
          <g id="Group_12084" data-name="Group 12084">
            <g id="Group_12083" data-name="Group 12083">
              <path id="Path_1681" data-name="Path 1681" d="M209.391,101.04a5.079,5.079,0,0,1-.613.764c-.467.529-1.084,1.224-1.856,2.094L200,111.519l-23.09,25.021-.19.206-.238-.156-.576-.377-29.184-19.22-8.8-5.892-2.374-1.632a5.6,5.6,0,0,1-.8-.609,5.324,5.324,0,0,1,.876.489l2.443,1.522,8.917,5.7,29.29,19.048.576.377-.428.05,23.237-24.874,7.083-7.466c.81-.833,1.458-1.5,1.949-2A5.281,5.281,0,0,1,209.391,101.04Z" transform="translate(-134.737 -101.039)" fill="#e0e0e0" opacity="0.16"/>
            </g>
          </g>
        </g>
        <g id="Group_12087" data-name="Group 12087" transform="translate(6.453 26.295)">
          <g id="Group_12086" data-name="Group 12086">
            <path id="Path_1682" data-name="Path 1682" d="M140.048,157.236c-.157-.109,4.615-7.806,10.657-17.191s11.07-16.906,11.229-16.8-4.614,7.8-10.657,17.193S140.206,157.346,140.048,157.236Z" transform="translate(-140.044 -123.247)" fill="#e0e0e0" opacity="0.16"/>
          </g>
        </g>
        <g id="Group_12089" data-name="Group 12089" transform="translate(53.08 23.046)">
          <g id="Group_12088" data-name="Group 12088">
            <path id="Path_1683" data-name="Path 1683" d="M180.34,120.441c.133-.134,6.517,6.344,14.256,14.465s13.908,14.817,13.775,14.951-6.516-6.341-14.257-14.465S180.207,120.577,180.34,120.441Z" transform="translate(-180.338 -120.439)" fill="#e0e0e0" opacity="0.16"/>
          </g>
        </g>
      </g>
      <g id="Group_12099" data-name="Group 12099" transform="translate(0)">
        <g id="Group_12091" data-name="Group 12091" transform="translate(0.103)">
          <path id="Path_1684" data-name="Path 1684" d="M120.5,98.837,79.246,70.269,98.732,41.3l41.256,28.568Z" transform="translate(-79.246 -41.295)" fill="#f5f5f5" opacity="0.149"/>
        </g>
        <g id="Group_12094" data-name="Group 12094" transform="translate(19.484 0.44)">
          <g id="Group_12093" data-name="Group 12093">
            <g id="Group_12092" data-name="Group 12092">
              <path id="Path_1685" data-name="Path 1685" d="M137.254,70.244a3.421,3.421,0,0,1-.643.119l-1.854.253-6.832.846-22.609,2.624-.186.021-.052-.183-.128-.442c-2.5-8.751-4.765-16.672-6.421-22.463-.789-2.844-1.434-5.163-1.9-6.823-.2-.774-.368-1.393-.493-1.863A3.761,3.761,0,0,1,96,41.676a3.554,3.554,0,0,1,.231.629c.145.463.336,1.073.575,1.835.5,1.649,1.186,3.953,2.035,6.779l6.548,22.42.128.442-.24-.161L127.9,71.136l6.845-.7,1.861-.167A3.333,3.333,0,0,1,137.254,70.244Z" transform="translate(-95.995 -41.676)" fill="#e0e0e0" opacity="0.16"/>
            </g>
          </g>
        </g>
        <g id="Group_12096" data-name="Group 12096" transform="translate(0 21.712)">
          <g id="Group_12095" data-name="Group 12095">
            <path id="Path_1686" data-name="Path 1686" d="M79.157,67.76c-.032-.124,5.742-1.947,12.894-4.072s12.981-3.747,13.013-3.622-5.741,1.946-12.9,4.072S79.189,67.884,79.157,67.76Z" transform="translate(-79.157 -60.059)" fill="#e0e0e0" opacity="0.16"/>
          </g>
        </g>
        <g id="Group_12098" data-name="Group 12098" transform="translate(39.828 30.852)">
          <g id="Group_12097" data-name="Group 12097">
            <path id="Path_1687" data-name="Path 1687" d="M113.613,67.958c.126-.009.539,6.055.925,13.546s.594,13.573.467,13.584-.54-6.054-.925-13.548S113.487,67.968,113.613,67.958Z" transform="translate(-113.576 -67.958)" fill="#e0e0e0" opacity="0.16"/>
          </g>
        </g>
      </g>
      <g id="Group_12100" data-name="Group 12100" transform="translate(280.96 49.551)">
        <path id="Path_1688" data-name="Path 1688" d="M413.958,130.116a46,46,0,1,0-85.647,23.239h-.024l.131.172c1.763,2.973,3.974,5.1,6.206,8.222l26.707,35.377a8.307,8.307,0,0,0,13.26,0l26.263-34.8a99.034,99.034,0,0,0,6.68-8.851l.095-.125h-.019A45.71,45.71,0,0,0,413.958,130.116Zm-46,20.028A20.243,20.243,0,1,1,388.2,129.9,20.243,20.243,0,0,1,367.96,150.144Z" transform="translate(-321.961 -84.118)" fill="#f5f5f5" opacity="0.149"/>
      </g>
      <g id="Group_12101" data-name="Group 12101" transform="translate(358.521 149.686)">
        <path id="Path_1689" data-name="Path 1689" d="M438.6,195.458a24.8,24.8,0,1,0-46.185,12.532H392.4l.071.093c.951,1.6,2.143,2.749,3.346,4.433l14.4,19.078a4.479,4.479,0,0,0,7.15,0L431.53,212.83a53.466,53.466,0,0,0,3.6-4.773l.051-.067h-.009A24.652,24.652,0,0,0,438.6,195.458Zm-24.8,10.8a10.916,10.916,0,1,1,10.915-10.915A10.916,10.916,0,0,1,413.794,206.257Z" transform="translate(-388.989 -170.653)" fill="#ebebeb" opacity="0.149"/>
      </g>
    </g>
    <g id="Character" transform="translate(28.671 28.991)">
      <g id="Group_12243" data-name="Group 12243" transform="translate(90.26)">
        <g id="Group_12242" data-name="Group 12242">
          <g id="Group_12234" data-name="Group 12234" transform="translate(0 4.915)">
            <g id="Group_12233" data-name="Group 12233">
              <g id="Group_12227" data-name="Group 12227" transform="translate(0 3.556)">
                <g id="Group_12226" data-name="Group 12226">
                  <g id="Group_12122" data-name="Group 12122" transform="translate(8.397)">
                    <g id="Group_12121" data-name="Group 12121">
                      <g id="Group_12120" data-name="Group 12120">
                        <g id="Group_12110" data-name="Group 12110">
                          <g id="Group_12109" data-name="Group 12109">
                            <g id="Group_12108" data-name="Group 12108">
                              <g id="Group_12107" data-name="Group 12107">
                                <g id="Group_12106" data-name="Group 12106">
                                  <g id="Group_12105" data-name="Group 12105">
                                    <g id="Group_12104" data-name="Group 12104">
                                      <g id="Group_12103" data-name="Group 12103">
                                        <g id="Group_12102" data-name="Group 12102">
                                          <path id="Path_1690" data-name="Path 1690" d="M189.375,126.052,196.988,233.9a33.627,33.627,0,0,0,33.543,31.258h0a33.625,33.625,0,0,0,33.554-35.825c-.676-10.266-1.286-18.673-1.286-18.673s26.11-4.059,26.431-30.164c.186-15.078-2.414-49.292-4.644-75.5A34.236,34.236,0,0,0,250.461,73.67h-15.77A48.315,48.315,0,0,0,189.375,126.052Z" transform="translate(-189.193 -73.67)" fill="#febe9d"/>
                                        </g>
                                      </g>
                                    </g>
                                  </g>
                                </g>
                              </g>
                            </g>
                          </g>
                        </g>
                        <g id="Group_12119" data-name="Group 12119" transform="translate(39.616 126.944)">
                          <g id="Group_12118" data-name="Group 12118">
                            <g id="Group_12117" data-name="Group 12117">
                              <g id="Group_12116" data-name="Group 12116">
                                <g id="Group_12115" data-name="Group 12115">
                                  <g id="Group_12114" data-name="Group 12114">
                                    <g id="Group_12113" data-name="Group 12113">
                                      <g id="Group_12112" data-name="Group 12112">
                                        <g id="Group_12111" data-name="Group 12111">
                                          <path id="Path_1691" data-name="Path 1691" d="M257.462,193.047s-16.5,1.342-34.033-9.673c0,0,8.044,18.789,34.094,16.437Z" transform="translate(-223.429 -183.374)" fill="#aa6550"/>
                                        </g>
                                      </g>
                                    </g>
                                  </g>
                                </g>
                              </g>
                            </g>
                          </g>
                        </g>
                      </g>
                    </g>
                  </g>
                  <g id="Group_12205" data-name="Group 12205" transform="translate(42.587 39.523)">
                    <g id="Group_12204" data-name="Group 12204">
                      <g id="Group_12185" data-name="Group 12185" transform="translate(2.536 14.061)">
                        <g id="Group_12184" data-name="Group 12184">
                          <g id="Group_12183" data-name="Group 12183">
                            <g id="Group_12142" data-name="Group 12142" transform="translate(39.434)">
                              <g id="Group_12131" data-name="Group 12131" transform="translate(3.676 5.904)">
                                <g id="Group_12130" data-name="Group 12130">
                                  <g id="Group_12129" data-name="Group 12129">
                                    <g id="Group_12128" data-name="Group 12128">
                                      <g id="Group_12127" data-name="Group 12127">
                                        <g id="Group_12126" data-name="Group 12126">
                                          <g id="Group_12125" data-name="Group 12125">
                                            <g id="Group_12124" data-name="Group 12124">
                                              <g id="Group_12123" data-name="Group 12123">
                                                <path id="Path_1692" data-name="Path 1692" d="M265.626,128.447a3.727,3.727,0,0,1-3.594,3.762,3.566,3.566,0,0,1-3.843-3.362,3.728,3.728,0,0,1,3.591-3.763A3.568,3.568,0,0,1,265.626,128.447Z" transform="translate(-258.187 -125.079)" fill="#263238"/>
                                              </g>
                                            </g>
                                          </g>
                                        </g>
                                      </g>
                                    </g>
                                  </g>
                                </g>
                              </g>
                              <g id="Group_12141" data-name="Group 12141">
                                <g id="Group_12140" data-name="Group 12140">
                                  <g id="Group_12139" data-name="Group 12139">
                                    <g id="Group_12138" data-name="Group 12138">
                                      <g id="Group_12137" data-name="Group 12137">
                                        <g id="Group_12136" data-name="Group 12136">
                                          <g id="Group_12135" data-name="Group 12135">
                                            <g id="Group_12134" data-name="Group 12134">
                                              <g id="Group_12133" data-name="Group 12133">
                                                <g id="Group_12132" data-name="Group 12132">
                                                  <path id="Path_1693" data-name="Path 1693" d="M269.745,123.9c-.463.486-3.286-1.6-7.3-1.592-4.007-.047-6.951,2.017-7.386,1.525-.214-.218.257-1.095,1.539-2.028a10.228,10.228,0,0,1,5.913-1.823,9.831,9.831,0,0,1,5.809,1.875C269.554,122.8,269.972,123.678,269.745,123.9Z" transform="translate(-255.01 -119.977)" fill="#263238"/>
                                                </g>
                                              </g>
                                            </g>
                                          </g>
                                        </g>
                                      </g>
                                    </g>
                                  </g>
                                </g>
                              </g>
                            </g>
                            <g id="Group_12162" data-name="Group 12162" transform="translate(0 0.749)">
                              <g id="Group_12151" data-name="Group 12151" transform="translate(3.968 5.155)">
                                <g id="Group_12150" data-name="Group 12150">
                                  <g id="Group_12149" data-name="Group 12149">
                                    <g id="Group_12148" data-name="Group 12148">
                                      <g id="Group_12147" data-name="Group 12147">
                                        <g id="Group_12146" data-name="Group 12146">
                                          <g id="Group_12145" data-name="Group 12145">
                                            <g id="Group_12144" data-name="Group 12144">
                                              <g id="Group_12143" data-name="Group 12143">
                                                <path id="Path_1694" data-name="Path 1694" d="M231.8,128.449a3.728,3.728,0,0,1-3.594,3.761,3.565,3.565,0,0,1-3.843-3.362,3.729,3.729,0,0,1,3.591-3.763A3.568,3.568,0,0,1,231.8,128.449Z" transform="translate(-224.36 -125.079)" fill="#263238"/>
                                              </g>
                                            </g>
                                          </g>
                                        </g>
                                      </g>
                                    </g>
                                  </g>
                                </g>
                              </g>
                              <g id="Group_12161" data-name="Group 12161">
                                <g id="Group_12160" data-name="Group 12160">
                                  <g id="Group_12159" data-name="Group 12159">
                                    <g id="Group_12158" data-name="Group 12158">
                                      <g id="Group_12157" data-name="Group 12157">
                                        <g id="Group_12156" data-name="Group 12156">
                                          <g id="Group_12155" data-name="Group 12155">
                                            <g id="Group_12154" data-name="Group 12154">
                                              <g id="Group_12153" data-name="Group 12153">
                                                <g id="Group_12152" data-name="Group 12152">
                                                  <path id="Path_1695" data-name="Path 1695" d="M235.667,124.543c-.463.486-3.291-1.6-7.3-1.593-4.007-.047-6.952,2.016-7.387,1.525-.213-.218.253-1.095,1.54-2.027a10.218,10.218,0,0,1,5.912-1.824,9.827,9.827,0,0,1,5.81,1.876C235.473,123.445,235.893,124.325,235.667,124.543Z" transform="translate(-220.931 -120.624)" fill="#263238"/>
                                                </g>
                                              </g>
                                            </g>
                                          </g>
                                        </g>
                                      </g>
                                    </g>
                                  </g>
                                </g>
                              </g>
                            </g>
                            <g id="Group_12172" data-name="Group 12172" transform="translate(27.416 0.992)">
                              <g id="Group_12171" data-name="Group 12171">
                                <g id="Group_12170" data-name="Group 12170">
                                  <g id="Group_12169" data-name="Group 12169">
                                    <g id="Group_12168" data-name="Group 12168">
                                      <g id="Group_12167" data-name="Group 12167">
                                        <g id="Group_12166" data-name="Group 12166">
                                          <g id="Group_12165" data-name="Group 12165">
                                            <g id="Group_12164" data-name="Group 12164">
                                              <g id="Group_12163" data-name="Group 12163">
                                                <path id="Path_1696" data-name="Path 1696" d="M246.5,154.26c-.018-.228,2.475-.658,6.516-1.176,1.024-.105,1.994-.309,2.166-1.009.242-.739-.187-1.843-.684-3.035q-1.446-3.718-3.029-7.8c-4.207-11.106-7.252-20.238-6.8-20.4s4.224,8.7,8.43,19.808q1.519,4.108,2.9,7.847c.388,1.164,1.054,2.484.531,4.021a2.569,2.569,0,0,1-1.684,1.5,6.953,6.953,0,0,1-1.739.242C249.041,154.47,246.518,154.488,246.5,154.26Z" transform="translate(-244.624 -120.834)" fill="#263238"/>
                                              </g>
                                            </g>
                                          </g>
                                        </g>
                                      </g>
                                    </g>
                                  </g>
                                </g>
                              </g>
                            </g>
                            <g id="Group_12182" data-name="Group 12182" transform="translate(16.837 37.193)">
                              <g id="Group_12181" data-name="Group 12181">
                                <g id="Group_12180" data-name="Group 12180">
                                  <g id="Group_12179" data-name="Group 12179">
                                    <g id="Group_12178" data-name="Group 12178">
                                      <g id="Group_12177" data-name="Group 12177">
                                        <g id="Group_12176" data-name="Group 12176">
                                          <g id="Group_12175" data-name="Group 12175">
                                            <g id="Group_12174" data-name="Group 12174">
                                              <g id="Group_12173" data-name="Group 12173">
                                                <path id="Path_1697" data-name="Path 1697" d="M236.133,152.119c.653-.038.661,4.317,4.388,7.407s8.363,2.612,8.4,3.221c.06.272-1.035.845-2.992.9a10.843,10.843,0,0,1-7.009-2.443,9.45,9.45,0,0,1-3.4-6.212C235.35,153.172,235.835,152.094,236.133,152.119Z" transform="translate(-235.482 -152.119)" fill="#263238"/>
                                              </g>
                                            </g>
                                          </g>
                                        </g>
                                      </g>
                                    </g>
                                  </g>
                                </g>
                              </g>
                            </g>
                          </g>
                        </g>
                      </g>
                      <g id="Group_12194" data-name="Group 12194">
                        <g id="Group_12193" data-name="Group 12193">
                          <g id="Group_12192" data-name="Group 12192">
                            <g id="Group_12191" data-name="Group 12191">
                              <g id="Group_12190" data-name="Group 12190">
                                <g id="Group_12189" data-name="Group 12189">
                                  <g id="Group_12188" data-name="Group 12188">
                                    <g id="Group_12187" data-name="Group 12187">
                                      <g id="Group_12186" data-name="Group 12186">
                                        <path id="Path_1698" data-name="Path 1698" d="M237.047,110.832c-.4,1.091-4.4.574-9.107,1.141-4.719.473-8.514,1.85-9.139.872-.278-.468.383-1.494,1.919-2.55a15.951,15.951,0,0,1,13.9-1.533C236.347,109.458,237.217,110.315,237.047,110.832Z" transform="translate(-218.74 -107.826)" fill="#263238"/>
                                      </g>
                                    </g>
                                  </g>
                                </g>
                              </g>
                            </g>
                          </g>
                        </g>
                      </g>
                      <g id="Group_12203" data-name="Group 12203" transform="translate(41.57 2.214)">
                        <g id="Group_12202" data-name="Group 12202">
                          <g id="Group_12201" data-name="Group 12201">
                            <g id="Group_12200" data-name="Group 12200">
                              <g id="Group_12199" data-name="Group 12199">
                                <g id="Group_12198" data-name="Group 12198">
                                  <g id="Group_12197" data-name="Group 12197">
                                    <g id="Group_12196" data-name="Group 12196">
                                      <g id="Group_12195" data-name="Group 12195">
                                        <path id="Path_1699" data-name="Path 1699" d="M268.324,113.894c-.706.911-3.469-.035-6.792-.079-3.321-.161-6.136.612-6.784-.341-.283-.462.159-1.375,1.389-2.238a9.835,9.835,0,0,1,10.94.339C268.25,112.512,268.635,113.45,268.324,113.894Z" transform="translate(-254.665 -109.739)" fill="#263238"/>
                                      </g>
                                    </g>
                                  </g>
                                </g>
                              </g>
                            </g>
                          </g>
                        </g>
                      </g>
                    </g>
                  </g>
                  <g id="Group_12225" data-name="Group 12225" transform="translate(0 71.153)">
                    <g id="Group_12214" data-name="Group 12214">
                      <g id="Group_12213" data-name="Group 12213">
                        <g id="Group_12212" data-name="Group 12212">
                          <g id="Group_12211" data-name="Group 12211">
                            <g id="Group_12210" data-name="Group 12210">
                              <g id="Group_12209" data-name="Group 12209">
                                <g id="Group_12208" data-name="Group 12208">
                                  <g id="Group_12207" data-name="Group 12207">
                                    <g id="Group_12206" data-name="Group 12206">
                                      <path id="Path_1700" data-name="Path 1700" d="M199.316,135.983c-.444-.193-17.936-5.3-17.366,12.542s18.37,13.593,18.385,13.08S199.316,135.983,199.316,135.983Z" transform="translate(-181.936 -135.16)" fill="#febe9d"/>
                                    </g>
                                  </g>
                                </g>
                              </g>
                            </g>
                          </g>
                        </g>
                      </g>
                    </g>
                    <g id="Group_12224" data-name="Group 12224" transform="translate(4.545 5.844)">
                      <g id="Group_12223" data-name="Group 12223">
                        <g id="Group_12222" data-name="Group 12222">
                          <g id="Group_12221" data-name="Group 12221">
                            <g id="Group_12220" data-name="Group 12220">
                              <g id="Group_12219" data-name="Group 12219">
                                <g id="Group_12218" data-name="Group 12218">
                                  <g id="Group_12217" data-name="Group 12217">
                                    <g id="Group_12216" data-name="Group 12216">
                                      <g id="Group_12215" data-name="Group 12215">
                                        <path id="Path_1701" data-name="Path 1701" d="M194.05,154.224c-.08-.054-.3.228-.822.486a3.116,3.116,0,0,1-2.322.122c-1.907-.632-3.591-3.574-3.78-6.788a10.255,10.255,0,0,1,.729-4.479,3.589,3.589,0,0,1,2.262-2.461,1.584,1.584,0,0,1,1.862.793c.255.492.153.852.248.879.052.043.375-.311.207-1.044a1.992,1.992,0,0,0-.737-1.1,2.354,2.354,0,0,0-1.735-.4,4.366,4.366,0,0,0-3.159,2.871,10.568,10.568,0,0,0-.92,5.008c.23,3.593,2.178,6.9,4.782,7.563a3.333,3.333,0,0,0,2.828-.564C194.031,154.657,194.113,154.254,194.05,154.224Z" transform="translate(-185.864 -140.21)" fill="#aa6550"/>
                                      </g>
                                    </g>
                                  </g>
                                </g>
                              </g>
                            </g>
                          </g>
                        </g>
                      </g>
                    </g>
                  </g>
                </g>
              </g>
              <g id="Group_12232" data-name="Group 12232" transform="translate(4.303)">
                <g id="Group_12231" data-name="Group 12231">
                  <g id="Group_12230" data-name="Group 12230">
                    <g id="Group_12229" data-name="Group 12229">
                      <g id="Group_12228" data-name="Group 12228">
                        <path id="Path_1702" data-name="Path 1702" d="M188.8,145.523c2.723-.658,7.431,1.854,8.592,4.4s1.416,5.436,2.572,7.987,3.773,4.857,6.5,4.212a5.491,5.491,0,0,0,3.719-4.073,15.088,15.088,0,0,0,.053-5.756c-1.052-8.335-2.8-16.6-3.139-24.994s.861-17.115,5.268-24.268,12.5-12.41,20.877-11.735c5.547.447,10.634,3.338,16.145,4.111A21.805,21.805,0,0,0,267.5,89.364c.6-.6,3.385-2.434,3.385-2.434,0-.433-.407-4.16-1.878-5.518-10.932-10.11-30.631-12.932-45.071-9.3s-27.976,13.83-34.189,27.362-4.371,32.355-.948,46.049" transform="translate(-185.655 -70.597)" fill="#263238"/>
                      </g>
                    </g>
                  </g>
                </g>
              </g>
            </g>
          </g>
          <g id="Group_12236" data-name="Group 12236" transform="translate(1.542)">
            <g id="Group_12235" data-name="Group 12235">
              <path id="Path_1703" data-name="Path 1703" d="M285.807,102.116S217.321,80.082,187.7,139.334c0,0-4.427-14.828-4.427-22.776,0-5.309,3.175-36.925,35.706-46.869C218.975,69.688,267.985,50.983,285.807,102.116Z" transform="translate(-183.269 -66.349)" fill="#26b1ea"/>
            </g>
          </g>
          <g id="Group_12238" data-name="Group 12238" transform="translate(43.908 24.985)">
            <g id="Group_12237" data-name="Group 12237">
              <path id="Path_1704" data-name="Path 1704" d="M221.209,100.2a14.9,14.9,0,0,0,23.713,2.157,8.783,8.783,0,0,0,16.6-.87c1.99,1.93,4.06,3.911,6.663,4.865s5.9.592,7.609-1.589c1.74-2.223,1.233-5.608-.473-7.856s-4.337-3.586-6.942-4.674c-8.135-3.4-17.106-5.1-25.843-3.918s-17.2,5.419-22.658,12.34" transform="translate(-219.881 -87.941)" fill="#263238"/>
            </g>
          </g>
          <g id="Group_12240" data-name="Group 12240" transform="translate(1.542)" opacity="0.4">
            <g id="Group_12239" data-name="Group 12239">
              <path id="Path_1705" data-name="Path 1705" d="M285.807,102.116a31.822,31.822,0,0,0-21.777-9.889c-20.2-.893-58.013,10.466-76.333,47.106,0,0-4.427-14.828-4.427-22.776,0-5.309,3.175-36.925,35.706-46.869C218.975,69.688,267.985,50.983,285.807,102.116Z" transform="translate(-183.269 -66.349)"/>
            </g>
          </g>
          <g id="Group_12241" data-name="Group 12241" transform="translate(8.83 1.446)">
            <path id="Path_1706" data-name="Path 1706" d="M189.567,132.2c10.156-15.537,24.158-28.384,39.9-38.218s41.774-19.562,59.715-24.323c5.386-1.429,11-2.679,16.493-1.73s10.865,4.6,12.229,10.008c1.706,6.763-10.3,17.2-15.939,21.3s-17.147,10.124-17.147,10.124.155-12.545-19.924-15.131C237.584,90.717,189.567,132.2,189.567,132.2Z" transform="translate(-189.567 -67.599)" fill="#26b1ea"/>
          </g>
        </g>
        <path id="Path_1707" data-name="Path 1707" d="M238.244,80.554s9.868-5.459,19.779-6.731a25.524,25.524,0,0,0-5.375-3.226,50.941,50.941,0,0,0-15.413,5.183Z" transform="translate(-173.246 -65.682)" fill="#e0e0e0"/>
      </g>
      <path id="Path_1708" data-name="Path 1708" d="M314.773,213.96l-21.722-4.786-8.836-2.209-7.363-11.413s-3.511,20.4-16.653,31.379a15.273,15.273,0,0,1-12.941,3.106c-2.978-.625-6.472-1.4-9.063-2.088-.552-.147-1.159-.342-1.806-.574a42.362,42.362,0,0,1-22.364-19.3c-2.924-5.186-5.387-10.509-4.546-12.527L199.171,216.9l-60.747,27.98L103.934,329.1l66.842,19.771,2.081,69.4-12.592,87.522,189.118.132-6.706-194.74" transform="translate(-103.934 -46.046)" fill="#26b1ea"/>
      <g id="Group_12244" data-name="Group 12244" transform="translate(143.42 189.967)">
        <path id="Path_1709" data-name="Path 1709" d="M246.406,283.85a6.9,6.9,0,0,1-1.192.025l-3.363-.08-12.023-.427-.236-.008-.009-.238c-.2-5.219-.445-11.4-.7-18.008-.315-9.518-.6-18.129-.809-24.459-.073-3.072-.132-5.586-.176-7.415-.007-.824-.013-1.492-.017-2.018a3.133,3.133,0,0,1,.036-.7,3.178,3.178,0,0,1,.086.7c.035.525.078,1.192.131,2.012.09,1.828.215,4.338.367,7.407.256,6.327.6,14.938.986,24.452.226,6.613.437,12.791.616,18.012l-.245-.246,12.013.643,3.356.22A6.762,6.762,0,0,1,246.406,283.85Z" transform="translate(-227.877 -230.518)" fill="#263238"/>
      </g>
      <g id="Group_12245" data-name="Group 12245" transform="translate(148.136 214.424)">
        <path id="Path_1710" data-name="Path 1710" d="M235.458,252.4a1.576,1.576,0,0,1,.9-.3,3.7,3.7,0,0,1,2.494.692,3.81,3.81,0,0,1,1.214,1.38,3.517,3.517,0,0,1,.329,2.1,4.264,4.264,0,0,1-3.09,3.488,4.494,4.494,0,0,1-4.4-1.57,4.278,4.278,0,0,1-.83-3.74,4.626,4.626,0,0,1,1.25-2.262c.443-.426.759-.565.775-.538.03.042-.234.244-.6.7a4.875,4.875,0,0,0-1.006,2.19,3.911,3.911,0,0,0,.839,3.3,3.993,3.993,0,0,0,3.83,1.341,3.758,3.758,0,0,0,2.683-2.987,3.157,3.157,0,0,0-1.247-3.056,3.7,3.7,0,0,0-2.229-.8C235.793,252.338,235.475,252.45,235.458,252.4Z" transform="translate(-231.952 -251.653)" fill="#263238"/>
      </g>
      <g id="Group_12246" data-name="Group 12246" transform="translate(146.797 189.961)">
        <path id="Path_1711" data-name="Path 1711" d="M233.615,231.269a1.84,1.84,0,0,1,.951-.433,4.111,4.111,0,0,1,2.825.415,4.165,4.165,0,0,1,1.516,1.341,3.777,3.777,0,0,1,.625,2.256,4.513,4.513,0,0,1-3.051,4.1,4.62,4.62,0,0,1-4.837-1.685,4.058,4.058,0,0,1-.838-2.18,4.667,4.667,0,0,1,2.141-4.195,1.973,1.973,0,0,1,.974-.375c.02.051-.329.18-.842.568a4.654,4.654,0,0,0-1.549,2.158,3.792,3.792,0,0,0,.553,3.682,4.111,4.111,0,0,0,4.225,1.45,4,4,0,0,0,2.671-3.552,3.449,3.449,0,0,0-1.794-3.2,4.136,4.136,0,0,0-2.577-.557C233.971,231.148,233.639,231.32,233.615,231.269Z" transform="translate(-230.795 -230.513)" fill="#263238"/>
      </g>
      <g id="Group_12247" data-name="Group 12247" transform="translate(143.455 181.994)">
        <path id="Path_1712" data-name="Path 1712" d="M227.907,325.751a1.382,1.382,0,0,1,.29-.133l.868-.336c.774-.262,1.876-.75,3.279-1.4a43.219,43.219,0,0,0,10.641-7.567A84.294,84.294,0,0,0,255.169,301.2a213.948,213.948,0,0,0,11.873-20.688A359.054,359.054,0,0,0,283.9,240.566c1.9-5.22,3.366-9.468,4.395-12.4.5-1.431.9-2.56,1.188-3.374l.323-.872a1.323,1.323,0,0,1,.13-.292,1.175,1.175,0,0,1-.072.31c-.069.235-.157.528-.266.892-.26.824-.621,1.964-1.081,3.411-.96,2.955-2.37,7.226-4.216,12.468a334.224,334.224,0,0,1-16.722,40.077,206.834,206.834,0,0,1-11.946,20.72,82.821,82.821,0,0,1-12.356,15.12,41.874,41.874,0,0,1-10.831,7.467,30.584,30.584,0,0,1-3.341,1.3l-.89.279A1.177,1.177,0,0,1,227.907,325.751Z" transform="translate(-227.907 -223.628)" fill="#263238"/>
      </g>
      <g id="Group_12248" data-name="Group 12248" transform="translate(141.441 253.456)">
        <path id="Path_1713" data-name="Path 1713" d="M226.167,341.489a4.189,4.189,0,0,1,.657-.5l1.942-1.342c1.68-1.172,4.1-2.889,7-5.119,5.833-4.432,13.488-11.059,21.722-18.628,4.13-3.776,8.086-7.345,11.507-10.767a89.037,89.037,0,0,0,8.483-9.627,53.154,53.154,0,0,0,4.642-7.294c.5-.892.817-1.622,1.065-2.1a4.326,4.326,0,0,1,.4-.724,4.092,4.092,0,0,1-.285.774c-.213.5-.494,1.246-.966,2.159a47.965,47.965,0,0,1-4.509,7.439,84.629,84.629,0,0,1-8.432,9.767c-3.414,3.458-7.365,7.046-11.494,10.821a285.027,285.027,0,0,1-21.871,18.522c-2.945,2.192-5.4,3.859-7.128,4.975-.861.559-1.546.967-2.006,1.249A4.269,4.269,0,0,1,226.167,341.489Z" transform="translate(-226.167 -285.385)" fill="#263238"/>
      </g>
      <g id="Group_12249" data-name="Group 12249" transform="translate(108.997 349.842)">
        <path id="Path_1714" data-name="Path 1714" d="M198.129,456.953a1.249,1.249,0,0,1,.143-.271l.473-.763c.424-.667,1.073-1.633,1.939-2.856,1.743-2.44,4.425-5.857,7.965-9.882,7.126-8,17.111-18.911,28.112-30.992l28.273-30.851c3.615-3.9,6.551-7.069,8.618-9.3l2.366-2.508.626-.642a1.148,1.148,0,0,1,.229-.2,1.221,1.221,0,0,1-.183.247l-.583.681-2.282,2.585-8.477,9.432c-7.23,7.955-17.165,18.888-28.142,30.969l-28.238,30.868c-3.574,3.98-6.3,7.347-8.094,9.739-.894,1.2-1.573,2.142-2.029,2.784-.212.3-.384.537-.522.729A1.1,1.1,0,0,1,198.129,456.953Z" transform="translate(-198.128 -368.682)" fill="#263238"/>
      </g>
      <path id="Path_1715" data-name="Path 1715" d="M284.839,210.954c.994,1.49,23.357,3.976,28.823,9.442s60.131,47.21,60.131,47.21l-38.939,52.518-25.162-5.539Z" transform="translate(-75.506 -43.625)" fill="#26b1ea"/>
      <path id="Path_1716" data-name="Path 1716" d="M361.96,255.557l-43.706,55.059,11.349,2.5L368.542,260.6Z" transform="translate(-70.254 -36.616)" opacity="0.4"/>
      <g id="Group_12250" data-name="Group 12250" transform="translate(219.889 177.11)">
        <path id="Path_1717" data-name="Path 1717" d="M295.32,264.295a11.083,11.083,0,0,1-.453-1.828,20.817,20.817,0,0,1-.383-2.178c-.112-.855-.282-1.826-.339-2.911-.09-1.083-.177-2.271-.169-3.55-.051-1.279.036-2.643.1-4.08a52.633,52.633,0,0,1,4.5-18.072c.618-1.3,1.181-2.544,1.826-3.651.592-1.134,1.225-2.142,1.813-3.056.559-.934,1.164-1.71,1.664-2.413a21.19,21.19,0,0,1,1.359-1.745,11.106,11.106,0,0,1,1.257-1.4,11.179,11.179,0,0,1-1.071,1.547c-.367.479-.805,1.073-1.269,1.795s-1.046,1.5-1.577,2.444c-.56.921-1.166,1.932-1.735,3.066-.619,1.106-1.159,2.348-1.758,3.639a55.151,55.151,0,0,0-4.452,17.888c-.078,1.42-.182,2.77-.153,4.037-.03,1.267.031,2.445.1,3.521.028,1.08.168,2.046.248,2.9s.181,1.585.279,2.181A11.309,11.309,0,0,1,295.32,264.295Z" transform="translate(-293.961 -219.407)" fill="#263238"/>
      </g>
      <g id="Group_12251" data-name="Group 12251" transform="translate(229.621 243.55)">
        <path id="Path_1718" data-name="Path 1718" d="M311.494,298.413c-.154.065-2.318-4.717-4.835-10.676s-4.433-10.847-4.279-10.912,2.317,4.715,4.835,10.677S311.647,298.348,311.494,298.413Z" transform="translate(-302.371 -276.824)" fill="#263238"/>
      </g>
      <g id="Group_12252" data-name="Group 12252" transform="translate(42.159 203.058)">
        <path id="Path_1719" data-name="Path 1719" d="M165.051,265.791c-.093.05-1.029-1.671-2.8-4.278A60.044,60.044,0,0,0,144.727,244.5c-2.658-1.691-4.406-2.573-4.359-2.668a6.065,6.065,0,0,1,1.274.529c.806.369,1.942.971,3.308,1.777a53.259,53.259,0,0,1,17.659,17.137c.846,1.342,1.482,2.459,1.875,3.255A6.022,6.022,0,0,1,165.051,265.791Z" transform="translate(-140.367 -241.831)" fill="#263238"/>
      </g>
      <path id="Path_1720" data-name="Path 1720" d="M103.934,311.858l2.686-6.559,73.952,20.133-2.932,8.228Z" transform="translate(-103.934 -28.799)" opacity="0.4"/>
      <g id="Group_12253" data-name="Group 12253" transform="translate(96.979 172.709)" opacity="0.2">
        <path id="Path_1721" data-name="Path 1721" d="M187.743,216.3c1.018,9.029,2.125,18.337,6.589,26.251s13.205,14.151,22.2,12.824c6-.886,11.078-4.9,15.163-9.38s7.5-9.577,11.961-13.687a52.54,52.54,0,0,0,8.978,7.724A17.638,17.638,0,0,0,263.887,243c3.928-.472,6.092-2.026,7.333-5.785-4.193,1.3-6.5,1.109-10.669.3a29.2,29.2,0,0,1-12.631-5.805c-2.454-1.932-3.338-4.836-6.457-4.655-2.881.167-5.138,2.447-7.037,4.62a80.944,80.944,0,0,1-10.037,9.678c-3.459,2.741-6.832,4.594-11.244,4.5-7.283-.159-13.245-5.876-17.265-11.951a59.931,59.931,0,0,1-8.09-18.292" transform="translate(-187.743 -215.604)"/>
      </g>
      <g id="Group_12254" data-name="Group 12254" transform="translate(152.359 162.141)">
        <path id="Path_1722" data-name="Path 1722" d="M265.43,206.471a2.675,2.675,0,0,1,.123.645c.057.426.15,1.052.226,1.863.172,1.621.347,3.977.416,6.893a98.427,98.427,0,0,1-2.163,22.655l-.038.184-.037.183-.181.045a24.67,24.67,0,0,1-12.467-.329,29.535,29.535,0,0,1-9.234-4.329,23.827,23.827,0,0,1-5.046-4.663,13.756,13.756,0,0,1-1.094-1.515,2.579,2.579,0,0,1-.331-.56,29.2,29.2,0,0,0,6.711,6.389,29.964,29.964,0,0,0,9.138,4.143,24.438,24.438,0,0,0,12.169.281l-.218.228.038-.183a106,106,0,0,0,2.326-22.523c-.013-2.906-.124-5.257-.223-6.879-.045-.758-.082-1.376-.112-1.871A2.809,2.809,0,0,1,265.43,206.471Z" transform="translate(-235.601 -206.471)" fill="#263238"/>
      </g>
      <g id="Group_12255" data-name="Group 12255" transform="translate(95.897 169.278)">
        <path id="Path_1723" data-name="Path 1723" d="M237.95,228.333a3.822,3.822,0,0,1-.37.693,19.862,19.862,0,0,1-1.283,1.851,49.391,49.391,0,0,1-5.691,6c-1.284,1.183-2.727,2.438-4.29,3.765-.786.662-1.576,1.354-2.45,2.041A22.131,22.131,0,0,1,221,244.531a17.777,17.777,0,0,1-6.98,2.12,13.206,13.206,0,0,1-7.633-1.687,24.351,24.351,0,0,1-5.986-5.042,58.606,58.606,0,0,1-4.5-5.7,57.918,57.918,0,0,1-5.9-10.763,55.912,55.912,0,0,1-2.594-7.854c-.241-.947-.39-1.689-.481-2.2a3.858,3.858,0,0,1-.116-.776,3.776,3.776,0,0,1,.234.75c.131.5.315,1.228.589,2.162A64.335,64.335,0,0,0,190.4,223.3a59.658,59.658,0,0,0,10.446,16.228,23.977,23.977,0,0,0,5.842,4.913,12.662,12.662,0,0,0,7.3,1.624,17.34,17.34,0,0,0,6.762-2.021,21.978,21.978,0,0,0,2.8-1.775c.848-.656,1.66-1.352,2.449-2,1.575-1.31,3.028-2.541,4.325-3.7a55.58,55.58,0,0,0,5.794-5.833c.62-.746,1.069-1.353,1.364-1.77A3.8,3.8,0,0,1,237.95,228.333Z" transform="translate(-186.808 -212.639)" fill="#263238"/>
      </g>
      <g id="Group_12262" data-name="Group 12262" transform="translate(0 265.985)">
        <g id="Group_12260" data-name="Group 12260" transform="translate(0 0)">
          <g id="Group_12259" data-name="Group 12259" transform="translate(122.114)">
            <path id="Path_1724" data-name="Path 1724" d="M209.464,348.15l8.916-13s6.132-21.323,5.3-24.3-3.543-14.1-2.9-14.226,7.317-2.62,10.936,6.3c2.254,5.552,2.995,12.862,3.233,17.586a4.042,4.042,0,0,0,4.858,3.765c6.169-1.264,16.431-3.2,18.867-2.614,3.541.848,6.71,5.365,7.018,6.874s-2.136,4.927-2.136,4.927,3.01,1.541,3.934,3.866c.125.316.233.625.325.926a5.61,5.61,0,0,1-1.24,5.426l-.943,1.035s3.754,1.029,4.218,3.179a12.821,12.821,0,0,1-.129,4.742l-3.522,3.639a5.936,5.936,0,0,1,1.827,3.444c.182,1.983-5.1,6.882-5.1,6.882l-22.69,8.134-9,2.3Z" transform="translate(-209.464 -296.213)" fill="#febe9d"/>
            <g id="Group_12256" data-name="Group 12256" transform="translate(38.396 37.235)">
              <path id="Path_1725" data-name="Path 1725" d="M258.408,328.427c.024.169-3.516.812-7.86,1.7s-7.857,1.674-7.9,1.508a8.915,8.915,0,0,1,2.237-.775c1.4-.4,3.363-.878,5.544-1.323s4.172-.765,5.618-.95A8.788,8.788,0,0,1,258.408,328.427Z" transform="translate(-242.646 -328.391)" fill="#aa6550"/>
            </g>
            <g id="Group_12257" data-name="Group 12257" transform="translate(44.05 48.469)">
              <path id="Path_1726" data-name="Path 1726" d="M259.714,338.122c.049.16-2.639,1.121-6,2.148s-6.132,1.73-6.18,1.57,2.639-1.12,6-2.146A34.017,34.017,0,0,1,259.714,338.122Z" transform="translate(-247.531 -338.1)" fill="#aa6550"/>
            </g>
            <g id="Group_12258" data-name="Group 12258" transform="translate(44.589 59.553)">
              <path id="Path_1727" data-name="Path 1727" d="M261,347.692a42.136,42.136,0,0,1-6.377,3.117c-3.589,1.569-6.552,2.718-6.619,2.565s2.789-1.548,6.377-3.117S260.928,347.539,261,347.692Z" transform="translate(-247.998 -347.678)" fill="#aa6550"/>
            </g>
          </g>
          <path id="Path_1728" data-name="Path 1728" d="M173.761,425.69l83.45-55.984L236.16,331.568,159.991,370.74l8.642-41.159-51.69-15.289-12.9,70.423h0c-2,31.333,23.135,56.633,53.435,48.4h0A55.181,55.181,0,0,0,173.761,425.69Z" transform="translate(-103.934 -293.371)" fill="#febe9d"/>
        </g>
        <g id="Group_12261" data-name="Group 12261" transform="translate(44.452 76.576)">
          <path id="Path_1729" data-name="Path 1729" d="M142.931,385.28a3.47,3.47,0,0,1-.287-1.05,17.562,17.562,0,0,1-.289-2.951,20.49,20.49,0,0,1,8.449-16.938,17.551,17.551,0,0,1,2.532-1.545,3.431,3.431,0,0,1,1.011-.4c.051.1-1.35.758-3.285,2.285a21.564,21.564,0,0,0-8.281,16.6C142.725,383.745,143.04,385.262,142.931,385.28Z" transform="translate(-142.349 -362.39)" fill="#aa6550"/>
        </g>
      </g>
      <g id="Group_12286" data-name="Group 12286" transform="translate(167.093 228.519)">
        <g id="Group_12264" data-name="Group 12264" transform="translate(92.256)">
          <path id="Path_1730" data-name="Path 1730" d="M328.062,311.815c.522-.712,59.435,35.175,59.435,35.175l18.879,86.039L433.554,443s8.487-95.742,2.026-110.65-71.912-68.517-71.912-68.517Z" transform="translate(-328.062 -263.834)" fill="#febe9d"/>
          <g id="Group_12263" data-name="Group 12263" transform="translate(60.694 76.551)">
            <path id="Path_1731" data-name="Path 1731" d="M392.12,329.994a19.183,19.183,0,0,1-11.606,7.468c-.059-.179,2.961-1.075,6.172-3.161C389.916,332.243,391.981,329.865,392.12,329.994Z" transform="translate(-380.513 -329.989)" fill="#aa6550"/>
          </g>
        </g>
        <g id="Group_12280" data-name="Group 12280" transform="translate(0 44.458)">
          <path id="Path_1732" data-name="Path 1732" d="M266.835,305.965l4.61,82.571,94.146-6.363L362.742,320.7l-13.705-18.45Z" transform="translate(-245.428 -302.254)" fill="#263238"/>
          <path id="Path_1733" data-name="Path 1733" d="M248.335,379.791c.286,1.586,8.277,76.374,8.277,76.374l140.119-9.744,23.714-3.173L409.511,373.6l-16.752-4.008Z" transform="translate(-248.335 -291.672)" fill="#26b1ea"/>
          <path id="Path_1734" data-name="Path 1734" d="M392.759,369.593l-144.424,10.2c.286,1.586,8.277,76.374,8.277,76.374l145.88-10.146Z" transform="translate(-248.335 -291.672)" opacity="0.4"/>
          <path id="Path_1735" data-name="Path 1735" d="M351.478,383.126l-80.033,5.409-4.61-82.571,82.2-3.711Z" transform="translate(-245.428 -302.254)" fill="#455a64"/>
          <path id="Path_1736" data-name="Path 1736" d="M292.621,304.394l1.687,25.448,4.281-2.45,2.378,2.45,2.945-2.45,4.557,2.45V303.678Z" transform="translate(-241.376 -302.03)" fill="#263238"/>
          <g id="Group_12268" data-name="Group 12268" transform="translate(79.221 20.63)">
            <path id="Path_1737" data-name="Path 1737" d="M322.277,382.056,316.8,320.083l53.5,14.745,5.157,42.772Z" transform="translate(-316.797 -320.082)" fill="#26b1ea"/>
            <g id="Group_12265" data-name="Group 12265">
              <path id="Path_1738" data-name="Path 1738" d="M370.3,334.828a2.256,2.256,0,0,1-.331.444c-.272.319-.613.722-1.033,1.219L365,340.981l-13.673,15.331-.208.234-.218-.228c-2.284-2.394-4.742-4.969-7.281-7.631l-19.057-20.14c-2.381-2.558-4.324-4.647-5.726-6.151L317.3,320.7a3.933,3.933,0,0,1-.5-.618,3.916,3.916,0,0,1,.592.535l1.616,1.615,5.864,6.02,19.184,20.019,7.266,7.646-.426.006,13.83-15.188,4.059-4.377,1.105-1.155A2.322,2.322,0,0,1,370.3,334.828Z" transform="translate(-316.797 -320.082)" fill="#263238"/>
            </g>
            <g id="Group_12266" data-name="Group 12266" transform="translate(5.938 26.228)">
              <path id="Path_1739" data-name="Path 1739" d="M339.5,342.749c.147.079-3.667,7.394-8.515,16.337s-8.9,16.131-9.048,16.051,3.667-7.393,8.518-16.338S339.35,342.669,339.5,342.749Z" transform="translate(-321.928 -342.748)" fill="#263238"/>
            </g>
            <g id="Group_12267" data-name="Group 12267" transform="translate(41.362 30.745)">
              <path id="Path_1740" data-name="Path 1740" d="M368.594,373.425c-.143.086-3.851-5.839-8.282-13.231s-7.908-13.455-7.766-13.541,3.851,5.837,8.283,13.231S368.736,373.339,368.594,373.425Z" transform="translate(-352.542 -346.652)" fill="#263238"/>
            </g>
          </g>
          <g id="Group_12272" data-name="Group 12272" transform="translate(109.933 40.719)">
            <path id="Path_1741" data-name="Path 1741" d="M346.829,376.909l-3.489-39.465,34.069,9.39,3.284,27.238Z" transform="translate(-343.339 -337.443)" fill="#26b1ea"/>
            <path id="Path_1742" data-name="Path 1742" d="M346.829,376.909l-3.489-39.465,34.069,9.39,3.284,27.238Z" transform="translate(-343.339 -337.443)" fill="#fff" opacity="0.4"/>
            <g id="Group_12269" data-name="Group 12269">
              <path id="Path_1743" data-name="Path 1743" d="M377.409,346.834a7.183,7.183,0,0,1-.842,1.082l-2.482,2.881-8.677,9.788-.208.235-.217-.229-4.64-4.857c-4.756-4.994-9.036-9.538-12.112-12.848l-3.621-3.941a12.15,12.15,0,0,1-1.268-1.5,12.3,12.3,0,0,1,1.438,1.34l3.758,3.81c3.156,3.234,7.484,7.732,12.24,12.726l4.624,4.873-.426.006c3.518-3.839,6.575-7.178,8.837-9.646l2.607-2.768A7.2,7.2,0,0,1,377.409,346.834Z" transform="translate(-343.339 -337.443)" fill="#263238"/>
            </g>
            <g id="Group_12270" data-name="Group 12270" transform="translate(3.779 16.702)">
              <path id="Path_1744" data-name="Path 1744" d="M357.795,351.878c.147.08-2.239,4.762-5.326,10.456s-5.712,10.249-5.858,10.169,2.238-4.759,5.328-10.456S357.649,351.8,357.795,351.878Z" transform="translate(-346.604 -351.877)" fill="#263238"/>
            </g>
            <g id="Group_12271" data-name="Group 12271" transform="translate(26.337 19.579)">
              <path id="Path_1745" data-name="Path 1745" d="M376.325,371.413c-.142.086-2.546-3.662-5.367-8.37s-4.994-8.594-4.852-8.68,2.546,3.661,5.368,8.371S376.467,371.328,376.325,371.413Z" transform="translate(-366.099 -354.363)" fill="#263238"/>
            </g>
          </g>
          <path id="Path_1746" data-name="Path 1746" d="M365.121,344.117v3.175l4.976.577.26-2.423Z" transform="translate(-229.983 -295.675)" fill="#fff"/>
          <path id="Path_1747" data-name="Path 1747" d="M349.945,330.207v4.64l9.391,1.549.518-3.53Z" transform="translate(-232.368 -297.861)" fill="#fff"/>
          <path id="Path_1748" data-name="Path 1748" d="M320.859,396.719l-.462-23.08L301.675,374.9l2.006,23.439Z" transform="translate(-239.953 -291.036)" fill="#26b1ea"/>
          <g id="Group_12279" data-name="Group 12279" transform="translate(110.106 117.561)">
            <g id="Group_12274" data-name="Group 12274">
              <rect id="Rectangle_2168" data-name="Rectangle 2168" width="31.551" height="27.91" transform="translate(0.36 3.256) rotate(-5.416)" fill="#fafafa"/>
              <g id="Group_12273" data-name="Group 12273">
                <path id="Path_1749" data-name="Path 1749" d="M377.891,431.914a4.812,4.812,0,0,1-.079-.534c-.043-.381-.1-.877-.171-1.5-.145-1.352-.347-3.253-.6-5.653-.5-4.881-1.194-11.782-2.035-20.073l.279.23-31.4,3.024c-.063.071.511-.619.27-.324v.023l0,.029.006.059.012.119.022.236.045.472.089.942q.088.939.177,1.872.175,1.864.348,3.695.344,3.661.672,7.164c.433,4.661.842,9.082,1.223,13.173l-.29-.238,22.666-2.015,6.438-.54,1.718-.131a4.965,4.965,0,0,1,.612-.028,3.441,3.441,0,0,1-.547.082l-1.662.189-6.364.674-22.811,2.3-.264.027-.027-.266c-.4-4.089-.824-8.51-1.274-13.168l-.686-7.163q-.175-1.829-.352-3.695-.09-.932-.178-1.872l-.09-.942-.044-.472-.023-.236-.01-.119-.006-.059,0-.029v-.022c-.243.291.329-.406.273-.333l31.412-2.932.256-.024.022.255c.739,8.367,1.354,15.331,1.789,20.257.2,2.381.354,4.269.465,5.61.047.606.082,1.089.11,1.459A2.875,2.875,0,0,1,377.891,431.914Z" transform="translate(-343.488 -403.85)" fill="#263238"/>
              </g>
            </g>
            <g id="Group_12275" data-name="Group 12275" transform="translate(4.726 6.902)">
              <path id="Path_1750" data-name="Path 1750" d="M372.161,409.849c.017.167-5.473.879-12.262,1.595s-12.31,1.161-12.327,1,5.472-.878,12.263-1.595S372.144,409.684,372.161,409.849Z" transform="translate(-347.572 -409.814)" fill="#263238"/>
            </g>
            <g id="Group_12276" data-name="Group 12276" transform="translate(5.63 11.636)">
              <path id="Path_1751" data-name="Path 1751" d="M371.857,413.926a17.886,17.886,0,0,1-3.377.835c-2.1.42-5.032.907-8.288,1.29s-6.217.586-8.363.663a17.776,17.776,0,0,1-3.477-.031,22.366,22.366,0,0,1,3.451-.393c2.133-.187,5.076-.457,8.319-.837s6.168-.8,8.286-1.112A22.387,22.387,0,0,1,371.857,413.926Z" transform="translate(-348.353 -413.906)" fill="#263238"/>
            </g>
            <g id="Group_12277" data-name="Group 12277" transform="translate(6.955 21.958)">
              <path id="Path_1752" data-name="Path 1752" d="M373,422.847a18,18,0,0,1-3.375.835c-2.106.42-5.034.907-8.289,1.29s-6.217.584-8.363.663a17.759,17.759,0,0,1-3.477-.031,22.382,22.382,0,0,1,3.451-.393c2.133-.188,5.076-.457,8.32-.837s6.167-.8,8.285-1.112A22.205,22.205,0,0,1,373,422.847Z" transform="translate(-349.498 -422.826)" fill="#263238"/>
            </g>
            <g id="Group_12278" data-name="Group 12278" transform="translate(5.887 16.663)">
              <path id="Path_1753" data-name="Path 1753" d="M371.564,418.277c.024.164-5.1,1.033-11.451,1.942s-11.513,1.509-11.538,1.345,5.1-1.035,11.454-1.942S371.541,418.112,371.564,418.277Z" transform="translate(-348.575 -418.25)" fill="#263238"/>
            </g>
          </g>
        </g>
        <g id="Group_12285" data-name="Group 12285" transform="translate(128.812 167.722)">
          <path id="Path_1754" data-name="Path 1754" d="M397.557,462.793s25.861-17.107,27.85-25.86,3.182-16.71,3.182-16.71l-27.629-11.444,2.741,9.956s-9.909,5.892-10.919,13.026c-.673,4.76-13.481,12.9-13.481,12.9h0a10.574,10.574,0,0,0-8.887-3.8l-10.761.76,7.269,16.4Z" transform="translate(-359.654 -408.779)" fill="#febe9d"/>
          <g id="Group_12281" data-name="Group 12281" transform="translate(18.912 30.554)">
            <path id="Path_1755" data-name="Path 1755" d="M405.095,435.192a4.266,4.266,0,0,1-1.223.5c-.805.268-2.008.533-3.425,1a14.059,14.059,0,0,0-4.49,2.607,22.367,22.367,0,0,1-5.527,3.51,18.729,18.729,0,0,1-11.73.982,6.153,6.153,0,0,1-1.961-.728,1.432,1.432,0,0,1-.715-1.431,1.061,1.061,0,0,1,.58-.836c.231-.085.359-.032.355-.021,0,.028-.124.024-.3.13a.964.964,0,0,0-.4.756,1.174,1.174,0,0,0,.667,1.121,6.166,6.166,0,0,0,1.872.594,19.2,19.2,0,0,0,11.4-1.122,22.972,22.972,0,0,0,5.425-3.4,13.821,13.821,0,0,1,4.7-2.572c1.471-.424,2.675-.621,3.493-.818A7.984,7.984,0,0,1,405.095,435.192Z" transform="translate(-375.998 -435.184)" fill="#aa6550"/>
          </g>
          <g id="Group_12282" data-name="Group 12282" transform="translate(7.609 32.081)">
            <path id="Path_1756" data-name="Path 1756" d="M388.715,448.257c-.05.085-1.328-.674-3.529-1.582a31.835,31.835,0,0,0-8.97-2.232c-.9-.1-1.795-.124-2.651-.144l-.163,0-.084-.132a28.006,28.006,0,0,0-4.811-5.679c-1.391-1.257-2.321-1.907-2.274-1.976a2.294,2.294,0,0,1,.719.376,18.793,18.793,0,0,1,1.8,1.31,24.586,24.586,0,0,1,5.06,5.651l-.248-.135c.875.011,1.782.035,2.707.133a28.256,28.256,0,0,1,9.082,2.443,23.675,23.675,0,0,1,2.516,1.348A3.444,3.444,0,0,1,388.715,448.257Z" transform="translate(-366.229 -436.504)" fill="#aa6550"/>
          </g>
          <g id="Group_12283" data-name="Group 12283" transform="translate(29.647 39.103)">
            <path id="Path_1757" data-name="Path 1757" d="M392.709,442.6c.052.17-1.752.822-3.784,1.984s-3.525,2.365-3.644,2.233a12.6,12.6,0,0,1,7.428-4.218Z" transform="translate(-385.274 -442.571)" fill="#aa6550"/>
          </g>
          <g id="Group_12284" data-name="Group 12284" transform="translate(43.596 8.028)">
            <path id="Path_1758" data-name="Path 1758" d="M404.823,416.061c-.023.179-1.795-.039-3.863.516-2.077.526-3.517,1.582-3.624,1.437a7.484,7.484,0,0,1,7.487-1.953Z" transform="translate(-397.329 -415.717)" fill="#aa6550"/>
          </g>
        </g>
      </g>
      <path id="Path_1759" data-name="Path 1759" d="M229.106,317.762a30.544,30.544,0,0,0,3.341-1.3,41.872,41.872,0,0,0,10.831-7.467,82.772,82.772,0,0,0,12.356-15.121,206.335,206.335,0,0,0,11.74-20.319v-1.339c-.111.222-.219.443-.331.665a214.082,214.082,0,0,1-11.873,20.687,84.292,84.292,0,0,1-12.184,15.115,43.241,43.241,0,0,1-10.64,7.567c-1.4.65-2.506,1.139-3.281,1.4l-.868.336a1.386,1.386,0,0,0-.29.133,1.178,1.178,0,0,0,.309-.075Z" transform="translate(-84.452 -33.999)" fill="#263238"/>
      <path id="Path_1760" data-name="Path 1760" d="M278.224,240.71c1.846-5.242,3.255-9.513,4.216-12.468.459-1.448.82-2.589,1.081-3.411.109-.364.2-.657.267-.892a1.194,1.194,0,0,0,.07-.31,1.331,1.331,0,0,0-.129.292l-.323.872c-.287.815-.684,1.943-1.188,3.374-1.029,2.932-2.5,7.18-4.395,12.4-2.788,7.666-6.456,17.476-11.239,28.139.256-.118.517-.226.786-.321C272.016,257.907,275.558,248.273,278.224,240.71Z" transform="translate(-78.374 -41.634)" fill="#263238"/>
      <path id="Path_1761" data-name="Path 1761" d="M274.819,288.318c.472-.913.753-1.663.966-2.159a4.1,4.1,0,0,0,.285-.774,4.311,4.311,0,0,0-.4.724c-.248.479-.562,1.21-1.063,2.1-.19.361-.407.76-.641,1.178h.312C274.478,289.013,274.661,288.649,274.819,288.318Z" transform="translate(-77.214 -31.929)" fill="#263238"/>
      <path id="Path_1762" data-name="Path 1762" d="M269,303.583c-3.421,3.422-7.377,6.991-11.507,10.767-8.234,7.569-15.889,14.2-21.722,18.628-2.906,2.23-5.322,3.947-7,5.119l-1.942,1.342a4.185,4.185,0,0,0-.657.5,4.3,4.3,0,0,0,.723-.4c.461-.281,1.145-.69,2.006-1.249,1.723-1.115,4.183-2.783,7.128-4.974A285.032,285.032,0,0,0,257.9,314.8c4.129-3.775,8.08-7.363,11.494-10.82a88.683,88.683,0,0,0,7.486-8.5,1.816,1.816,0,0,1-.409-.228A92.5,92.5,0,0,1,269,303.583Z" transform="translate(-84.726 -30.378)" fill="#263238"/>
      <path id="Path_1763" data-name="Path 1763" d="M262.258,275.181v2a5.681,5.681,0,1,0,7.767,8.294,2.856,2.856,0,0,0,.232-.243,5.663,5.663,0,0,0,0-7.791c-.065-.07-.138-.133-.206-.2v-5.326a2.274,2.274,0,0,1,2.27-2.279h28.8l-1.618-1.456-6.4-.477,5.324-.393-1.311-1.058-2.913-.34,2.175-.254-1.321-1.065-3.94-.473,2.921-.35-1.9-1.53a1.792,1.792,0,0,0-1.122-.4H271.35a8.611,8.611,0,0,0-3.019.537c-1.788,4.033-3.735,8.187-5.867,12.4C262.4,274.915,262.326,275.046,262.258,275.181Z" transform="translate(-79.336 -35.628)" fill="#f5f5f5"/>
      <path id="Path_1764" data-name="Path 1764" d="M261.8,270.1a9.363,9.363,0,0,0-.095,1.31v2.9c1.9-3.78,3.657-7.51,5.286-11.141A9.075,9.075,0,0,0,261.8,270.1Z" transform="translate(-79.141 -35.42)" fill="#f5f5f5"/>
      <path id="Path_1765" data-name="Path 1765" d="M261.912,275.294c2.13-4.214,4.078-8.368,5.867-12.4-.27.095-.531.2-.787.322-1.629,3.631-3.388,7.36-5.286,11.141v1.339C261.774,275.56,261.844,275.428,261.912,275.294Z" transform="translate(-79.141 -35.463)" fill="#f5f5f5"/>
      <path id="Path_1766" data-name="Path 1766" d="M275.727,289.5H261.706l1.615,1.456,6.4.476-5.325.395,1.311,1.057,2.913.34-2.176.255,1.322,1.066,3.94.472-2.921.35,1.9,1.533c.007.006.017.007.024.013.341-.433.7-.875,1.011-1.295A54.31,54.31,0,0,0,275.727,289.5Z" transform="translate(-79.141 -31.282)" fill="#f5f5f5"/>
      <path id="Path_1767" data-name="Path 1767" d="M299.735,275.638a5.682,5.682,0,0,0-8.063-.268,3.062,3.062,0,0,0-.234.243,5.663,5.663,0,0,0,0,7.791c.065.069.138.133.207.2v5.326a2.275,2.275,0,0,1-2.271,2.278H274.908a49.7,49.7,0,0,1-3.971,6.368q-.453.625-.948,1.272a1.784,1.784,0,0,0,.689.154h19.666a9.108,9.108,0,0,0,9-7.79,9.368,9.368,0,0,0,.1-1.31v-6.236A5.679,5.679,0,0,0,299.735,275.638Z" transform="translate(-77.839 -33.746)" fill="#f5f5f5"/>
      <path id="Path_1768" data-name="Path 1768" d="M274.964,288.846h-.312a54.341,54.341,0,0,1-4,6.116c-.314.42-.671.862-1.013,1.3a1.814,1.814,0,0,0,.409.228q.493-.646.948-1.272A49.7,49.7,0,0,0,274.964,288.846Z" transform="translate(-77.895 -31.385)" fill="#f5f5f5"/>
    </g>
  </g>
</svg>
