<svg xmlns="http://www.w3.org/2000/svg" width="350.442" height="334" viewBox="0 0 350.442 334">
  <g id="Group_12319" data-name="Group 12319" transform="translate(-208.558 -1502)">
    <circle id="Ellipse_51" data-name="Ellipse 51" cx="167" cy="167" r="167" transform="translate(225 1502)" fill="#268aca" opacity="0.116"/>
    <path id="Path_7398" data-name="Path 7398" d="M277.27,44.344l-2.835,14.175,13.23,9.923,6.143-18.428Z" transform="translate(23.956 1542.018)" fill="#9f616a"/>
    <circle id="Ellipse_122" data-name="Ellipse 122" cx="12.758" cy="12.758" r="12.758" transform="translate(299.1 1573.84)" fill="#9f616a"/>
    <path id="Path_7399" data-name="Path 7399" d="M341.152,449.883c.058,4.116,17.985,49.926,15.5,55.891-3.924,4.011-12.363,25.358-15.969,31.053-.472,0-2.835,7.088-2.835,7.088s5.67,8.978,11.813,5.2c7.724-18.166,27.068-28.3,27.409-51.975.934,7.479,3.69,55.489,3.69,55.489s-.529.224,11.372,1.365c1.848-27.865,9.4-75.27-7.505-105.053C379.426,446.575,341.152,449.883,341.152,449.883Z" transform="translate(-56.936 1233.381)" fill="#2f2e41"/>
    <path id="Path_7400" data-name="Path 7400" d="M429.3,675.852c-.552,1.062-4.514,10.868-.909,11.852a14.485,14.485,0,0,0,8.188-.455s7.278,2.274,11.732-.616c2.079-2.079,1.606-3.969.614-5.339a5.787,5.787,0,0,0-4.293-2.314c-2.26-.161-2.978-.58-3.237-1.616C441.013,675.852,429.3,675.852,429.3,675.852Z" transform="translate(-105.477 1109.22)" fill="#2f2e41"/>
    <path id="Path_7401" data-name="Path 7401" d="M336.745,657.027s-10.156,3.207-8.018,6.949a14.062,14.062,0,0,0,5.84,5.385s2.118,8.732,8,8.732c2.94,0,3.942-1.67,4.209-3.341a5.787,5.787,0,0,0-1.4-4.672c-1.484-1.712-1.7-2.516-1.146-3.431C345.03,665.312,336.745,657.027,336.745,657.027Z" transform="translate(-51.805 1119.482)" fill="#2f2e41"/>
    <path id="Path_7402" data-name="Path 7402" d="M386.534,349.167s-1.892,3.78-9.452,2.361-37.327,0-37.327,0,1.651-33.784-2.129-54.1a33.8,33.8,0,0,1,11.1-31.9l4.726-4.726c4.726-.469,14.706,14.2,14.706,14.2,3.284.55,6.35,14.51,8.966,27.72.155.755.3,1.5.446,2.247,1.205,6.159,2.884,13.014,3.889,19.168.073.437.141.869.2,1.3a224.951,224.951,0,0,0,4.867,23.731Z" transform="translate(-56.482 1335.48)" fill="#e6e6e6"/>
    <path id="Path_7403" data-name="Path 7403" d="M372.2,207.125s-2.385-5.248,3.816-7.633c0,0,5.248-8.587,15.743-2.862,0,0,7.156,2.862,7.156,10.5s2.385,9.064,2.385,9.064-3.552-3.644-4.506-6.507-8.374-3.512-11.237-.649-10.018,2.385-10.018,2.385l.477,10.5s-2.385-6.2-3.339-6.2S370.767,207.125,372.2,207.125Z" transform="translate(-75.266 1371.529)" fill="#2f2e41"/>
    <path id="Path_7404" data-name="Path 7404" d="M388.356,346.366c-11.272-6.127-29.53-19.564-35.421-26.833-7.765-9.575.705-16.853.705-16.853,9.6-6.059,21.083,14.729,21.083,14.729l9.3,7.542c.155.755.3,1.5.446,2.247C385.673,333.356,387.351,340.211,388.356,346.366Z" transform="translate(-63.376 1313.249)" opacity="0.2"/>
    <path id="Path_7407" data-name="Path 7407" d="M316.92,295.362l1.481,34.607-3.755-34.607Z" transform="translate(2.036 1405.182)" opacity="0.2"/>
    <path id="Path_7408" data-name="Path 7408" d="M750.887,429.269l-13.445,3.115a4.1,4.1,0,0,1-4.894-2.957h0a4.1,4.1,0,0,1,3.873-5.14l12.987-.3Z" transform="translate(-301.027 1246.519)" fill="#ffb9b9"/>
    <path id="Path_7409" data-name="Path 7409" d="M766.309,371.731l-2.986-8.958,17.9-6.115-4.751-41.842h0c8.555,1.555,12.626,8.282,12.244,16.969l2.316,28.552Z" transform="translate(-317.876 1306.03)" fill="#3f3d56"/>
    <path id="Path_7410" data-name="Path 7410" d="M797.079,259.3h29.247V244.76a14.92,14.92,0,0,0-4.284-10.5,14.415,14.415,0,0,0-10.341-4.351,14.646,14.646,0,0,0-14.618,14.465c0,.133,0,.26,0,.389Z" transform="translate(-336.277 1352.317)" fill="#2f2e41"/>
    <path id="Path_7411" data-name="Path 7411" d="M823.791,521.514l-9.349-1.073L803.254,444.88,780.11,520.748l-10.116.307,11.5-93.34-1.686-21.3,28.661-9.043C828.764,411.538,828.344,461.59,823.791,521.514Z" transform="translate(-321.512 1261.029)" fill="#2f2e41"/>
    <circle id="Ellipse_123" data-name="Ellipse 123" cx="11.035" cy="11.035" r="11.035" transform="translate(461.816 1586.668)" fill="#ffb9b9"/>
    <path id="Path_7412" data-name="Path 7412" d="M825.42,290.842l-18.7,4.9c3.15-6.059,4.159-11.714,2.452-16.859l13.181-2.146A19.23,19.23,0,0,0,825.42,290.842Z" transform="translate(-341.533 1326.786)" fill="#ffb9b9"/>
    <path id="Path_7413" data-name="Path 7413" d="M816.255,348.607c-10.488,6.67-22.7,14.332-31.726,6.9l-4.292-20.844c-3.411-3.038-1.9-12.413,2.713-25.775a5.911,5.911,0,0,1,3.664-3.66l7.111-2.444c3.151,2.65,8.317,1.07,14.407-2.452l7.05,1.839,3.065,22.99C813.822,331.787,814.595,340.614,816.255,348.607Z" transform="translate(-326.084 1313.928)" fill="#3f3d56"/>
    <path id="Path_7414" data-name="Path 7414" d="M820.3,419.835l-13.445,3.115a4.1,4.1,0,0,1-4.894-2.957h0a4.1,4.1,0,0,1,3.873-5.14l12.987-.3Z" transform="translate(-338.864 1251.662)" fill="#ffb9b9"/>
    <path id="Path_7415" data-name="Path 7415" d="M862.627,681.956c-1.57.717-2.885-3.725-4.21-2.423-3.7,3.641-12.592,2.825-12.592,2.825a2.316,2.316,0,0,1-1.46-3.018h0a2.316,2.316,0,0,1,1.607-1.434l3.94-.985,6.187-10.88,6.742-.853.17.279a17.384,17.384,0,0,1,1.863,14.215C864.313,681.477,863.55,681.535,862.627,681.956Z" transform="translate(-361.973 1115.034)" fill="#2f2e41"/>
    <path id="Path_7416" data-name="Path 7416" d="M764.913,681.956c-1.57.717-2.886-3.725-4.21-2.423-3.7,3.641-12.593,2.825-12.593,2.825a2.316,2.316,0,0,1-1.46-3.018h0a2.316,2.316,0,0,1,1.607-1.434l3.94-.985,6.186-10.88,6.742-.853.17.279a17.384,17.384,0,0,1,1.863,14.215C766.6,681.477,765.836,681.535,764.913,681.956Z" transform="translate(-308.707 1115.034)" fill="#2f2e41"/>
    <path id="Path_7417" data-name="Path 7417" d="M819.881,236.458,817.1,245.3l-24.029-.427a14.854,14.854,0,0,1,26.809-8.416Z" transform="translate(-334.093 1352.041)" fill="#2f2e41"/>
    <path id="Path_7418" data-name="Path 7418" d="M835.719,361.21l-2.986-8.958,17.9-6.115-6.772-42.749h0a17.393,17.393,0,0,1,14.265,17.875l2.316,28.552Z" transform="translate(-355.713 1312.26)" fill="#3f3d56"/>
    <rect id="Rectangle_2287" data-name="Rectangle 2287" width="7.423" height="0.2" transform="translate(541.825 1763.486) rotate(-10.097)" fill="#fff"/>
    <path id="Path_7438" data-name="Path 7438" d="M99.182,431.81l-.012.079-.032.229L95.8,456.035,75.4,463.523l-.32-.153-11.426-5.426-5.908-22.669-.4-1.556.123-.047,25.276-9.5L99.167,431.8Z" transform="translate(177.301 1334.962)" fill="#268aca"/>
    <path id="Path_7439" data-name="Path 7439" d="M75.077,474.75l-11.426-5.426L57.339,445.1l.123-.047L73.929,452Z" transform="translate(177.301 1323.582)" fill="#268aca"/>
    <path id="Path_7440" data-name="Path 7440" d="M81.051,476.695,72.36,460.04l1.116-4.721-5.257-6.191-.448.38,5.065,5.964-3.783,16.005.572.135,2.529-10.7,8.377,16.053Z" transform="translate(171.613 1321.36)" opacity="0.2"/>
    <path id="Path_7441" data-name="Path 7441" d="M99.182,432.1l-.044.015-25.208,8.794-16.185-5.638-.4-1.556.123-.047,25.276-9.5L99.167,431.8l0,.088Z" transform="translate(177.301 1334.962)" fill="#3f3d56"/>
    <path id="Path_7442" data-name="Path 7442" d="M88.621,445.576l-5.139-3.964,1.174-4.4,14.682-5.285,9.984.587,3.964,3.377.293.881Z" transform="translate(163.049 1330.74)" fill="#268aca"/>
    <path id="Path_7443" data-name="Path 7443" d="M57.984,433.794l11.6-.44,6.283-2.133,9.8-3.446,1.832-2.643-4.571-.818Z" transform="translate(176.949 1334.887)" fill="#268aca"/>
    <rect id="Rectangle_2290" data-name="Rectangle 2290" width="6.409" height="0.587" transform="translate(251.992 1766.077) rotate(-19.337)" fill="#ccc"/>
    <path id="Path_7444" data-name="Path 7444" d="M19.1,479.439H6.819L5,455.786H20.921Z" transform="translate(205.832 1317.731)" fill="#268aca"/>
    <rect id="Rectangle_2291" data-name="Rectangle 2291" width="16.375" height="3.639" transform="translate(210.605 1783.069)" fill="#e6e6e6"/>
    <path id="Path_7445" data-name="Path 7445" d="M19.1,451.7H16.375l-.3-.91H3.942l-.3.91H.91L0,454.425H20.014Z" transform="translate(208.558 1320.456)" fill="#3f3d56"/>
    <rect id="Rectangle_2292" data-name="Rectangle 2292" width="217.697" height="0.91" transform="translate(285.553 1796.891)" fill="#3f3d56" opacity="0.299"/>
    <g id="Group_12318" data-name="Group 12318">
      <path id="Path_7526" data-name="Path 7526" d="M396.384,405.42l-12.263,12.093-40.312-.7,11.084-11.389Z" transform="translate(9.533 1187.527)" fill="#dda2a6"/>
      <path id="Path_7527" data-name="Path 7527" d="M463.143,446.789V405.42L450.88,417.513v40.481Z" transform="translate(-57.225 1187.527)" fill="#b77b7f"/>
      <path id="Path_7528" data-name="Path 7528" d="M343.81,435.67v41.185h40.312V436.374Z" transform="translate(9.533 1168.666)" fill="#dda2a6"/>
      <path id="Path_7529" data-name="Path 7529" d="M343.81,435.67v41.185h40.312V436.374Z" transform="translate(9.533 1168.666)" fill="#fff" opacity="0.3"/>
      <path id="Path_7530" data-name="Path 7530" d="M386.059,459.127l-29.98-5.147-3.908,19.683,30.865,5.67Z" transform="translate(4.321 1157.25)" fill="#dce0ed"/>
      <path id="Path_7531" data-name="Path 7531" d="M392.238,474.616l-20.154-3.166-.5,2.628,20.154,3.419Z" transform="translate(-7.782 1146.357)" fill="#268aca"/>
      <path id="Path_7532" data-name="Path 7532" d="M391.909,492.034l-11.464-1.664-.5,2.918,11.969,1.679Z" transform="translate(-12.994 1134.56)" fill="#268aca"/>
      <path id="Path_7533" data-name="Path 7533" d="M464.157,436.117l-.546-16.287-3.151,3.11.55,16.325Z" transform="translate(-63.199 1178.542)" fill="#65617d"/>
      <path id="Path_7534" data-name="Path 7534" d="M358.228,416.49l38.738.523,1.3.734-3.151,3.11-1.088-.64-38.369-1.088Z" transform="translate(2.144 1180.625)" fill="#65617d"/>
    </g>
    <path id="Path_7405" data-name="Path 7405" d="M508.706,374.5s16.758,6.8,19.516-.844-13.23-7.516-13.23-7.516l-6.277.889Z" transform="translate(-150.077 1278.05)" fill="#9f616a"/>
    <path id="Path_7406" data-name="Path 7406" d="M348.92,295.706s-8.466,7.282-.707,16.854,43.418,30.024,43.418,30.024l23.228-6.279,6.573,1.2,1.239-12.341-9.684.945-24.582-5.234-15.675-12.719S358.52,289.651,348.92,295.706Z" transform="translate(-60.804 1317.111)" fill="#e6e6e6"/>
  </g>
</svg>
