<svg xmlns="http://www.w3.org/2000/svg" width="334" height="345.24" viewBox="0 0 334 345.24">
  <g id="Group_10187" data-name="Group 10187" transform="translate(-131.265 -1438.208)">
    <line id="Line_3" data-name="Line 3" x2="259.591" transform="translate(164.121 1665.195)" fill="none" stroke="#3f3d56" stroke-miterlimit="10" stroke-width="1" opacity="0.218"/>
    <path id="Path_7178" data-name="Path 7178" d="M286.152,604.07v18.821l9.665,11.191s4.069-1.526,4.069-11.7l1.526-14.751Z" transform="translate(22.586 1002.546)" fill="#efbbb1"/>
    <path id="Path_7179" data-name="Path 7179" d="M282.794,618.743s-15.769-10.682-16.277-14.243-22.89-19.838-19.33-9.665,14.751,14.751,14.751,14.751,8.647,23.4,16.277,22.89S285.846,622.3,282.794,618.743Z" transform="translate(35.608 1006.694)" fill="#efbbb1"/>
    <circle id="Ellipse_51" data-name="Ellipse 51" cx="167" cy="167" r="167" transform="translate(131.265 1438.208)" fill="#268aca" opacity="0.116"/>
    <path id="Path_7180" data-name="Path 7180" d="M208.512,771.64l1.526,9.156-8.139-2.035V771.64Z" transform="translate(119.046 968.248)" fill="#3f3d56"/>
    <path id="Path_7181" data-name="Path 7181" d="M302.681,809.038s-9.407-5.573-9.79-3.041-4.453,12.2-6.487,13.214-4.578,12.208,0,11.7c3.546-.394,16.551-7.2,22.235-10.243a3.106,3.106,0,0,0,1.336-4.059,6.409,6.409,0,0,1-.681-1.975C309.294,813.616,302.681,809.038,302.681,809.038Z" transform="translate(23.352 935.937)" fill="#2f2e41"/>
    <path id="Path_7182" data-name="Path 7182" d="M302.118,652.5s-37.133,17.295-33.572,30.52S285.332,752.2,285.332,752.2s14.751,3.561,15.769,0-9.665-59.006-8.647-61.04,19.838-15.26,19.838-15.26l38.659-16.278-16.277-15.26Z" transform="translate(28.492 989.21)" fill="#2f2e41"/>
    <path id="Path_7183" data-name="Path 7183" d="M172.264,776.2l-4.578,11.7,8.139,3.561,5.087-9.157Z" transform="translate(130.369 966.738)" fill="#3f3d56"/>
    <path id="Path_7184" data-name="Path 7184" d="M317.649,524.4s4.578,6.1,1.017,9.156-1.017,14.243-1.017,14.243l4.578,12.717,18.312-3.561V536.095l-1.017-10.173s-9.156-8.647-10.173-15.26S317.649,524.4,317.649,524.4Z" transform="translate(12.453 1033.897)" fill="#e3aca2"/>
    <path id="Path_7186" data-name="Path 7186" d="M333.256,650.448s-23.908,26.451-23.908,27.468-12.717,21.873-12.717,21.873l-24.925,55.445s9.665,13.225,13.734,12.208S318.5,707.419,318.5,707.419s5.087-13.225,18.821-16.277,24.416-13.734,19.33-25.942S333.256,650.448,333.256,650.448Z" transform="translate(27.366 987.197)" fill="#2f2e41"/>
    <ellipse id="Ellipse_50" data-name="Ellipse 50" cx="16.277" cy="16.277" rx="16.277" ry="16.277" transform="translate(313.824 1529.298)" fill="#efbbb1"/>
    <path id="Path_7187" data-name="Path 7187" d="M317.335,550.861s2.035,11.7,4.069,12.717,3.561,4.578,8.139-.509,8.647-15.26,8.647-15.26l15.769,19.33,1.526,53.41s-17.8-4.578-23.4,0-17.8,4.069-17.8,4.069l2.543-10.173-2.035-17.295.509-15.769.509-11.191Z" transform="translate(13.276 1021.166)" fill="#f2f2f2"/>
    <path id="Path_7188" data-name="Path 7188" d="M311.326,539.573s-6.879,3.475-7.387,5.51-9.665,6.1-9.665,6.1-3.561,3.561-3.561,5.6,12.208,25.434,12.208,25.434,2.543,15.769,1.526,18.821,2.035,14.751,2.035,14.751l-6.1,7.121h5.6s6.1-3.052,6.1-4.578-1.017-12.208-1.526-16.786-.509-20.856.509-26.451.509-20.347.509-23.908S311.326,539.573,311.326,539.573Z" transform="translate(21.076 1023.891)" fill="#268aca"/>
    <path id="Path_7189" data-name="Path 7189" d="M340.93,528.029s2.289.517,8.9,2.552,16.786,5.087,20.347,9.156a63.048,63.048,0,0,1,6.613,9.665l-2.035,36.624s4.069,7.63,3.561,11.7-4.578,4.578-1.526,13.226,9.156,16.277,3.561,17.295-20.347-2.543-26.96-.509-14.243-7.63-14.243-7.63,10.173,1.017,8.647-3.052-18.312-49.85-14.752-60.023S340.93,528.029,340.93,528.029Z" transform="translate(7.23 1027.712)" fill="#268aca"/>
    <path id="Path_7190" data-name="Path 7190" d="M290.56,561.494l-2.543,2.035s-7.121,25.433-5.087,27.977,18.312,8.139,19.33,4.578S290.56,561.494,290.56,561.494Z" transform="translate(23.773 1016.637)" fill="#268aca"/>
    <path id="Path_7191" data-name="Path 7191" d="M399.741,588.1s7.63,21.873,7.63,27.977-1.017,41.711-1.017,41.711-.509,15.26-11.191,9.156,0-10.174,0-10.174-.509-40.185-4.578-45.78-5.6-13.734-5.6-13.734Z" transform="translate(-10.124 1007.83)" fill="#efbbb1"/>
    <path id="Path_7192" data-name="Path 7192" d="M273.5,823.489s-7.63-4.069-9.156-1.017-9.665,19.838-8.647,21.873,6.613,10.173,13.225,8.139,7.121-12.717,7.121-12.717l.509-12.208Z" transform="translate(32.694 930.642)" fill="#2f2e41"/>
    <path id="Path_7193" data-name="Path 7193" d="M301.277,496.725c1.121.528,2.451.843,3.156,1.863a15.7,15.7,0,0,1,.955,2.573,3.638,3.638,0,0,0,4.68,1.711,4.036,4.036,0,0,1,1.646-2.5,2.4,2.4,0,0,1,2.846.156c1.048,1,.677,2.743,1.167,4.106a8.666,8.666,0,0,0,1.864,2.556,26.305,26.305,0,0,0,3.341,3.836c1.341,1.045,3.374,1.5,4.706.442a4.019,4.019,0,0,0,1.08-3.93c-.272-1.4-.947-2.7-1.327-4.073-1.236-4.477.735-9.257.125-13.861-.781-5.9-5.8-10.56-11.393-12.583a13.329,13.329,0,0,0-7.356-.779c-2.56.571-4.746,2.2-7.2,3.133-2.622,1-5.473,1.171-8.216,1.753s-5.567,1.709-7.159,4.018c-1.11,1.61-1.492,3.611-2.412,5.337a9.575,9.575,0,0,1-4.85,4.345l2.9-.165a8.549,8.549,0,0,1-2.311,3.373,6.2,6.2,0,0,0,4.015-.531,4.364,4.364,0,0,1-1.5,3.129c2.232-.067,4.585-.17,6.471-1.366.924-.586,1.677-1.4,2.546-2.065a18.842,18.842,0,0,1,6.392-2.729c1.177-.338,2.593-.807,3.657-.05C299.992,495.055,300.131,496.186,301.277,496.725Z" transform="translate(25.637 1044.918)" fill="#2f2e41"/>
    <path id="Path_7194" data-name="Path 7194" d="M382.49,550.85l7.63,6.1,10.174,23.4s-14.243,11.191-17.8,9.665-9.665-28.486-9.665-28.486Z" transform="translate(-6.099 1020.159)" fill="#268aca"/>
    <g id="Group_10186" data-name="Group 10186" transform="translate(163.88 1450.756)">
      <path id="Path_7158" data-name="Path 7158" d="M322.06,137.116h-1.179V104.809a18.7,18.7,0,0,0-18.7-18.7H233.737a18.7,18.7,0,0,0-18.7,18.7V282.046a18.7,18.7,0,0,0,18.7,18.7h68.446a18.7,18.7,0,0,0,18.7-18.7V160.112h1.179Z" transform="translate(-215.038 -86.111)" fill="#696969"/>
      <path id="Path_7159" data-name="Path 7159" d="M315.272,102.606h-8.934a6.634,6.634,0,0,1-6.142,9.14H260.984a6.634,6.634,0,0,1-6.142-9.14H246.5a13.964,13.964,0,0,0-13.964,13.964V293.546A13.964,13.964,0,0,0,246.5,307.51h68.776a13.964,13.964,0,0,0,13.964-13.964V116.57a13.964,13.964,0,0,0-13.964-13.964Z" transform="translate(-227.373 -97.741)" fill="#fff"/>
      <rect id="Rectangle_907" data-name="Rectangle 907" width="72.549" height="62.227" transform="translate(17.236 32.51)" fill="#e6e6e6"/>
      <ellipse id="Ellipse_24" data-name="Ellipse 24" cx="5.308" cy="5.308" rx="5.308" ry="5.308" transform="translate(33.457 97.096)" fill="#268aca"/>
      <path id="Path_7160" data-name="Path 7160" d="M127.753,340.446h-2.212v-2.212h-.885v2.212h-2.212v.885h2.212v2.212h.885v-2.212h2.212Z" transform="translate(-86.334 -238.483)" fill="#fff"/>
      <ellipse id="Ellipse_25" data-name="Ellipse 25" cx="5.308" cy="5.308" rx="5.308" ry="5.308" transform="translate(61.474 97.096)" fill="#268aca"/>
      <rect id="Rectangle_908" data-name="Rectangle 908" width="0.885" height="5.308" transform="translate(69.436 101.962) rotate(90)" fill="#fff"/>
      <path id="Path_7161" data-name="Path 7161" d="M390.133,222.659H384.4a.76.76,0,0,0-.76.76v2.517a.76.76,0,0,0,.76.76h.95v3.771h3.833V226.7h.95a.76.76,0,0,0,.76-.76V223.42a.76.76,0,0,0-.76-.76Z" transform="translate(-333.917 -182.389)" fill="#268aca"/>
      <path id="Path_7162" data-name="Path 7162" d="M383.258,254.889a29.475,29.475,0,0,1-5.128-17.476.622.622,0,0,0-.485-.62v-1.087H371.59v1.072h-.083a.621.621,0,0,0-.621.622c0,.015,0,.03,0,.045a26.9,26.9,0,0,1-4.832,17.89,1.712,1.712,0,0,0-.31,1.038l.662,20.48a1.773,1.773,0,0,0,1.758,1.711h13.7a1.774,1.774,0,0,0,1.759-1.741l.255-19.885a3.588,3.588,0,0,0-.617-2.049Z" transform="translate(-321.299 -191.588)" fill="#696969"/>
      <path id="Path_7163" data-name="Path 7163" d="M393.764,225.44a1.64,1.64,0,1,1-3.28,0" transform="translate(-338.742 -184.35)" opacity="0.2" style="isolation: isolate"/>
      <path id="Path_7164" data-name="Path 7164" d="M386.351,315h-1.658a4.353,4.353,0,0,0-8.6,0H374.43a1.224,1.224,0,0,0-1.21,1.41l1.8,11.709h10.344l2.188-11.67a1.224,1.224,0,0,0-1.2-1.449Z" transform="translate(-326.56 -244.894)" fill="#268aca"/>
      <rect id="Rectangle_909" data-name="Rectangle 909" width="72.549" height="62.227" transform="translate(17.236 120.1)" fill="#e6e6e6"/>
      <ellipse id="Ellipse_26" data-name="Ellipse 26" cx="5.308" cy="5.308" rx="5.308" ry="5.308" transform="translate(33.457 184.686)" fill="#268aca"/>
      <path id="Path_7165" data-name="Path 7165" d="M127.753,637.446h-2.212v-2.212h-.885v2.212h-2.212v.885h2.212v2.212h.885v-2.212h2.212Z" transform="translate(-86.334 -447.893)" fill="#fff"/>
      <ellipse id="Ellipse_27" data-name="Ellipse 27" cx="5.308" cy="5.308" rx="5.308" ry="5.308" transform="translate(61.474 184.686)" fill="#268aca"/>
      <rect id="Rectangle_910" data-name="Rectangle 910" width="0.885" height="5.308" transform="translate(69.436 189.553) rotate(90)" fill="#fff"/>
      <path id="Path_7166" data-name="Path 7166" d="M357.582,560.31h.04a6.8,6.8,0,0,0,6.362-4.261,22.241,22.241,0,1,0-29.629,12.183,6.737,6.737,0,0,0,7.482-1.387A22.168,22.168,0,0,1,357.582,560.31Z" transform="translate(-289.789 -396.003)" fill="#fff"/>
      <ellipse id="Ellipse_28" data-name="Ellipse 28" cx="7.345" cy="7.345" rx="7.345" ry="7.345" transform="translate(49.022 142.883)" fill="#9d9d9d"/>
    </g>
  </g>
</svg>
