<svg xmlns="http://www.w3.org/2000/svg" width="334" height="334" viewBox="0 0 334 334">
  <g id="Group_12303" data-name="Group 12303" transform="translate(-225 -1502)">
    <circle id="Ellipse_51" data-name="Ellipse 51" cx="167" cy="167" r="167" transform="translate(225 1502)" fill="#268aca" opacity="0.116"/>
    <g id="Group_12302" data-name="Group 12302" transform="translate(3553.184 -1326.683)">
      <rect id="Rectangle_2175" data-name="Rectangle 2175" width="87.414" height="3.218" transform="translate(-3296.633 3013.858)" fill="#f2f2f2"/>
      <rect id="Rectangle_2176" data-name="Rectangle 2176" width="87.414" height="3.218" transform="translate(-3136.285 3013.858)" fill="#f2f2f2"/>
      <path id="Path_7228" data-name="Path 7228" d="M4.3,151.6,1.2,149.122l17.32-15.464H62.444v13.609L33.989,166.442Z" transform="translate(-3261.372 2741.441)" fill="#3f3d56"/>
      <path id="Path_7229" data-name="Path 7229" d="M98.824,142.332v-8.365H92.993v2.049l-2.177-2.357L76.59,149.122l-5.567,3.712L62.39,215.9l13.018,13.018h30.255V149.741Z" transform="translate(-3289.745 2741.441)" fill="#ccc"/>
      <rect id="Rectangle_2178" data-name="Rectangle 2178" width="47.012" height="79.797" transform="translate(-3260.168 2890.563)" fill="#f2f2f2"/>
      <rect id="Rectangle_2179" data-name="Rectangle 2179" width="8.66" height="19.485" transform="translate(-3241.92 2950.875)" fill="#ccc"/>
      <path id="Path_7230" data-name="Path 7230" d="M14.721,282.664v-3.093H11.009v3.093h3.712Z" transform="translate(-3265.919 2673.778)" fill="#3f3d56"/>
      <path id="Path_7231" data-name="Path 7231" d="M14.411,289.952h-3.4v3.093h3.712v-3.093Z" transform="translate(-3265.919 2668.964)" fill="#3f3d56"/>
      <rect id="Rectangle_2180" data-name="Rectangle 2180" width="3.711" height="3.093" transform="translate(-3248.724 2953.349)" fill="#3f3d56"/>
      <rect id="Rectangle_2181" data-name="Rectangle 2181" width="3.711" height="3.093" transform="translate(-3248.724 2958.917)" fill="#3f3d56"/>
      <path id="Path_7232" data-name="Path 7232" d="M62.013,282.664v-3.093H58.3v3.093h3.712Z" transform="translate(-3287.849 2673.778)" fill="#3f3d56"/>
      <path id="Path_7233" data-name="Path 7233" d="M61.7,289.952H58.3v3.093h3.712v-3.093Z" transform="translate(-3287.849 2668.964)" fill="#3f3d56"/>
      <rect id="Rectangle_2182" data-name="Rectangle 2182" width="3.711" height="3.093" transform="translate(-3223.363 2953.349)" fill="#3f3d56"/>
      <rect id="Rectangle_2183" data-name="Rectangle 2183" width="3.711" height="3.093" transform="translate(-3223.363 2958.917)" fill="#3f3d56"/>
      <path id="Path_7234" data-name="Path 7234" d="M110.458,167.317v-3.093h-3.712v3.093h3.712Z" transform="translate(-3310.314 2727.267)" fill="#3f3d56"/>
      <path id="Path_7235" data-name="Path 7235" d="M110.149,174.606h-3.4V177.7h3.712v-3.093Z" transform="translate(-3310.314 2722.452)" fill="#3f3d56"/>
      <rect id="Rectangle_2184" data-name="Rectangle 2184" width="3.711" height="3.093" transform="translate(-3197.382 2891.491)" fill="#3f3d56"/>
      <rect id="Rectangle_2185" data-name="Rectangle 2185" width="3.711" height="3.093" transform="translate(-3197.382 2897.058)" fill="#3f3d56"/>
      <path id="Path_7236" data-name="Path 7236" d="M110.458,199.615v-3.093h-3.712v3.093h3.712Z" transform="translate(-3310.314 2712.29)" fill="#3f3d56"/>
      <path id="Path_7237" data-name="Path 7237" d="M110.149,206.9h-3.4V210h3.712V206.9Z" transform="translate(-3310.314 2707.476)" fill="#3f3d56"/>
      <rect id="Rectangle_2186" data-name="Rectangle 2186" width="3.711" height="3.093" transform="translate(-3197.382 2908.811)" fill="#3f3d56"/>
      <rect id="Rectangle_2187" data-name="Rectangle 2187" width="3.711" height="3.093" transform="translate(-3197.382 2914.378)" fill="#3f3d56"/>
      <path id="Path_7238" data-name="Path 7238" d="M110.458,231.912v-3.093h-3.712v3.093h3.712Z" transform="translate(-3310.314 2697.313)" fill="#3f3d56"/>
      <path id="Path_7239" data-name="Path 7239" d="M110.149,239.2h-3.4v3.093h3.712V239.2Z" transform="translate(-3310.314 2692.499)" fill="#3f3d56"/>
      <rect id="Rectangle_2188" data-name="Rectangle 2188" width="3.711" height="3.093" transform="translate(-3197.382 2926.132)" fill="#3f3d56"/>
      <rect id="Rectangle_2189" data-name="Rectangle 2189" width="3.711" height="3.093" transform="translate(-3197.382 2931.699)" fill="#3f3d56"/>
      <path id="Path_7240" data-name="Path 7240" d="M110.458,264.209v-3.093h-3.712v3.093h3.712Z" transform="translate(-3310.314 2682.336)" fill="#3f3d56"/>
      <path id="Path_7241" data-name="Path 7241" d="M110.149,271.5h-3.4v3.093h3.712V271.5Z" transform="translate(-3310.314 2677.522)" fill="#3f3d56"/>
      <rect id="Rectangle_2190" data-name="Rectangle 2190" width="3.711" height="3.093" transform="translate(-3197.382 2943.452)" fill="#3f3d56"/>
      <rect id="Rectangle_2191" data-name="Rectangle 2191" width="3.711" height="3.093" transform="translate(-3197.382 2949.019)" fill="#3f3d56"/>
      <rect id="Rectangle_2192" data-name="Rectangle 2192" width="35.878" height="7.423" transform="translate(-3254.91 2894.584)" fill="#3f3d56"/>
      <rect id="Rectangle_2193" data-name="Rectangle 2193" width="35.878" height="7.423" transform="translate(-3254.91 2909.43)" fill="#3f3d56"/>
      <rect id="Rectangle_2194" data-name="Rectangle 2194" width="35.878" height="7.423" transform="translate(-3254.91 2924.276)" fill="#3f3d56"/>
      <rect id="Rectangle_2195" data-name="Rectangle 2195" width="35.878" height="7.423" transform="translate(-3254.91 2939.122)" fill="#3f3d56"/>
      <path id="Path_7242" data-name="Path 7242" d="M267.232,471.953a10.619,10.619,0,0,0-2.224,1.538,10.588,10.588,0,0,0-2.261-1.538,10.619,10.619,0,0,0-2.224,1.538,10.589,10.589,0,0,0-2.261-1.538s-3.487,1.715-3.477,3.81q0,.079.007.156c.119,1.372,3.724,1.722,5.7,1.075a8.177,8.177,0,0,0,4.486,0c1.972.657,5.65.281,5.758-1.107q.006-.078.006-.156C270.734,473.636,267.232,471.953,267.232,471.953Z" transform="translate(-3534.908 2493.615)" fill="#268aca"/>
      <path id="Path_7243" data-name="Path 7243" d="M105.5,151.6l-3.093-2.474,17.32-15.464h43.919v13.609l-28.455,19.176Z" transform="translate(-3308.303 2741.441)" fill="#3f3d56"/>
      <path id="Path_7244" data-name="Path 7244" d="M200.029,142.332v-8.365H194.2v2.049l-2.177-2.357-14.227,15.464-5.567,3.712L163.6,215.9l13.018,13.018h30.255V149.741Z" transform="translate(-3336.676 2741.441)" fill="#ccc"/>
      <rect id="Rectangle_2196" data-name="Rectangle 2196" width="47.012" height="79.797" transform="translate(-3205.894 2890.563)" fill="#f2f2f2"/>
      <rect id="Rectangle_2197" data-name="Rectangle 2197" width="8.66" height="19.485" transform="translate(-3187.646 2950.875)" fill="#ccc"/>
      <path id="Path_7245" data-name="Path 7245" d="M115.926,282.664v-3.093h-3.712v3.093h3.712Z" transform="translate(-3312.85 2673.778)" fill="#3f3d56"/>
      <path id="Path_7246" data-name="Path 7246" d="M115.616,289.952h-3.4v3.093h3.712v-3.093Z" transform="translate(-3312.85 2668.964)" fill="#3f3d56"/>
      <rect id="Rectangle_2198" data-name="Rectangle 2198" width="3.711" height="3.093" transform="translate(-3194.45 2953.349)" fill="#3f3d56"/>
      <rect id="Rectangle_2199" data-name="Rectangle 2199" width="3.711" height="3.093" transform="translate(-3194.45 2958.917)" fill="#3f3d56"/>
      <path id="Path_7247" data-name="Path 7247" d="M163.218,282.664v-3.093h-3.712v3.093h3.712Z" transform="translate(-3334.78 2673.778)" fill="#3f3d56"/>
      <path id="Path_7248" data-name="Path 7248" d="M162.908,289.952h-3.4v3.093h3.712v-3.093Z" transform="translate(-3334.78 2668.964)" fill="#3f3d56"/>
      <rect id="Rectangle_2200" data-name="Rectangle 2200" width="3.711" height="3.093" transform="translate(-3169.088 2953.349)" fill="#3f3d56"/>
      <rect id="Rectangle_2201" data-name="Rectangle 2201" width="3.711" height="3.093" transform="translate(-3169.088 2958.917)" fill="#3f3d56"/>
      <path id="Path_7249" data-name="Path 7249" d="M211.663,167.317v-3.093h-3.712v3.093h3.712Z" transform="translate(-3357.245 2727.267)" fill="#3f3d56"/>
      <path id="Path_7250" data-name="Path 7250" d="M211.354,174.606h-3.4V177.7h3.712v-3.093Z" transform="translate(-3357.245 2722.452)" fill="#3f3d56"/>
      <rect id="Rectangle_2202" data-name="Rectangle 2202" width="3.711" height="3.093" transform="translate(-3143.108 2891.491)" fill="#3f3d56"/>
      <rect id="Rectangle_2203" data-name="Rectangle 2203" width="3.711" height="3.093" transform="translate(-3143.108 2897.058)" fill="#3f3d56"/>
      <path id="Path_7251" data-name="Path 7251" d="M211.663,199.615v-3.093h-3.712v3.093h3.712Z" transform="translate(-3357.245 2712.29)" fill="#3f3d56"/>
      <path id="Path_7252" data-name="Path 7252" d="M211.354,206.9h-3.4V210h3.712V206.9Z" transform="translate(-3357.245 2707.476)" fill="#3f3d56"/>
      <rect id="Rectangle_2204" data-name="Rectangle 2204" width="3.711" height="3.093" transform="translate(-3143.108 2908.811)" fill="#3f3d56"/>
      <rect id="Rectangle_2205" data-name="Rectangle 2205" width="3.711" height="3.093" transform="translate(-3143.108 2914.378)" fill="#3f3d56"/>
      <path id="Path_7253" data-name="Path 7253" d="M211.663,231.912v-3.093h-3.712v3.093h3.712Z" transform="translate(-3357.245 2697.313)" fill="#3f3d56"/>
      <path id="Path_7254" data-name="Path 7254" d="M211.354,239.2h-3.4v3.093h3.712V239.2Z" transform="translate(-3357.245 2692.499)" fill="#3f3d56"/>
      <rect id="Rectangle_2206" data-name="Rectangle 2206" width="3.711" height="3.093" transform="translate(-3143.108 2926.132)" fill="#3f3d56"/>
      <rect id="Rectangle_2207" data-name="Rectangle 2207" width="3.711" height="3.093" transform="translate(-3143.108 2931.699)" fill="#3f3d56"/>
      <path id="Path_7255" data-name="Path 7255" d="M211.663,264.209v-3.093h-3.712v3.093h3.712Z" transform="translate(-3357.245 2682.336)" fill="#3f3d56"/>
      <path id="Path_7256" data-name="Path 7256" d="M211.354,271.5h-3.4v3.093h3.712V271.5Z" transform="translate(-3357.245 2677.522)" fill="#3f3d56"/>
      <rect id="Rectangle_2208" data-name="Rectangle 2208" width="3.711" height="3.093" transform="translate(-3143.108 2943.452)" fill="#3f3d56"/>
      <rect id="Rectangle_2209" data-name="Rectangle 2209" width="3.711" height="3.093" transform="translate(-3143.108 2949.019)" fill="#3f3d56"/>
      <rect id="Rectangle_2210" data-name="Rectangle 2210" width="35.878" height="7.423" transform="translate(-3200.636 2894.584)" fill="#3f3d56"/>
      <rect id="Rectangle_2211" data-name="Rectangle 2211" width="35.878" height="7.423" transform="translate(-3200.636 2909.43)" fill="#3f3d56"/>
      <rect id="Rectangle_2212" data-name="Rectangle 2212" width="35.878" height="7.423" transform="translate(-3200.636 2924.276)" fill="#3f3d56"/>
      <rect id="Rectangle_2213" data-name="Rectangle 2213" width="35.878" height="7.423" transform="translate(-3200.636 2939.122)" fill="#3f3d56"/>
      <path id="Path_7258" data-name="Path 7258" d="M424.618,471.709a10.619,10.619,0,0,0-2.225,1.538,10.586,10.586,0,0,0-2.261-1.538,10.618,10.618,0,0,0-2.224,1.538,10.587,10.587,0,0,0-2.261-1.538s-3.487,1.715-3.477,3.81q0,.079.007.156c.119,1.372,3.724,1.722,5.7,1.075a8.177,8.177,0,0,0,4.485,0c1.972.657,5.65.281,5.758-1.107q.006-.078.006-.156C428.121,473.391,424.618,471.709,424.618,471.709Z" transform="translate(-3607.891 2493.728)" fill="#ccc"/>
      <rect id="Rectangle_2255" data-name="Rectangle 2255" width="296.785" height="0.897" transform="translate(-3325.722 2970.053)" fill="#3f3d56" opacity="0.072"/>
      <rect id="Rectangle_2258" data-name="Rectangle 2258" width="15.782" height="2.505" transform="translate(-3230.214 3027.974)" fill="#3f3d56"/>
      <path id="Path_7300" data-name="Path 7300" d="M547.375,536.357l-3.256.753-123.748.066-1.113-2.593a26.17,26.17,0,0,1-1.924-14.15c.533-3.581,1.869-7.139,4.9-8.684l5.492-36.576,68.464-.123,26.488,21.365s12.495-.225,19.283,8.226a19.836,19.836,0,0,1,4.149,10.925l.268,4.4Z" transform="translate(-3647.704 2492.178)" fill="#268aca"/>
      <circle id="Ellipse_56" data-name="Ellipse 56" cx="15.281" cy="15.281" r="15.281" transform="translate(-3142.79 3012.643)" fill="#3f3d56"/>
      <circle id="Ellipse_57" data-name="Ellipse 57" cx="8.042" cy="8.042" r="8.042" transform="translate(-3135.551 3019.881)" fill="#ccc"/>
      <circle id="Ellipse_58" data-name="Ellipse 58" cx="15.281" cy="15.281" r="15.281" transform="translate(-3218.191 3012.683)" fill="#3f3d56"/>
      <circle id="Ellipse_59" data-name="Ellipse 59" cx="8.042" cy="8.042" r="8.042" transform="translate(-3210.953 3019.921)" fill="#ccc"/>
      <path id="Path_7301" data-name="Path 7301" d="M412.119,327.86l-36.965.016h-4.512l-7.619.005v-.556l-.005-6.7-.005-7.522h5.068l4.512-.005,7.993-.005H385.1l9.228-.005Z" transform="translate(-3547.667 2658.236)" fill="#fff"/>
      <path id="Path_7302" data-name="Path 7302" d="M334.915,327.905l-19.536.011-.005-3.833v-6.7l-.005-4.245h2.861l4.512-.005,12.168-.005Z" transform="translate(-3525.574 2658.217)" fill="#fff"/>
      <rect id="Rectangle_2259" data-name="Rectangle 2259" width="2.505" height="4.76" transform="translate(-3184.639 2997.141)" fill="#3f3d56"/>
      <rect id="Rectangle_2260" data-name="Rectangle 2260" width="2.505" height="4.76" transform="matrix(0.001, 1, -1, 0.001, -3140.807, 2990.354)" fill="#3f3d56"/>
      <path id="Path_7303" data-name="Path 7303" d="M439.169,331.106h.276a5.235,5.235,0,0,1,5.236,5.236h0a5.235,5.235,0,0,1-5.236,5.236h-.276Z" transform="translate(-3582.983 2649.88)" fill="#3f3d56"/>
      <path id="Path_7304" data-name="Path 7304" d="M650.434,545.549a8.092,8.092,0,0,1-4.417-15.321,19.836,19.836,0,0,1,4.149,10.925Z" transform="translate(-3751.759 2466.592)" fill="#3f3d56"/>
      <path id="Path_7305" data-name="Path 7305" d="M372.6,313.108l-9.57,14.227-.005-6.7,5.063-7.522Z" transform="translate(-3547.672 2658.226)" fill="#f2f2f2"/>
      <path id="Path_7306" data-name="Path 7306" d="M322.746,313.138l-7.367,10.949v-6.7l2.855-4.245Z" transform="translate(-3525.579 2658.212)" fill="#f2f2f2"/>
      <path id="Path_7307" data-name="Path 7307" d="M391.7,313.1l-9.944,14.783h-4.512l9.944-14.783Z" transform="translate(-3554.265 2658.231)" fill="#f2f2f2"/>
      <rect id="Rectangle_2261" data-name="Rectangle 2261" width="9.586" height="1.522" transform="matrix(-1, -0.001, 0.001, -1, -2994.438, 2996.499)" fill="#3f3d56"/>
      <path id="Path_7308" data-name="Path 7308" d="M692.383,495.219l1.978.458,75.17.04.676-1.575a15.9,15.9,0,0,0,1.169-8.6c-.324-2.175-1.135-4.336-2.978-5.275l-3.336-22.218-41.588-.074-16.09,12.978s-7.59-.136-11.713,5a12.049,12.049,0,0,0-2.52,6.636l-.163,2.67Z" transform="translate(-3765.717 2500.094)" fill="#3f3d56"/>
      <circle id="Ellipse_60" data-name="Ellipse 60" cx="9.282" cy="9.282" r="9.282" transform="translate(-3066.106 2985.66)" fill="#3f3d56"/>
      <circle id="Ellipse_61" data-name="Ellipse 61" cx="4.885" cy="4.885" r="4.885" transform="translate(-3061.709 2990.057)" fill="#ccc"/>
      <circle id="Ellipse_62" data-name="Ellipse 62" cx="9.282" cy="9.282" r="9.282" transform="translate(-3020.304 2985.684)" fill="#3f3d56"/>
      <circle id="Ellipse_63" data-name="Ellipse 63" cx="4.885" cy="4.885" r="4.885" transform="translate(-3015.907 2990.081)" fill="#ccc"/>
      <path id="Path_7309" data-name="Path 7309" d="M592.486,301.992l22.454.01h2.741l4.628,0v-.338l0-4.069,0-4.57h-3.079l-2.741,0-4.855,0H608.9l-5.605,0Z" transform="translate(-3644.426 2667.542)" fill="#fff"/>
      <path id="Path_7310" data-name="Path 7310" d="M654.908,302.02l11.867.006,0-2.329v-4.069l0-2.578h-1.738l-2.741,0-7.391,0Z" transform="translate(-3673.372 2667.531)" fill="#fff"/>
      <rect id="Rectangle_2262" data-name="Rectangle 2262" width="1.522" height="2.891" transform="matrix(-1, -0.001, 0.001, -1, -3022.123, 2979.137)" fill="#3f3d56"/>
      <rect id="Rectangle_2263" data-name="Rectangle 2263" width="1.522" height="2.891" transform="matrix(-0.001, 1, -1, -0.001, -3045.854, 2972.124)" fill="#3f3d56"/>
      <path id="Path_7311" data-name="Path 7311" d="M0,0H.167a3.18,3.18,0,0,1,3.18,3.18h0a3.18,3.18,0,0,1-3.18,3.18H0Z" transform="matrix(-1, -0.001, 0.001, -1, -3046.923, 2972.794)" fill="#3f3d56"/>
      <path id="Path_7312" data-name="Path 7312" d="M693.511,500.8a4.916,4.916,0,0,0,2.683-9.307,12.048,12.048,0,0,0-2.52,6.636Z" transform="translate(-3738.354 2484.552)" fill="#3f3d56"/>
      <path id="Path_7313" data-name="Path 7313" d="M637.256,293.031l5.813,8.642,0-4.069L640,293.034Z" transform="translate(-3665.187 2667.536)" fill="#f2f2f2"/>
      <path id="Path_7314" data-name="Path 7314" d="M668.7,293.05l4.475,6.651v-4.069l-1.734-2.578Z" transform="translate(-3679.766 2667.528)" fill="#f2f2f2"/>
      <path id="Path_7315" data-name="Path 7315" d="M623.091,293.025l6.041,8.98h2.741l-6.04-8.98Z" transform="translate(-3658.618 2667.539)" fill="#f2f2f2"/>
      <path id="Path_7316" data-name="Path 7316" d="M297.279,632.2s0,17.01,3.9,21.472c0,0,.837,2.231,1.115,3.067a11.72,11.72,0,0,0,.558,1.394v1.115s7.529-.837,8.366-2.789l-1.394-1.673s-.279-.279,0-1.115a.573.573,0,0,0-.558-.836l-1.952-4.462.279-18.4L306.2,604.6l-11.991-.558Z" transform="translate(-3553.191 2432.364)" fill="#2f2e41"/>
      <path id="Path_7317" data-name="Path 7317" d="M310.621,702.91s-1.952,5.856,0,6.135,18.962.558,18.683-1.673-5.856-1.952-5.856-1.952l-5.856-3.625Z" transform="translate(-3560.398 2387.033)" fill="#2f2e41"/>
      <path id="Path_7318" data-name="Path 7318" d="M264.183,605.079a12.653,12.653,0,0,0,1.673,7.529c2.231,3.9.837,17.01.837,17.01l-19.8,17.289s3.9,6.692,5.3,6.414S275.616,635.2,275.616,635.2l8.644-29Z" transform="translate(-3531.249 2431.881)" fill="#2f2e41"/>
      <path id="Path_7319" data-name="Path 7319" d="M242.856,681.7s-5.991,1.486-5.182,3.284,9.68,16.314,11.415,14.885-1.486-5.991-1.486-5.991l-.073-6.887Z" transform="translate(-3526.939 2396.352)" fill="#2f2e41"/>
      <circle id="Ellipse_64" data-name="Ellipse 64" cx="6.414" cy="6.414" r="6.414" transform="translate(-3262.604 2978.681)" fill="#ffb8b8"/>
      <path id="Path_7320" data-name="Path 7320" d="M290,512.584l.284,8.253,5.4,2.132s.529-8.451,1.276-8.919S290,512.584,290,512.584Z" transform="translate(-3551.239 2474.773)" fill="#ffb8b8"/>
      <path id="Path_7321" data-name="Path 7321" d="M289.012,527.567s-7.529-7.529-9.481-7.25-1.952,1.115-1.952,1.673.558.837,0,1.115-1.115,0-1.115.837-5.019,9.2-3.346,18.4,3.625,13.664,2.789,18.683-.279,6.135-.279,6.135,20.914,1.673,21.193-.279-.837-.837.558-2.231.837-1.394.837-2.231S292.08,527.567,289.012,527.567Z" transform="translate(-3543.251 2471.191)" fill="#575a89"/>
      <path id="Path_7322" data-name="Path 7322" d="M295.772,602.389s3.346,8.087,5.856,6.135-1.115-8.644-1.115-8.644Z" transform="translate(-3553.915 2434.293)" fill="#ffb8b8"/>
      <path id="Path_7323" data-name="Path 7323" d="M276.666,534.839s-6.552.75-4.112,12.784,11.92,25.977,11.92,25.977l6.414-3.067-8.366-16.452,1.952-10.318S285.59,534,276.666,534.839Z" transform="translate(-3542.896 2464.477)" fill="#575a89"/>
      <path id="Path_7324" data-name="Path 7324" d="M151.561,401.423l9.2,15.337-.836.837Z" transform="translate(-3412.074 2617.273)" opacity="0.2"/>
      <path id="Path_7325" data-name="Path 7325" d="M142.479,414.75l7.38,12.094h-2.51Z" transform="translate(-3407.863 2611.093)" opacity="0.2"/>
      <path id="Path_7326" data-name="Path 7326" d="M288.518,504.09a9.228,9.228,0,0,1,1.684-.5,4.406,4.406,0,0,0,2.928-4.94,2.521,2.521,0,0,1-.106-.814,1.555,1.555,0,0,1,1.3-1.142,12.754,12.754,0,0,0,1.8-.344,2.734,2.734,0,0,0,1.595-2.192,4.528,4.528,0,0,0-.6-2.729l-.216.621a2.3,2.3,0,0,1-.705-1.055,1.453,1.453,0,0,0-1.107.891c-.347.2-.4-.635-.779-.759a.688.688,0,0,0-.478.118,3.854,3.854,0,0,1-2.495-.147,9.392,9.392,0,0,0-4.36-.005,5.218,5.218,0,0,0-2.577,1.326,6.183,6.183,0,0,0-1.205,2.071,11.933,11.933,0,0,0-.973,5.795,8.2,8.2,0,0,0,1.933,4.346c.552.636,2.353,2.854,3.34,2.476C288.734,506.629,287.056,504.863,288.518,504.09Z" transform="translate(-3547.612 2484.858)" fill="#2f2e41"/>
      <rect id="Rectangle_2264" data-name="Rectangle 2264" width="20.591" height="0.397" transform="translate(-3256.05 3067.06) rotate(-69.123)" opacity="0.2"/>
      <circle id="Ellipse_65" data-name="Ellipse 65" cx="0.397" cy="0.397" r="0.397" transform="translate(-3254.675 2999.496)" fill="#d0cde1"/>
      <line id="Line_6" data-name="Line 6" x2="3.372" y2="10.909" transform="translate(-3254.278 2999.893)" fill="#d0cde1"/>
      <path id="Path_7327" data-name="Path 7327" d="M306.178,546.894a.2.2,0,0,1-.189-.14l-3.372-10.909a.2.2,0,0,1,.379-.117l3.372,10.909a.2.2,0,0,1-.189.257Z" transform="translate(-3557.085 2464.105)" fill="#d0cde1"/>
      <path id="Path_7343" data-name="Path 7343" d="M257.05,705.849s-2.483,5.4-4.5,6.92c-2.041-1.519-4.573-6.92-4.573-6.92s-2.483,5.4-4.5,6.92c-2.041-1.519-4.573-6.92-4.573-6.92s-7.052,7.209-7.032,10.623a2.5,2.5,0,0,0,.014.255c.241,2.235,7.531,2.8,11.536,1.751a20.389,20.389,0,0,0,9.072,0c3.988,1.07,11.427.457,11.644-1.8a2.512,2.512,0,0,0,.012-.255C264.134,713.006,257.05,705.849,257.05,705.849Z" transform="translate(-3524.285 2385.152)" fill="#268aca"/>
      <path id="Path_7344" data-name="Path 7344" d="M533.29,705.849s-2.483,5.4-4.5,6.92c-2.041-1.519-4.573-6.92-4.573-6.92s-2.483,5.4-4.5,6.92c-2.041-1.519-4.573-6.92-4.573-6.92s-7.052,7.209-7.032,10.623a2.5,2.5,0,0,0,.014.255c.241,2.235,7.531,2.8,11.536,1.751a20.391,20.391,0,0,0,9.072,0c3.988,1.07,11.427.457,11.644-1.8a2.522,2.522,0,0,0,.012-.255C540.373,713.006,533.29,705.849,533.29,705.849Z" transform="translate(-3652.382 2385.152)" fill="#e6e6e6"/>
      <path id="Path_7345" data-name="Path 7345" d="M807.742,705.849s-2.483,5.4-4.5,6.92c-2.041-1.519-4.573-6.92-4.573-6.92s-2.483,5.4-4.5,6.92c-2.041-1.519-4.573-6.92-4.573-6.92s-7.052,7.209-7.032,10.623a2.5,2.5,0,0,0,.014.255c.241,2.235,7.531,2.8,11.536,1.751a20.39,20.39,0,0,0,9.071,0c3.988,1.07,11.427.457,11.644-1.8a2.5,2.5,0,0,0,.012-.255C814.825,713.006,807.742,705.849,807.742,705.849Z" transform="translate(-3887.979 2385.152)" fill="#268aca"/>
      <path id="Path_7346" data-name="Path 7346" d="M274.961,216.38l-.065.035a4.805,4.805,0,0,1-4.582.016l-.121-.065a4.828,4.828,0,0,0-4.577.016l-.061.033a4.805,4.805,0,0,1-4.582.016l-.126-.067a4.8,4.8,0,0,0-4.532-.008c-2.131,1.148-5.012,3.11-5,5.326a2.58,2.58,0,0,0,.015.262c.248,2.3,7.754,2.888,11.878,1.8a20.993,20.993,0,0,0,9.34,0c4.106,1.1,11.765.471,11.989-1.857a2.58,2.58,0,0,0,.012-.262c-.013-2.217-2.919-4.159-5.064-5.29a4.8,4.8,0,0,0-4.526.042Z" transform="translate(-3552.3 2696.402)" fill="#e6e6e6"/>
      <path id="Path_7347" data-name="Path 7347" d="M535.084,261.735l-.065.035a4.805,4.805,0,0,1-4.582.016l-.121-.065a4.829,4.829,0,0,0-4.577.016l-.061.033a4.805,4.805,0,0,1-4.582.016l-.126-.067a4.8,4.8,0,0,0-4.532-.008c-2.131,1.148-5.012,3.11-5,5.326a2.58,2.58,0,0,0,.015.262c.248,2.3,7.754,2.888,11.878,1.8a20.992,20.992,0,0,0,9.34,0c4.106,1.1,11.765.471,11.989-1.857a2.563,2.563,0,0,0,.012-.262c-.013-2.217-2.919-4.159-5.064-5.29A4.8,4.8,0,0,0,535.084,261.735Z" transform="translate(-3653.924 2591.369)" fill="#e6e6e6"/>
      <path id="Path_7348" data-name="Path 7348" d="M714.868,218.347l-.065.035a4.805,4.805,0,0,1-4.582.016l-.121-.065a4.828,4.828,0,0,0-4.577.016l-.061.033a4.805,4.805,0,0,1-4.582.016l-.126-.067a4.8,4.8,0,0,0-4.532-.008c-2.131,1.148-5.012,3.11-5,5.326a2.58,2.58,0,0,0,.015.262c.248,2.3,7.754,2.888,11.878,1.8a20.993,20.993,0,0,0,9.34,0c4.106,1.1,11.765.471,11.989-1.857a2.562,2.562,0,0,0,.012-.262c-.013-2.217-2.919-4.159-5.064-5.29A4.8,4.8,0,0,0,714.868,218.347Z" transform="translate(-3774.293 2675.489)" fill="#e6e6e6"/>
      <path id="Path_7349" data-name="Path 7349" d="M0,0H0Z" transform="translate(-3309.171 3103.272)" fill="#3f3d56" opacity="0.144"/>
    </g>
  </g>
</svg>
